<svg xmlns="http://www.w3.org/2000/svg" width="100.315" height="93.661" viewBox="0 0 100.315 93.661"><g transform="translate(-909.843 -1205.334)"><g transform="translate(-6594.604 1561.707)"><path d="M214.844,45.556a11.9,11.9,0,0,0-.086-1.854c-.02-.534-.022-1-.02-1.542a5.519,5.519,0,0,0-.192-1.337.912.912,0,0,1,0-.555.884.884,0,0,1,.212-.329.522.522,0,0,1,.537-.148.722.722,0,0,1,.406.276.959.959,0,0,1,0,.756,3.887,3.887,0,0,0-.017,1.268c0,.325,0,.653-.022.985a14.589,14.589,0,0,0,.081,1.946l.049.411a.493.493,0,0,1-.406.534,1.8,1.8,0,0,1-.36.049C214.783,46.025,214.815,45.807,214.844,45.556ZM215.9,55.588v-.042a.145.145,0,0,1,0-.074,7.535,7.535,0,0,0,.076-1.332,15.69,15.69,0,0,1-.145-2.63,15.171,15.171,0,0,0,.049-2.12,3.4,3.4,0,0,0-.266-1.362.7.7,0,0,0-.268-.076l-.315-.034a.212.212,0,0,0-.18.138l-.025.1a.318.318,0,0,1,0,.2,4.019,4.019,0,0,0-.16,1.032c-.025.554.089,1.113.086,1.67,0,.416-.064.83-.094,1.231.015.35.047.7.079,1.057l.035.364-.03,1.724A4.915,4.915,0,0,1,214.832,57a.168.168,0,0,1,.022.062,8.7,8.7,0,0,1,.037,1.02,3.449,3.449,0,0,0,.185,1.145c.025.123.054.246.084.367a.246.246,0,0,0,.094.116.155.155,0,0,0,.217,0,1.379,1.379,0,0,0,.374-1l.03-.638.017-.4a8.317,8.317,0,0,0,.015-.894l-.052-1.037Zm-.946-19.544-.214.089a.492.492,0,0,0-.246.281.514.514,0,0,0-.042.2c.027.377.049.756.1,1.128a1.987,1.987,0,0,0,.153.493.246.246,0,0,0,.145.116.606.606,0,0,0,.574-.1.63.63,0,0,0,.246-.352,6.073,6.073,0,0,0,.111-1.165,1.014,1.014,0,0,0-.071-.384.493.493,0,0,0-.763-.313Zm-26.3,19.81a1.7,1.7,0,0,0,.219-.291.493.493,0,0,0-.091-.667l-.325-.246a14.419,14.419,0,0,1-1.433-1.318c-.224-.246-.448-.493-.68-.712a3.876,3.876,0,0,1-.805-.985.965.965,0,0,0-.613-.458.739.739,0,0,0-.493.094.517.517,0,0,0-.273.493,1.163,1.163,0,0,0,.084.443.923.923,0,0,0,.342.436,6.219,6.219,0,0,1,1.118.914c.377.382.763.751,1.155,1.113a10.528,10.528,0,0,1,1.266,1.2.305.305,0,0,0,.517-.012Zm7.371,6.157L196,61.976a.145.145,0,0,1-.044-.059,7.555,7.555,0,0,0-.887-.985,15.726,15.726,0,0,1-1.97-1.758,15.121,15.121,0,0,0-1.463-1.534,3.327,3.327,0,0,0-1.153-.776.673.673,0,0,0-.246.135l-.246.207a.214.214,0,0,0-.03.224l.054.086a.305.305,0,0,1,.148.138,3.988,3.988,0,0,0,.618.845c.374.409.85.724,1.231,1.121.293.3.539.63.81.941.259.246.532.465.8.695l.283.231,1.2,1.246a4.972,4.972,0,0,1,1.17,1.037.222.222,0,0,1,.059.03,9.345,9.345,0,0,1,.739.694,3.407,3.407,0,0,0,.941.68c.1.069.212.135.32.2a.246.246,0,0,0,.145.017.16.16,0,0,0,.163-.148,1.391,1.391,0,0,0-.443-.985l-.426-.461-.268-.293c-.2-.217-.4-.441-.623-.643l-.768-.694ZM181.445,48.929v.144a.493.493,0,0,0,.022.374.53.53,0,0,0,.116.175c.286.246.569.493.867.739a2,2,0,0,0,.453.246.246.246,0,0,0,.185-.02.6.6,0,0,0,.337-.473.63.63,0,0,0-.071-.429,6.188,6.188,0,0,0-.739-.9,1.022,1.022,0,0,0-.323-.222c-.274-.1-.364-.1-.468-.059s-.539.45-.391.432Zm11.469,23.437-11.329-2.9m7.728,1.391-.039-.015a.157.157,0,0,1-.071-.03,8.41,8.41,0,0,0-1.315-.4,17.546,17.546,0,0,1-2.734-.537c-.246-.081-2.542-.874-3.3-.608a1.03,1.03,0,0,0-.177.222c-.071.123-.246.332-.158.443.133.177.468.246.677.34a3.619,3.619,0,0,0,.6.175c.47.106.968.153,1.433.271.421.108.813.268,1.217.4.362.079.739.138,1.108.2l.382.062q.874.229,1.744.465c.315.052.645.069.96.118a8.421,8.421,0,0,0,2.756.475h.323a.315.315,0,0,0,.131-.062c.081-.057.118-.123.1-.19a.8.8,0,0,0-.611-.527q-.436-.138-.879-.266c-.3-.084-.586-.177-.9-.246-.36-.067-.717-.14-1.074-.214Zm17.732-11.082-5.96-10.058m4.475,6.443-.017-.039a.15.15,0,0,1-.03-.069,8.124,8.124,0,0,0-.645-1.217,18.261,18.261,0,0,1-1.552-2.315c-.118-.231-1.18-2.413-1.906-2.763a.946.946,0,0,0-.281.032c-.138.034-.406.062-.426.2a1.561,1.561,0,0,0,.246.719,3.694,3.694,0,0,0,.288.547c.259.406.576.793.82,1.2.222.374.387.763.581,1.143.2.31.424.616.643.924l.227.313c.305.52.6,1.042.906,1.561.182.261.4.493.594.763.529.739.8,1.689,1.613,2.285.071.076.15.15.229.224a.288.288,0,0,0,.135.049.182.182,0,0,0,.207-.062.8.8,0,0,0-.044-.791c-.14-.268-.283-.539-.433-.808s-.288-.542-.468-.808c-.207-.3-.406-.606-.608-.911ZM175.1,82.234a1.8,1.8,0,0,0-.049-.36.493.493,0,0,0-.537-.409l-.409.052a14.6,14.6,0,0,1-1.948.081c-.328,0-.655-.022-.985-.022a3.911,3.911,0,0,1-1.268-.128.985.985,0,0,0-.756.108.739.739,0,0,0-.276.409.52.52,0,0,0,.15.537,1.148,1.148,0,0,0,.372.246.9.9,0,0,0,.549.064,6.306,6.306,0,0,1,1.438-.145c.537,0,1.071,0,1.6-.03a10.774,10.774,0,0,1,1.741-.047C174.98,82.631,175.11,82.486,175.1,82.234Zm12.459-.855H187.5a.359.359,0,0,1-.106,0,16.111,16.111,0,0,0-1.953-.076,33.635,33.635,0,0,1-3.859.145c-.246-.012-1.825-.113-3.105-.049a3.365,3.365,0,0,0-1.364.266.739.739,0,0,0-.076.268l-.032.325a.209.209,0,0,0,.138.18l.1.025a.3.3,0,0,1,.2,0,4.034,4.034,0,0,0,1.034.158c.81.025,1.63-.089,2.448-.084.611,0,1.214.064,1.817.094.515-.015,1.034-.049,1.552-.079l.532-.037,2.539.032a10.656,10.656,0,0,1,2.288-.094.372.372,0,0,1,.094-.02c.48-.052.985-.027,1.492-.037a3.355,3.355,0,0,0,1.145-.187c.123-.022.246-.052.369-.081a.259.259,0,0,0,.113-.108.155.155,0,0,0,0-.217,1.387,1.387,0,0,0-1-.377l-.638-.03-.584-.017c-.433,0-.867-.032-1.31-.012l-1.52.052Zm-22.433.948.089.214a.493.493,0,0,0,.281.246.522.522,0,0,0,.207.039c.377-.025.754-.047,1.125-.1a2.093,2.093,0,0,0,.493-.15.246.246,0,0,0,.118-.145.611.611,0,0,0-.1-.574.662.662,0,0,0-.355-.246,6.25,6.25,0,0,0-1.162-.108,1.012,1.012,0,0,0-.384.069.493.493,0,0,0-.315.751ZM246.121,51.4a.522.522,0,0,0-.492-.273,1.162,1.162,0,0,0-.443.084.909.909,0,0,0-.436.342,6.113,6.113,0,0,1-.914,1.118c-.382.377-.751.763-1.113,1.155a10.521,10.521,0,0,1-1.2,1.266.305.305,0,0,0,0,.52,1.59,1.59,0,0,0,.288.219.493.493,0,0,0,.667-.091l.246-.325a14.444,14.444,0,0,1,1.32-1.433c.246-.224.478-.448.709-.68a3.918,3.918,0,0,1,.985-.805.965.965,0,0,0,.458-.613A.738.738,0,0,0,246.121,51.4Zm-5.726,5.8-.207-.246a.212.212,0,0,0-.222-.03l-.089.052a.3.3,0,0,1-.138.15,3.969,3.969,0,0,0-.842.618c-.409.374-.727.85-1.121,1.231-.3.291-.633.539-.943.81-.246.259-.466.532-.692.8l-.232.281-1.258,1.2a5.038,5.038,0,0,1-1.039,1.17.22.22,0,0,1-.03.059,9.31,9.31,0,0,1-.694.739,3.313,3.313,0,0,0-.677.941c-.071.1-.138.212-.2.318a.246.246,0,0,0-.017.148c.012.1.064.155.148.16a1.379,1.379,0,0,0,.973-.441l.473-.431.293-.268c.217-.2.441-.4.643-.623l.694-.768.148-.106.034-.025a.125.125,0,0,1,.059-.044,7.386,7.386,0,0,0,.985-.887,15.724,15.724,0,0,1,1.758-1.97,15.333,15.333,0,0,0,1.534-1.463,3.349,3.349,0,0,0,.773-1.153A.672.672,0,0,0,240.395,57.2Zm8.127-8.708-.214-.089a.564.564,0,0,0-.549.138c-.246.286-.493.569-.739.864a2.012,2.012,0,0,0-.246.456.246.246,0,0,0,.02.185.608.608,0,0,0,.473.337.645.645,0,0,0,.428-.071,6.185,6.185,0,0,0,.9-.739,1.022,1.022,0,0,0,.222-.323.493.493,0,0,0-.3-.759Zm.148,20.534a1.657,1.657,0,0,0-.758.027,4.04,4.04,0,0,0-.606.133c-.465.135-.924.332-1.389.451-.421.108-.84.158-1.258.246-.352.106-.709.234-1.066.36l-.364.131c-.584.145-1.17.286-1.753.429-.3.106-.6.246-.9.357a8.378,8.378,0,0,0-2.645.909c-.094.047-.187.1-.281.155a.355.355,0,0,0-.086.116.185.185,0,0,0,0,.217.793.793,0,0,0,.788.167c.3-.057.6-.121.9-.187s.6-.126.906-.224c.35-.113.7-.219,1.044-.328l.182-.017h.044a.13.13,0,0,1,.074,0,8.266,8.266,0,0,0,1.35-.278,18.007,18.007,0,0,1,2.655-.842c.246-.047,2.647-.453,3.189-1.052a.985.985,0,0,0,.047-.281c0-.165.049-.431-.076-.488Zm-25.292-9.255,5.96-10.058m-3.5,7.026.027-.034a.148.148,0,0,1,.047-.059,8.291,8.291,0,0,0,.758-1.15,17.736,17.736,0,0,1,1.281-2.463c.148-.212,1.551-2.192,1.512-3a1,1,0,0,0-.165-.231c-.1-.106-.246-.328-.382-.278-.2.079-.374.377-.515.554a3.96,3.96,0,0,0-.335.525c-.234.424-.419.887-.663,1.3-.222.372-.492.7-.724,1.057-.175.325-.335.667-.493,1.007-.057.116-.111.246-.165.35-.31.517-.623,1.029-.936,1.544-.14.286-.246.6-.384.887a8.481,8.481,0,0,0-1.231,2.514c-.032.1-.059.2-.086.308a.3.3,0,0,0,.02.143c.032.1.086.148.155.153a.8.8,0,0,0,.675-.438q.246-.377.493-.768c.165-.261.337-.512.493-.8.165-.328.337-.648.507-.97Zm29.479,25.152a1.622,1.622,0,0,0,.049.357.493.493,0,0,0,.534.409l.411-.052a14.59,14.59,0,0,1,1.946-.081c.328.015.658.022.985.022a3.911,3.911,0,0,1,1.268.128.963.963,0,0,0,.756-.108.738.738,0,0,0,.276-.409.515.515,0,0,0-.15-.534,1.131,1.131,0,0,0-.372-.246.918.918,0,0,0-.549-.064,6.309,6.309,0,0,1-1.438.145c-.534,0-1.069,0-1.6.03a10.768,10.768,0,0,1-1.741.047C255.43,81.493,255.3,81.638,255.312,81.892Zm-12.454.852h.062a.359.359,0,0,1,.106,0,16.126,16.126,0,0,0,1.953.079,33.107,33.107,0,0,1,3.859-.148c.246.012,1.825.113,3.108.049a3.32,3.32,0,0,0,1.362-.266.686.686,0,0,0,.076-.268l.034-.325a.219.219,0,0,0-.138-.18l-.1-.022a.32.32,0,0,1-.2,0,4.031,4.031,0,0,0-1.032-.158c-.813-.025-1.633.089-2.45.084-.608,0-1.214-.064-1.817-.094-.515.015-1.034.049-1.552.079l-.532.037-2.539-.032a10.659,10.659,0,0,1-2.288.094.517.517,0,0,1-.094.022c-.493.049-.985.025-1.492.034a3.364,3.364,0,0,0-1.145.187c-.123.022-.246.052-.367.081a.247.247,0,0,0-.116.094.155.155,0,0,0,0,.217,1.387,1.387,0,0,0,1,.377l.638.03.584.017c.436,0,.869.032,1.313.012l1.517-.052Zm22.433-.948-.089-.214a.569.569,0,0,0-.493-.288c-.377.025-.756.049-1.128.1a1.987,1.987,0,0,0-.493.153.226.226,0,0,0-.116.145.606.606,0,0,0,.094.571.662.662,0,0,0,.355.246,6.25,6.25,0,0,0,1.165.108,1.019,1.019,0,0,0,.384-.069.492.492,0,0,0,.313-.749ZM230.364,46.943a.574.574,0,1,0,.574.574A.574.574,0,0,0,230.364,46.943ZM179.447,68.152a.658.658,0,1,0,.655.658A.658.658,0,0,0,179.447,68.152Z" transform="translate(7339.4 -391.917)" fill="#fff"/><path d="M214.345,45.528a11.057,11.057,0,0,0-.084-1.771l0-.037c-.02-.545-.023-1.019-.02-1.562v-.006a4.46,4.46,0,0,0-.15-1.082l-.035-.159a1.332,1.332,0,0,1,.038-.851l.455.208a.894.894,0,0,0,0,.546l0,.01.031.139a4.906,4.906,0,0,1,.161,1.2c0,.537,0,1.007.02,1.542a11.9,11.9,0,0,1,.086,1.854Zm-.262-5.449a1.374,1.374,0,0,1,.318-.49l.357.35a.885.885,0,0,0-.212.329Zm.305-.477a1.027,1.027,0,0,1,1.051-.289l-.145.479a.522.522,0,0,0-.537.148Zm1.029-.3a1.224,1.224,0,0,1,.688.467l.021.032a1.408,1.408,0,0,1,.057,1.146,2.61,2.61,0,0,0-.02.863c.007.082.013.164.018.246v.032c0,.329,0,.669-.023,1.018l-.5-.033c.022-.332.022-.66.022-.985,0-.079-.011-.158-.018-.237a2.992,2.992,0,0,1,.035-1.031.959.959,0,0,0,0-.756.722.722,0,0,0-.406-.276Zm.744,3.782a14.14,14.14,0,0,0,.078,1.879l-.5.054a14.589,14.589,0,0,1-.081-1.946Zm.078,1.874.05.421a1,1,0,0,1-.819,1.077l-.085-.493a.493.493,0,0,0,.406-.534l-.049-.411Zm-.736,1.491a2.309,2.309,0,0,1-.459.063.674.674,0,0,1-.54-.212.931.931,0,0,1-.159-.789l0-.018.5.058,0,.019c-.02.167-.038.318.031.392a.188.188,0,0,0,.154.05,1.8,1.8,0,0,0,.36-.049Zm-.105,9.133v-.042h.5v.042Zm.016.085a.646.646,0,0,1,0-.329l.484.127a.145.145,0,0,0,0,.074ZM215.4,55.4a7.054,7.054,0,0,0,.071-1.244l.5-.016a7.535,7.535,0,0,1-.076,1.332Zm.073-1.216c-.017-.2-.039-.4-.059-.6a11.371,11.371,0,0,1-.086-2.111v-.006a14.722,14.722,0,0,0,.048-2.051l.5-.023a15.171,15.171,0,0,1-.049,2.12,10.931,10.931,0,0,0,.085,2.019c.021.2.042.407.06.611Zm-.1-4.765a2.814,2.814,0,0,0-.19-1.124l.423-.266a3.4,3.4,0,0,1,.266,1.362Zm0-.947a.2.2,0,0,0-.076-.022l-.017,0-.315-.034.054-.5.315.034a.7.7,0,0,1,.268.076Zm-.048-.3-.025.1-.485-.121.025-.1Zm-.036-.183a.822.822,0,0,1,0,.526l-.473-.161a.318.318,0,0,0,0-.2Zm.007.505a3.52,3.52,0,0,0-.14.9v.01a6.332,6.332,0,0,0,.04.839c.024.262.048.533.047.81a8.477,8.477,0,0,1-.058.866c-.014.139-.028.271-.037.4l-.5-.037c.01-.137.024-.275.038-.414a8.069,8.069,0,0,0,.055-.817c0-.254-.022-.509-.045-.763a6.76,6.76,0,0,1-.041-.906,4.019,4.019,0,0,1,.16-1.032Zm-.148,3.772c.014.342.046.693.077,1.032l.037.39-.03,1.752-.5-.009.03-1.724-.035-.364c-.032-.352-.064-.707-.079-1.057Zm.082,3.124c.012.139.034.283.058.435a3.242,3.242,0,0,1,.021,1.284L214.832,57a2.8,2.8,0,0,0-.028-1.091c-.025-.157-.049-.314-.063-.471Zm.021,1.345a.664.664,0,0,1,.088.245l0,.027a9.24,9.24,0,0,1,.039,1.078l-.5-.011a8.7,8.7,0,0,0-.037-1.02.168.168,0,0,0-.022-.062Zm.131,1.344a2.942,2.942,0,0,0,.158.979l.011.031.006.032c.023.117.052.235.079.346l-.486.119c-.03-.121-.059-.244-.084-.367a3.449,3.449,0,0,1-.185-1.145Zm.138,1.206.04.026.034.033-.349.358Zm-.423.074a.884.884,0,0,0,.239-.637V58.7l.048-1.07a7.851,7.851,0,0,0,.014-.84l.5-.019a8.317,8.317,0,0,1-.015.894l-.017.4-.03.638a1.379,1.379,0,0,1-.374,1Zm.3-2.563-.056-1.122.068-.232.48.141-.044.15.052,1.037Zm-.263-20.294-.214.089-.191-.462.214-.089Zm-.179.07-.014.035a.014.014,0,0,0,0,.006h-.5a.514.514,0,0,1,.042-.2Zm-.016.006.013.191c.022.316.043.615.08.91l-.5.062c-.039-.309-.061-.624-.083-.938q-.007-.1-.013-.19Zm.09,1.079a1.486,1.486,0,0,0,.114.369l-.454.209a1.986,1.986,0,0,1-.153-.493Zm-.054.213.023.007a.105.105,0,0,0,.1-.017l.022-.016a.13.13,0,0,0,.051-.073l.483.13a.63.63,0,0,1-.246.352.606.606,0,0,1-.574.1Zm.188-.064a5.585,5.585,0,0,0,.1-1.069v-.006a.512.512,0,0,0-.036-.195l-.017-.044-.009-.046.491-.094a1.014,1.014,0,0,1,.071.384,6.073,6.073,0,0,1-.111,1.165Zm-.233-2.267h.012l.191.962-.191-.462h-.012ZM188.286,55.511a1.2,1.2,0,0,0,.155-.2l.021-.033.408.289a1.7,1.7,0,0,1-.219.291Zm.191-.217-.336-.255a14.972,14.972,0,0,1-1.483-1.363l-.007-.008c-.224-.246-.436-.479-.654-.685l.344-.363c.231.219.455.465.68.712a14.419,14.419,0,0,0,1.433,1.318l.325.246ZM186.011,53a4.366,4.366,0,0,1-.909-1.112.467.467,0,0,0-.3-.22l.116-.486a.965.965,0,0,1,.613.458,3.876,3.876,0,0,0,.805.985Zm-1.168-1.325a.239.239,0,0,0-.159.03l-.02.011a.017.017,0,0,0-.009.016v.039a.66.66,0,0,0,.048.253l0,.01a.421.421,0,0,0,.157.2l-.282.413a.923.923,0,0,1-.342-.436,1.163,1.163,0,0,1-.084-.443.517.517,0,0,1,.273-.493.739.739,0,0,1,.493-.094Zm.008.55a6.727,6.727,0,0,1,1.208.987c.336.34.708.7,1.135,1.094l-.339.367c-.392-.362-.778-.731-1.155-1.113a6.218,6.218,0,0,0-1.118-.914Zm2.316,2.058a11.061,11.061,0,0,1,1.326,1.254l.024.027.02.031-.417.276a10.529,10.529,0,0,0-1.266-1.2Zm1.041,1.319.145-.244h.3v.5h-.012Zm7.406,6.7-.025-.034.407-.291.025.034Zm.072.067a.646.646,0,0,1-.2-.263l.463-.188a.145.145,0,0,0,.044.059Zm-.133-.15a7.075,7.075,0,0,0-.828-.92l.341-.366a7.555,7.555,0,0,1,.887.985Zm-.808-.9c-.153-.128-.312-.256-.466-.381a11.465,11.465,0,0,1-1.564-1.436l0-.006a14.673,14.673,0,0,0-1.414-1.484,2.713,2.713,0,0,0-.925-.657l.109-.488a3.327,3.327,0,0,1,1.153.776,15.121,15.121,0,0,1,1.463,1.534,11.019,11.019,0,0,0,1.5,1.372c.158.128.316.256.472.386Zm-4.121-3.973a.171.171,0,0,0-.063.035l-.006,0-.246.207-.322-.383.246-.207a.673.673,0,0,1,.246-.135Zm-.243-.179.054.086-.423.266-.054-.086Zm-.168-.105a.808.808,0,0,1,.39.364l-.443.232a.305.305,0,0,0-.148-.138Zm.386.356a3.489,3.489,0,0,0,.541.739l.007.008a6.333,6.333,0,0,0,.6.549,7.913,7.913,0,0,1,.622.562l-.36.347a7.491,7.491,0,0,0-.583-.526,6.764,6.764,0,0,1-.648-.594,3.988,3.988,0,0,1-.618-.845Zm1.766,1.853c.2.205.382.422.554.632.1.116.185.225.278.332l-.377.329c-.1-.112-.193-.228-.288-.343-.167-.2-.335-.409-.523-.6Zm.8.931c.187.178.382.341.59.514l.191.16-.323.382-.189-.158c-.208-.174-.415-.347-.614-.536Zm.774.669.306.25,1.222,1.267-.36.347-1.2-1.246-.283-.231Zm1.49,1.482c.107.09.225.176.35.266a3.276,3.276,0,0,1,.923.889l-.424.264a2.827,2.827,0,0,0-.793-.749c-.128-.093-.257-.187-.377-.288Zm1,.944a.722.722,0,0,1,.192.1l.034.027a9.883,9.883,0,0,1,.778.732l-.362.345a9.345,9.345,0,0,0-.739-.694.222.222,0,0,0-.059-.03Zm1,.85a2.9,2.9,0,0,0,.8.58l.03.015.028.019c.084.056.182.117.3.185l-.254.43c-.108-.064-.217-.131-.32-.2a3.407,3.407,0,0,1-.941-.68Zm.958.754.05-.009h.051l-.009.5Zm-.246.356a.9.9,0,0,0-.284-.631l-.026-.026-.7-.755-.128-.139c-.154-.168-.3-.326-.459-.468l-.826-.746-.132-.218.428-.258.094.155.768.694a7.005,7.005,0,0,1,.495.5l.128.139.268.293.426.461a1.391,1.391,0,0,1,.443.985Zm-16.2-16.324v.228l-.027.079-.473-.163v-.144Zm-.028.3.013.029a.03.03,0,0,0,.007.01l-.354.353a.53.53,0,0,1-.116-.175Zm-.008.014.12.1c.239.206.487.42.739.628l-.319.385c-.256-.212-.5-.423-.747-.635l-.12-.1Zm.834.713a1.5,1.5,0,0,0,.34.185l-.18.466a2,2,0,0,1-.453-.246Zm.108.191.021-.01a.1.1,0,0,0,.057-.079l.005-.035a.13.13,0,0,0-.015-.089l.435-.247a.63.63,0,0,1,.071.429.6.6,0,0,1-.337.473Zm.088-.182a5.7,5.7,0,0,0-.679-.829.523.523,0,0,0-.166-.115l.2-.459a1.022,1.022,0,0,1,.323.222,6.188,6.188,0,0,1,.739.9Zm-.82-.933a.9.9,0,0,0-.173-.053l.053-.5a1.282,1.282,0,0,1,.293.081Zm-.062-.087a1.407,1.407,0,0,0-.217.2l-.4-.3a1.785,1.785,0,0,1,.346-.326Zm-.881-.438.769-.461v.882h-.5l-.012.007ZM192.79,72.851l-11.329-2.9.124-.484,11.329,2.9Zm-3.652-1.523-.039-.015.176-.468.039.015Zm.065.012a.66.66,0,0,1-.3-.123l.3-.4a.157.157,0,0,0,.071.03Zm-.185-.06a7.933,7.933,0,0,0-1.237-.38l.107-.488a8.41,8.41,0,0,1,1.315.4Zm-1.211-.375c-.208-.034-.422-.066-.629-.1a12.7,12.7,0,0,1-2.183-.459l-.045-.015a6.861,6.861,0,0,0-2.933-.6l-.165-.472c.727-.254,2.852.457,3.257.593l.046.015a12.249,12.249,0,0,0,2.1.438c.212.032.425.064.637.1Zm-5.611-1.275a.529.529,0,0,0-.091.114l-.43-.256a1.03,1.03,0,0,1,.177-.222Zm-.088.109c-.018.03-.04.065-.064.1a1.138,1.138,0,0,0-.065.107l-.46-.2a1.271,1.271,0,0,1,.107-.185c.019-.029.036-.055.05-.079Zm-.2-.12.01.012-.4.3Zm-.007-.006a1.4,1.4,0,0,0,.265.112c.077.027.157.056.233.09l-.2.456c-.058-.026-.126-.05-.2-.075a1.441,1.441,0,0,1-.413-.2Zm.476.193a3.128,3.128,0,0,0,.514.151l.011,0c.2.045.4.078.622.114.27.044.549.09.825.16s.555.168.814.259c.148.052.288.1.43.146l-.151.477c-.149-.047-.3-.1-.444-.151-.253-.088-.507-.177-.772-.246s-.519-.108-.783-.151c-.219-.036-.438-.072-.651-.12a3.619,3.619,0,0,1-.6-.175Zm3.171.82c.3.065.617.118.926.169l.585.1c.581.152,1.17.309,1.748.467l-.131.482q-.869-.236-1.744-.465l-.382-.062-.158-.026c-.318-.053-.64-.106-.95-.173Zm3.208.722c.149.024.3.041.469.058s.324.034.488.06a7.81,7.81,0,0,1,.973.241,3.726,3.726,0,0,0,1.629.234l.038-.006h.361v.5h-.323a4.15,4.15,0,0,1-1.847-.248,7.38,7.38,0,0,0-.909-.227c-.152-.024-.308-.04-.463-.056s-.334-.035-.5-.062Zm3.777.634.025-.019.286.41Zm-.058.364a.3.3,0,0,0-.229-.2l-.03-.006-.029-.009c-.285-.09-.577-.179-.867-.262l-.234-.068c-.216-.063-.42-.123-.636-.17l.107-.488c.233.051.452.115.67.179l.231.067q.443.128.879.266a.8.8,0,0,1,.611.527Zm-2.009-.71c-.366-.068-.731-.143-1.084-.216l-.046-.009-.211-.087.19-.462.167.069c.357.074.714.148,1.074.214Zm16.151-11.6-5.96-10.058.43-.255,5.96,10.058Zm-1.513-3.67-.017-.039.458-.2.017.039Zm.045.066a.652.652,0,0,1-.128-.3l.494-.076a.15.15,0,0,0,.03.069Zm-.094-.178a7.646,7.646,0,0,0-.606-1.142l.42-.271a8.124,8.124,0,0,1,.645,1.217Zm-.592-1.122c-.124-.173-.253-.35-.379-.52a13.117,13.117,0,0,1-1.213-1.861l-.029-.058c-1.084-2.16-1.592-2.452-1.647-2.479l.217-.451c.685.33,1.667,2.287,1.877,2.7l.029.058a12.671,12.671,0,0,0,1.168,1.789c.129.175.257.35.383.526Zm-3.069-4.869a.445.445,0,0,0-.132.015l-.009,0-.1.023a1.135,1.135,0,0,0-.129.031l-.189-.463a1.281,1.281,0,0,1,.217-.058l.082-.018a.946.946,0,0,1,.281-.032Zm-.192-.219a1.5,1.5,0,0,0,.133.315c.026.051.05.1.071.144l.007.015a3.2,3.2,0,0,0,.249.473c.108.17.227.336.353.512.162.226.329.459.476.706.155.262.282.526.4.781.065.135.126.262.191.389l-.445.228c-.068-.133-.132-.266-.2-.4-.12-.249-.24-.5-.384-.742-.135-.228-.294-.449-.452-.67-.127-.177-.253-.353-.368-.534a3.693,3.693,0,0,1-.288-.547c-.019-.04-.041-.084-.064-.129a1.525,1.525,0,0,1-.185-.5Zm1.859,3.291c.165.254.342.5.53.764l.1.142.25.349c.179.3.358.614.531.914q.188.325.376.649l-.432.252q-.189-.325-.377-.651c-.175-.3-.351-.608-.529-.911l-.227-.313-.1-.141c-.186-.26-.371-.519-.542-.782Zm1.767,2.784c.08.114.172.226.269.345s.218.266.324.418l-.41.287c-.1-.136-.2-.262-.3-.387s-.2-.246-.292-.376Zm.59.758a8.033,8.033,0,0,1,.51.85,3.742,3.742,0,0,0,.992,1.323l.038.028.032.034c.061.065.135.134.206.2l-.342.365c-.079-.074-.158-.148-.229-.224a4.165,4.165,0,0,1-1.136-1.487,7.606,7.606,0,0,0-.478-.8Zm1.619,2.352.062.006.059.021-.169.471Zm-.288.212a.3.3,0,0,0-.016-.294l-.024-.041c-.127-.243-.275-.524-.427-.8-.038-.068-.075-.136-.112-.2-.109-.2-.211-.387-.334-.568-.186-.273-.37-.551-.548-.821l-.087-.132-.1-.223.459-.2.079.182.063.095c.181.273.36.545.546.816.135.2.247.405.358.609.036.067.073.133.11.2.15.268.293.539.433.808a.8.8,0,0,1,.044.791ZM174.6,82.252a1.3,1.3,0,0,0-.036-.26l-.007-.035.493-.082a1.8,1.8,0,0,1,.049.36Zm-.024-.29-.417.053a15.158,15.158,0,0,1-2.015.084l.013-.5a14.6,14.6,0,0,0,1.948-.081l.409-.052Zm-2.42.137c-.172,0-.343-.006-.508-.011s-.321-.011-.477-.011v-.5c.165,0,.33.006.494.011s.327.011.491.011Zm-.954-.023a4.4,4.4,0,0,1-1.431-.144.486.486,0,0,0-.368.055l-.257-.429a.985.985,0,0,1,.756-.108,3.911,3.911,0,0,0,1.268.128Zm-1.759-.117a.239.239,0,0,0-.089.132l-.005.019a.02.02,0,0,0,.006.02l.018.017a.644.644,0,0,0,.21.139l.018.008a.4.4,0,0,0,.244.028l.1.49a.9.9,0,0,1-.549-.064,1.148,1.148,0,0,1-.372-.246.52.52,0,0,1-.15-.537.739.739,0,0,1,.276-.409Zm.391.366a6.816,6.816,0,0,1,1.552-.157l-.007.5a6.306,6.306,0,0,0-1.438.145Zm1.545-.157c.544,0,1.057,0,1.576-.029l.028.5c-.532.03-1.066.03-1.6.03Zm1.549-.027a11.307,11.307,0,0,1,1.822-.049h.025l.025,0-.077.494a10.773,10.773,0,0,0-1.741.047Zm1.67.127a.1.1,0,0,0,0-.014v0l.5-.018a.592.592,0,0,1,0,.092Zm12.959-.388H187.5v-.5h.062Zm.012-.005a.858.858,0,0,1-.254,0l.074-.495a.359.359,0,0,0,.106,0Zm-.23,0a15.672,15.672,0,0,0-1.892-.074l-.011-.5a16.111,16.111,0,0,1,1.953.076Zm-1.874-.075c-.3.018-.6.039-.89.06a23.979,23.979,0,0,1-3.026.086l-.1-.005A29.351,29.351,0,0,0,178.5,81.9a2.765,2.765,0,0,0-1.123.19l-.267-.423a3.365,3.365,0,0,1,1.364-.266c1.165-.058,2.576.02,3.007.044l.1.005a23.466,23.466,0,0,0,2.963-.085c.3-.021.6-.042.9-.06Zm-7.912.088a.238.238,0,0,0-.025.087v.006l-.032.325-.5-.049.032-.325a.739.739,0,0,1,.076-.268Zm-.3.063.1.025-.121.485-.1-.025Zm-.194.04a.8.8,0,0,1,.544,0l-.171.47a.3.3,0,0,0-.2,0Zm.512-.01a3.535,3.535,0,0,0,.906.138c.417.013.833-.013,1.273-.039.38-.023.773-.047,1.168-.045.412,0,.822.028,1.218.055.2.014.415.029.621.039l-.024.5c-.21-.01-.42-.025-.631-.039-.394-.027-.789-.054-1.187-.054-.378,0-.757.021-1.135.044-.439.027-.878.053-1.313.04a4.034,4.034,0,0,1-1.034-.158Zm5.147.148c.406-.012.825-.036,1.23-.06l.307-.018.029.5-.306.018c-.416.025-.832.049-1.245.061Zm1.531-.078.552-.038,2.56.032-.006.5-2.539-.032-.532.037Zm3.077-.005c.221-.013.44-.036.673-.061a6.417,6.417,0,0,1,1.723-.027l-.079.494a6,6,0,0,0-1.591.03c-.232.025-.464.05-.7.063Zm2.151-.066a.872.872,0,0,1,.22-.046l.039.5a.372.372,0,0,0-.094.02Zm.205-.045a9.9,9.9,0,0,1,1.074-.037c.152,0,.309,0,.462,0h.016a2.847,2.847,0,0,0,.975-.159l.037-.013.039-.007c.109-.02.221-.046.34-.075l.117.486c-.123.029-.245.059-.368.081a3.355,3.355,0,0,1-1.145.187c-.507.01-1.012-.015-1.492.037Zm2.735-.156.033-.06.048-.049.358.349Zm.1.387a.892.892,0,0,0-.639-.241h-.02L191.2,81.9l.023-.5.638.03a1.387,1.387,0,0,1,1,.377Zm-1.31-.27-.584-.017.015-.5.584.017Zm-.569-.017c-.172,0-.344,0-.51-.01-.268-.008-.522-.015-.778,0h-.005l-1.567.053-.3-.047.077-.494.254.039,1.52-.052c.274-.012.545,0,.814,0,.166,0,.331.009.5.009Zm-25.054.257.089.214-.462.191-.089-.214Zm.07.179.028.011.009,0,.007.5a.522.522,0,0,1-.207-.039Zm.012.013.095-.006c.346-.022.674-.044,1-.087l.066.5c-.341.045-.686.068-1.031.09l-.094.006Zm1.072-.09a1.594,1.594,0,0,0,.375-.114l.2.457a2.093,2.093,0,0,1-.493.15Zm.218.053.006-.018a.11.11,0,0,0-.017-.1l-.009-.012a.163.163,0,0,0-.087-.06l.136-.481a.662.662,0,0,1,.355.246.611.611,0,0,1,.1.574Zm-.065-.184a5.764,5.764,0,0,0-1.069-.1h-.008a.51.51,0,0,0-.194.035l-.04.016-.042.009-.1-.49a1.012,1.012,0,0,1,.384-.069,6.25,6.25,0,0,1,1.162.108Zm-1.35-.052.025.039.018.043-.462.191Zm80.135-30.42a.022.022,0,0,0-.021-.012h-.036a.659.659,0,0,0-.253.048l-.012,0a.407.407,0,0,0-.2.154l-.414-.28a.909.909,0,0,1,.436-.342,1.162,1.162,0,0,1,.443-.084.522.522,0,0,1,.492.273Zm-.51.184a6.621,6.621,0,0,1-.988,1.21l-.347-.36a6.113,6.113,0,0,0,.914-1.118Zm-.984,1.205c-.343.338-.7.711-1.1,1.139l-.367-.339c.362-.392.731-.778,1.113-1.155Zm-1.074,1.111a11.054,11.054,0,0,1-1.254,1.326l-.033.03-.038.023-.263-.425a10.522,10.522,0,0,0,1.2-1.266Zm-1.325,1.048.045.028.038.037a1.091,1.091,0,0,0,.2.15l.034.022-.289.408a1.59,1.59,0,0,1-.288-.219Zm.294.252.255-.336a15,15,0,0,1,1.366-1.483l.008-.007c.219-.2.439-.41.692-.663l.354.354c-.231.232-.463.456-.709.68a14.444,14.444,0,0,0-1.32,1.433l-.246.325Zm2.3-2.467a4.41,4.41,0,0,1,1.111-.908.467.467,0,0,0,.221-.3l.486.116a.965.965,0,0,1-.458.613,3.918,3.918,0,0,0-.985.805Zm1.326-1.175a.239.239,0,0,0-.025-.156v0l.44-.237a.738.738,0,0,1,.079.483Zm-5.7,5.728-.207-.246.383-.322.207.246Zm.206-.165-.089.052-.252-.432.089-.052Zm.121-.189a.8.8,0,0,1-.369.4l-.23-.444a.3.3,0,0,0,.138-.15Zm-.359.4a3.47,3.47,0,0,0-.736.54l-.009.008a6.43,6.43,0,0,0-.555.607,8.125,8.125,0,0,1-.555.615c-.2.2-.415.372-.622.542-.119.1-.231.19-.34.285l-.329-.377c.115-.1.233-.2.352-.295.2-.166.4-.332.592-.515a7.7,7.7,0,0,0,.52-.578,6.866,6.866,0,0,1,.6-.654,3.969,3.969,0,0,1,.842-.618ZM237.2,60.131c-.187.2-.358.4-.539.621l-.131.158-.248.3L235,62.434l-.345-.362,1.258-1.2.232-.281.13-.156c.182-.219.363-.438.562-.647ZM235.033,62.4c-.092.108-.179.227-.271.353a3.278,3.278,0,0,1-.886.918l-.264-.424a2.828,2.828,0,0,0,.747-.788c.095-.13.189-.26.293-.382Zm-.945,1a.72.72,0,0,1-.1.193l-.026.034a9.848,9.848,0,0,1-.732.778,2.8,2.8,0,0,0-.572.8l-.017.035-.022.032c-.065.094-.127.2-.185.292l-.428-.259c.064-.106.13-.214.2-.318a3.313,3.313,0,0,1,.677-.941,9.31,9.31,0,0,0,.694-.739.22.22,0,0,0,.03-.059Zm-1.605,1.955.005.033-.5.062Zm-.357-.245a.884.884,0,0,0,.62-.281l.03-.03.765-.7.138-.128c.168-.154.327-.3.469-.459l.733-.811.227-.162.291.407-.034.025-.148.106-.694.768a7.011,7.011,0,0,1-.5.5l-.139.128-.293.268-.473.431a1.379,1.379,0,0,1-.973.441Zm2.868-2.456a.623.623,0,0,1,.295-.221l.169.471a.125.125,0,0,0-.059.044Zm.164-.151a6.9,6.9,0,0,0,.918-.827l.366.34a7.386,7.386,0,0,1-.985.887Zm.9-.807c.128-.153.256-.312.381-.465a11.467,11.467,0,0,1,1.437-1.564l.006,0a14.886,14.886,0,0,0,1.484-1.415l.369.337a15.333,15.333,0,0,1-1.534,1.463,11.022,11.022,0,0,0-1.373,1.5c-.128.158-.255.316-.386.472Zm3.3-3.446a2.749,2.749,0,0,0,.658-.929l.488.109a3.349,3.349,0,0,1-.773,1.153Zm.665-.684A.171.171,0,0,0,240,57.5l.4-.3a.672.672,0,0,1,.113.227Zm8.3-8.608-.214-.089.191-.462.214.089Zm-.161-.07a.064.064,0,0,0-.062.016l-.349-.358a.564.564,0,0,1,.549-.138Zm-.032-.016-.125.145c-.2.231-.406.471-.608.713l-.384-.32c.2-.245.409-.482.614-.719l.125-.145Zm-.712.83a1.512,1.512,0,0,0-.185.342l-.467-.179a2.012,2.012,0,0,1,.246-.456Zm-.192.111.009.018a.108.108,0,0,0,.084.06l.028,0a.146.146,0,0,0,.1-.016l.243.437a.645.645,0,0,1-.428.071.608.608,0,0,1-.473-.337Zm.182.088a5.7,5.7,0,0,0,.829-.679.523.523,0,0,0,.115-.166l.019-.044.027-.04.412.283a1.021,1.021,0,0,1-.222.323,6.185,6.185,0,0,1-.9.739Zm.994-.918-.04-.009-.038-.016.191-.462Zm.074,20.51a1.483,1.483,0,0,0-.327.033c-.061.01-.124.021-.185.028l-.06-.5c.05-.006.105-.015.163-.025a1.507,1.507,0,0,1,.512-.029Zm-.5.059a3.551,3.551,0,0,0-.531.117c-.2.057-.388.125-.591.2-.264.093-.537.189-.819.261s-.535.115-.791.16c-.169.029-.328.057-.487.091l-.1-.489c.168-.036.337-.065.5-.094.251-.044.5-.087.754-.152s.518-.157.776-.248c.2-.072.407-.143.613-.2a4.04,4.04,0,0,1,.606-.133Zm-3.179.814c-.3.091-.62.2-.927.311l-.527.185c-.377.094-.761.187-1.133.277l-.623.152-.119-.486.624-.152q.565-.137,1.13-.277l.364-.131.117-.041c.318-.112.636-.224.949-.318Zm-3.162.911c-.145.051-.292.112-.448.177s-.292.122-.446.178a7.727,7.727,0,0,1-.97.256,3.707,3.707,0,0,0-1.541.579l-.038.03-.043.022c-.08.04-.164.089-.253.14l-.25-.433c.093-.054.187-.108.28-.155a4.133,4.133,0,0,1,1.741-.672,7.3,7.3,0,0,0,.9-.237c.143-.052.284-.111.425-.17.158-.066.315-.131.474-.187Zm-3.624,1.276-.02.043-.028.039-.405-.293Zm-.115-.363a.293.293,0,0,0,.291.062l.032-.011.033-.006c.309-.059.619-.126.882-.184l.148-.032c.247-.054.481-.1.713-.179.257-.083.516-.164.767-.241l.282-.088.05-.016.281-.024h.044v.5h-.044l-.182.017-.282.088c-.253.079-.507.157-.762.24s-.508.137-.76.192l-.146.032c-.3.066-.6.131-.9.187a.793.793,0,0,1-.788-.167Zm3.382-.7a.629.629,0,0,1,.357,0l-.142.479a.13.13,0,0,0-.074,0Zm.156-.017a7.789,7.789,0,0,0,1.268-.261l.141.48a8.266,8.266,0,0,1-1.35.278Zm1.244-.254c.2-.069.4-.142.589-.213a13.13,13.13,0,0,1,2.142-.65l.064-.012c2.379-.433,2.8-.839,2.844-.883l.371.336c-.51.564-2.669.957-3.125,1.04l-.064.012a12.683,12.683,0,0,0-2.059.627c-.2.073-.4.145-.6.215Zm5.533-1.575a.484.484,0,0,0,.023-.138c0-.036,0-.079.006-.124a1.269,1.269,0,0,0,0-.141l.5-.06a1.359,1.359,0,0,1,0,.231c0,.037,0,.073,0,.1a.985.985,0,0,1-.047.281Zm.241-.16.206-.956h.007v.5h-.007Zm-25.509-9.966,5.96-10.058.43.255-5.96,10.058Zm2.492-3.086.027-.034.393.309-.027.034Zm-.038.075a.649.649,0,0,1,.205-.26l.3.4a.148.148,0,0,0-.047.059Zm.112-.168a7.814,7.814,0,0,0,.713-1.081l.439.24a8.291,8.291,0,0,1-.758,1.15Zm.7-1.058c.089-.184.177-.375.263-.559a13.01,13.01,0,0,1,1.058-1.973l.016-.023a7.178,7.178,0,0,0,1.407-2.664l.5-.024c.038.782-1.286,2.673-1.5,2.975l-.016.022a12.559,12.559,0,0,0-1.015,1.9c-.088.189-.175.378-.266.565Zm2.8-5.013a.5.5,0,0,0-.083-.116l-.008-.009c-.02-.022-.042-.048-.065-.076a1.108,1.108,0,0,0-.088-.1l.317-.387a1.259,1.259,0,0,1,.154.163c.019.023.037.044.053.061a1,1,0,0,1,.165.231Zm.1-.282a1.5,1.5,0,0,0-.206.251c-.037.052-.076.106-.115.156l-.392-.31c.032-.041.066-.088.1-.137a1.517,1.517,0,0,1,.336-.377Zm-.315.4a3.47,3.47,0,0,0-.293.458l0,.007c-.1.179-.189.366-.284.564-.119.247-.241.5-.386.748s-.3.458-.452.669c-.1.141-.2.273-.285.408l-.418-.275c.095-.144.2-.284.3-.426.147-.2.3-.411.427-.631s.25-.469.366-.71c.1-.2.191-.4.3-.59a3.959,3.959,0,0,1,.335-.525Zm-1.68,2.817c-.164.3-.314.624-.479.981l0,.009c-.022.045-.044.093-.065.14-.034.074-.068.15-.106.222l-.014.025c-.244.406-.493.816-.734,1.213l-.2.334-.427-.26.2-.334c.245-.4.49-.8.733-1.21.031-.059.062-.128.094-.2.023-.051.047-.1.071-.153.158-.34.318-.682.493-1.007Zm-1.585,2.885c-.065.133-.124.277-.186.429s-.123.3-.2.453a7.815,7.815,0,0,1-.5.864,3.749,3.749,0,0,0-.683,1.5l-.006.045-.014.044c-.025.077-.047.163-.071.255l-.007.025-.484-.127.007-.025c.025-.1.05-.192.08-.283a4.175,4.175,0,0,1,.758-1.7,7.381,7.381,0,0,0,.473-.81c.066-.138.125-.282.184-.426s.127-.312.2-.46Zm-1.667,3.444.011.029-.474.158Zm-.331-.16a.3.3,0,0,0,.251-.163l.013-.026.016-.024c.162-.247.326-.5.488-.761l.132-.206c.123-.19.238-.369.344-.564l.439.239c-.115.212-.24.4-.364.6l-.129.2q-.246.392-.493.768a.8.8,0,0,1-.675.438Zm1.236-1.73c.126-.251.258-.5.385-.739l.127-.24.017-.032.144-.2.393.309-.111.153-.127.241c-.128.242-.256.484-.38.73Zm31.043,24.241a1.125,1.125,0,0,0,.034.247l.008.04-.493.083a1.622,1.622,0,0,1-.049-.357Zm.021.283.42-.053a15.145,15.145,0,0,1,2.012-.084h.01c.318.014.642.022.963.022v.5c-.328,0-.658-.007-.985-.022a14.59,14.59,0,0,0-1.946.081l-.411.052Zm3.373-.114a4.4,4.4,0,0,1,1.43.144.465.465,0,0,0,.364-.052l.261.426a.963.963,0,0,1-.756.108,3.911,3.911,0,0,0-1.268-.128Zm1.759.117a.239.239,0,0,0,.089-.132l.006-.021a.015.015,0,0,0,0-.015l-.02-.019a.628.628,0,0,0-.207-.137l-.016-.007a.416.416,0,0,0-.25-.029l-.094-.491a.918.918,0,0,1,.549.064,1.131,1.131,0,0,1,.372.246.515.515,0,0,1,.15.534.738.738,0,0,1-.276.409Zm-.391-.363a6.818,6.818,0,0,1-1.552.157l.007-.5a6.309,6.309,0,0,0,1.438-.145Zm-1.545.157c-.518,0-1.055,0-1.576.029l-.028-.5c.534-.03,1.069-.03,1.6-.03Zm-1.549.027a11.3,11.3,0,0,1-1.822.049h-.027l-.027,0,.081-.493a10.768,10.768,0,0,0,1.741-.047Zm-1.667-.129a.119.119,0,0,0,0,.017v.007l-.5.013a.6.6,0,0,1,0-.1Zm-12.954.388h.062v.5h-.062Zm-.012.005a.859.859,0,0,1,.253,0l-.074.495a.359.359,0,0,0-.106,0Zm.23,0a15.683,15.683,0,0,0,1.892.076l.01.5a16.126,16.126,0,0,1-1.953-.079Zm1.872.077c.289-.018.583-.039.868-.059a23.947,23.947,0,0,1,3.049-.089l.1.005a29.393,29.393,0,0,0,2.957.044,2.724,2.724,0,0,0,1.117-.188l.269.421a3.32,3.32,0,0,1-1.362.266c-1.167.058-2.579-.02-3.01-.044l-.1-.005a23.427,23.427,0,0,0-2.986.088c-.291.021-.582.042-.873.06Zm7.917-.1a.185.185,0,0,0,.021-.073v-.017l.034-.325.5.053-.034.325a.686.686,0,0,1-.076.268Zm.306-.054-.1-.022.11-.488.1.022Zm.171-.036a.825.825,0,0,1-.524,0l.16-.474a.32.32,0,0,0,.2,0Zm-.5.007a3.533,3.533,0,0,0-.9-.138c-.419-.013-.835.013-1.275.039-.38.023-.773.047-1.167.045-.411,0-.821-.028-1.218-.056-.2-.014-.416-.029-.621-.039l.024-.5c.21.01.42.025.631.039.394.027.79.054,1.186.054.378,0,.756-.021,1.134-.044.44-.027.879-.053,1.317-.04a4.031,4.031,0,0,1,1.032.158ZM247.692,82c-.405.012-.824.036-1.23.06l-.308.018-.029-.5.307-.018c.415-.024.832-.049,1.245-.061Zm-1.531.078-.552.038-2.56-.032.006-.5,2.539.032.532-.037Zm-3.077.005c-.221.013-.44.036-.673.061a6.418,6.418,0,0,1-1.723.027l.079-.494a6,6,0,0,0,1.591-.03c.232-.025.464-.05.7-.063Zm-2.157.068a1.019,1.019,0,0,1-.184.044l-.02,0a10.378,10.378,0,0,1-1.063.035c-.154,0-.314,0-.47,0h-.015a2.856,2.856,0,0,0-.975.159l-.037.013-.039.007c-.108.019-.221.046-.337.075L237.669,82c.121-.03.244-.059.367-.081a3.364,3.364,0,0,1,1.145-.187c.507-.01,1,.015,1.492-.034a.517.517,0,0,0,.094-.022Zm-2.957.221-.026.039-.033.034-.358-.349Zm-.074-.423a.892.892,0,0,0,.639.241h.02l.658.03-.023.5-.638-.03a1.387,1.387,0,0,1-1-.377Zm1.31.27.584.017-.015.5-.584-.017Zm.569.017c.173,0,.346,0,.513.01.268.008.522.015.778,0h.005l1.576-.054.312.064-.1.49-.254-.052-1.517.052c-.274.012-.544,0-.814,0-.166,0-.332-.009-.5-.009Zm25.054-.245-.089-.214.462-.191.089.214Zm-.062-.159a.069.069,0,0,0-.06-.035l0-.5a.569.569,0,0,1,.493.288Zm-.025-.036h-.007c-.362.024-.736.048-1.091.093l-.062-.5c.37-.047.746-.071,1.121-.1h.007Zm-1.076.09A1.487,1.487,0,0,0,263.3,82l-.209-.454a1.987,1.987,0,0,1,.493-.153Zm-.209-.071-.012.041a.105.105,0,0,0,.016.1l.009.012a.163.163,0,0,0,.087.06l-.136.481a.662.662,0,0,1-.355-.246.606.606,0,0,1-.094-.571Zm.056.2a5.765,5.765,0,0,0,1.072.1h.008a.517.517,0,0,0,.2-.035l.038-.015.04-.008.1.489a1.019,1.019,0,0,1-.384.069,6.25,6.25,0,0,1-1.165-.108Zm1.349.053-.5-.771h.924v.5h-.007Zm-34.5-34.623a.074.074,0,0,0-.074.074.074.074,0,1,0,.074-.074v-.5a.574.574,0,1,1-.406.168.574.574,0,0,1,.406-.168ZM179.445,68.652a.158.158,0,1,0,.157.158.157.157,0,0,0-.157-.158l0-.5a.658.658,0,1,1-.609.4.658.658,0,0,1,.609-.4ZM214.091,40.06l.455.208Zm-.008.019.463.189Zm.318-.49.357.35Zm-.013.013.369.337Zm1.029-.3-.123.485Zm.022.006-.145.479Zm.222,3.764.5.013Zm0,0,.5.033Zm.578,1.886-.5.059Zm0,.005-.5.054Zm-.854,1,.117.486Zm0,0,.085.493Zm-1.038-.47.5.058Zm0,.03.5.028Zm1.07,9.816.484.127Zm-.011.055.495.073Zm.571-1.26-.5.043.5-.043-.5.016Zm-.1-4.751-.5.029.5-.029-.5.023Zm-.85-1.473.015.162.254-.086-.254.086,0,.025-.036-.009.036.009,0,.024-.04-.015L215,48.2l.057.014-.007-.083.256.094.308-.194-.23.444.23-.444-.308.194.014.005a.285.285,0,0,1-.021.044l.012,0-.012,0a.29.29,0,0,1-.224.143l-.018-.2L215,48.2l-.022.205.329.1-.329-.1v.007l.323.11-.323-.11v0l-.151-.051.151.051V48.4l-.151-.044.151.044L215,48.2l-.174-.043L215,48.2l.009-.084-.031-.011-.152.052.152-.052-.127-.047.153.038-.153-.038A.212.212,0,0,1,215.029,47.916Zm-.019.178-.007,0Zm.036.009.288.072Zm.111,4.166-.5.021Zm-.5.021.5.037Zm.582,3.1-.5.042Zm-.5.042.5.009Zm.519,1.3-.428.258Zm-.428.258.486.116Zm.059,1.081.5,0Zm0,0,.5.011Zm.47,1.171a.342.342,0,0,1,.165.043l0,0a.257.257,0,0,1,.03.023.354.354,0,0,1,.044.037l-.006.006a.256.256,0,0,1,.029.054l-.132.052-.062.064.214-.053-.214.053-.07.071-.021-.021,0,.007.021.02,0,0,.108.111h0a.155.155,0,0,1-.217,0h0a.246.246,0,0,1-.094-.116h0l.133-.052-.186-.175.186.175.01,0-.182-.186A.344.344,0,0,1,215.361,59.249Zm0,.35-.021-.02-.083.126Zm.549-2.824-.5.025.5-.025-.5.019Zm-.487-1.329.338.1h0l.067.02.075-.02-.075.02.075.022-.075-.022-.084.022h0l-.325.085.325-.085h0l.084-.022-.067-.02h0Zm-.68-19.314.219.441-.043-.015-.176-.426.176.426-.422-.145A.492.492,0,0,1,214.738,36.132Zm.176.426.01.025.024,0-.024,0,0,.011,0-.011-.475.034.475-.034Zm.043.015.007,0a.008.008,0,0,1,0,0Zm-.008.043h0Zm.089,1.044-.493.085Zm0,.022-.5.062Zm-.057.191a.252.252,0,0,1,.15.119l-.221.124Zm.168.155-.247.113-.062.211a.246.246,0,0,1-.145-.116h0l.215-.121-.007.025Zm.028-.253.483.13Zm-.008.035.491.1Zm-.233-2.267v.5h0Zm.28.413a.493.493,0,0,1,.484.4l-.484.093-.28-.405A.492.492,0,0,1,215.22,35.956Zm0,.493,0,.006a.007.007,0,0,1-.012,0ZM188.779,54.9l-.3.392-.014-.009Zm.007.006a.493.493,0,0,1,.089.654l-.224-.153v.451l-.211-.2-.064.042-.167-.1a.194.194,0,0,1,.087-.078l-.009-.009.009.009a.2.2,0,0,1,.081-.017.194.194,0,0,1,.162.087l-.1.065.211.2V55.4l-.169-.115Zm-.324.372.006,0,0,.006A.008.008,0,0,1,188.462,55.274Zm.02.014h0l-.005.007ZM186.34,52.62l-.33.376.33-.376-.344.363Zm-1.419-1.443-.079.494.079-.494-.116.486Zm-.071,1.044-.269.421Zm.013.009-.282.413Zm2.3,2.049-.312.39Zm.027.023-.339.367Zm1.181,1.4.263.156a.305.305,0,0,1-.517.012ZM196,61.976l-.075.095.1-.06-.12.086-.216.272.216-.272-.287.2.287-.2.02-.025-.328.2.328-.2.075-.095-.407.291Zm-.1.12.12-.086-.1.06Zm.051-.179-.4.3.4-.3-.463.188Zm-.887-.985-.321.384.321-.384-.341.366Zm-4.586-4.068.144.479Zm0,0-.082.368.016-.007a.291.291,0,0,1,.012.032l.01-.006-.01.006a.284.284,0,0,1-.052.267l-.162-.133-.046.029.133.159.3-.163-.3.163,0,0,.3-.158-.3.158.007.009-.007-.009-.142.074.142-.074,0,0-.14.076.14-.076-.133-.159-.154.1.154-.1-.051-.06.051.06.046-.029-.059-.049.244-.11Zm-.1.3-.252.158Zm-.252.158.024.02-.037.017-.015-.018Zm.084-.264-.107.245.024.019-.029.018-.007-.009.007.009-.015.01.015-.01.015.018-.043.019-.061.138.061-.138-.115.052.127-.08-.127.08a.214.214,0,0,1,.03-.224l.118.1Zm-.12.273-.106-.126Zm2.271,1.936-.355.352Zm.005.005-.36.347Zm.795.925-.345.362Zm.032.033-.377.329Zm.743.636-.316.387Zm.006.005-.323.382Zm1.484,1.477-.322.383Zm.038.036-.36.347Zm.965.908-.155.475Zm.27.211-.424.264Zm.731.639-.358.349Zm0,0-.362.345Zm1.047.742h.006v.01a.255.255,0,0,1,.049.016l-.052.116,0,.086.1-.176-.1.176,0,.111-.033,0,0,.019h.029v-.016l.16.012h0a.16.16,0,0,1-.163.148l0-.144h-.029l.027.143a.246.246,0,0,1-.145-.017h0l.056-.124-.248.006.248-.006.011-.025-.257-.02a.34.34,0,0,1,.246-.3v0a.255.255,0,0,1,.041,0A.34.34,0,0,1,198.485,64.889Zm-17.04-15.816.466.16-.444.214A.493.493,0,0,1,181.445,49.074Zm.472.157a.008.008,0,0,1,0,.006l-.007,0Zm-.008.014-.326.379Zm.028.026-.354.353Zm.806.687-.294.4Zm.025.019-.318.385Zm.2.141a.255.255,0,0,1,.07.01l-.07.244-.12-.223A.252.252,0,0,1,182.97,50.117Zm.112.024-.1.255.1.192a.246.246,0,0,1-.185.02h0l.068-.237.014.025Zm.271-.455-.415.279.415-.279-.435.247Zm-1.061-1.123-.174.469.174-.469-.2.459Zm-.338-.084.046,0-.035.323-.183-.278a.247.247,0,0,1,.061-.03A.344.344,0,0,1,181.954,48.48Zm.011.326.092.14a.308.308,0,0,1-.058.028.157.157,0,0,1-.052.006Zm-.54-.369a.484.484,0,0,1,.411.239.463.463,0,0,1,0,.474l-.4-.3-.012.017-.054-.43A.435.435,0,0,1,181.424,48.437Zm-.249.071.233.39a.209.209,0,0,1,.015-.026l.008.066h0c-.015,0-.024,0-.028-.007s0-.018,0-.032Zm8.1,22.336-.025.171.064-.156-.068.18-.043.3.043-.3-.108.288.108-.288,0-.025-.126.307.126-.307.025-.171-.176.468Zm-.028.2.068-.18-.064.156Zm-.043-.225-.185.464.185-.464-.3.4Zm-1.315-.4-.081.493.081-.493-.107.488Zm-6.036-1.145.344.363Zm0,0,.142.407.113.066-.113-.066,0,.006.108.064L182,69.679l.021.059L182,69.679l-.078-.047a.355.355,0,0,1,.06.315l-.261-.111-.133.163a.4.4,0,0,1-.067-.069h0a.173.173,0,0,1,0-.179l.146.062-.147.117.153-.115-.006,0,.208-.167.023-.028-.22-.131.22.131,0,0-.222-.129.222.129,0,0,.007.007h0l.006.008.081.047Zm.142.407-.081-.047,0,0h0l.078.047Zm.382.132-.181.466Zm.023.009-.2.456Zm3.148.81-.106.489Zm.045.012-.151.477Zm3.163.71-.081.493Zm.05.011-.131.482Zm3.908.576v.251l.03.043-.012,0,.016.021.01,0-.014-.02.2-.045c.015.066-.022.133-.1.19l-.087-.124-.01,0,.1.121a.315.315,0,0,1-.131.062l-.034-.159-.2.07.2-.07-.007-.031-.214.047a.352.352,0,0,1,.075-.308l0,0,.014-.01.011-.009h0a.185.185,0,0,1,.05-.019l.028.13.076.11Zm-2.157-.79-.091.492.091-.492-.107.488Zm14.988-15.02-.138.107.155-.067-.158.069-.256.2.256-.2-.3.131.3-.133-.3.131.3-.131.138-.107-.458.2Zm-.14.108.158-.069Zm.111-.177-.46.2.46-.2-.494.076Zm-.645-1.217-.407.29.407-.29-.42.271Zm-3.458-5.078-.018.5.018-.5-.217.451Zm-.58.108.081.2-.21.018a.4.4,0,0,1,0-.092C200.711,49.932,200.763,49.894,200.83,49.866Zm.369.173a.1.1,0,0,1,0,.021.356.356,0,0,1-.178.269l-.108-.265Zm1.859,3.291-.419.273Zm.026.045-.445.228Zm1.741,2.74-.41.286Zm.022.034-.432.252Zm.568.724-.406.291Zm0,0-.41.287Zm1.616,2.348a.212.212,0,0,1,.047.01.321.321,0,0,1,.074.017l-.056.157.094-.1-.094.1-.051.142-.042-.032,0,.046.035.018.011-.032.145.11h0a.182.182,0,0,1-.207.062h0a.288.288,0,0,1-.135-.049h0l.094-.137-.2-.1.2.1.029-.042-.179-.135a.316.316,0,0,1,.239-.126Zm0,.358L207,59.565l-.015.158Zm-32.47,21.881a.493.493,0,0,1,.484.4l-.473.088-.053-.489Zm-.052,0,.062.488-.011,0Zm.062.488v0Zm-.011,0v.008a.007.007,0,0,1-.008-.006Zm-2.408-.357v0l-.013.5Zm-.985-.022.032.5Zm0,0v0Zm-2.024-.02.3.4Zm0,0,.257.429Zm.7.766.1.49Zm-.009,0,.107.488Zm1.545-.157v0Zm.007,0-.007.5Zm1.568-.029.028.5Zm-.026,0,.054.5ZM174.8,82.1h.006l-.012.193-.191-.022A.242.242,0,0,1,174.8,82.1Zm-.006.193.306.036a.279.279,0,0,1-.325.271Zm12.707-.91.03.2.031-.2v.412l.012.083-.012-.083v0l-.031-.21-.03.194v0l-.015.1.015-.1v0l.03-.194Zm.062.412V81.38l-.031.2Zm-.167-.412-.05.5.05-.5-.074.495Zm-1.953-.076.03.5Zm0,0,.011.5Zm-8.329.362.446.225Zm0,0,.2.311,0-.008a.288.288,0,0,1,.048.022l0-.012,0,.012a.291.291,0,0,1,.144.227l-.2.017-.013.052.2.02.094-.324-.094.324h.011l.114-.314-.114.314h0l-.057.156.057-.156h-.011l-.045.157.045-.157-.2-.02-.044.177-.054-.149-.044.124.036-.146-.036.146a.209.209,0,0,1-.138-.18l.168.017L177,82.259h0l.157-.013-.092-.252.092.252.029,0-.008.033h0l0,.016,0-.016.017,0-.013.037.054.149.044-.177-.085-.008.085.008.013-.052-.085.007.1-.266Zm.151.288-.072.29Zm-.051.288-.013.036-.017,0,.008-.033Zm5.515-.111.014.5.024-.5-.024.5Zm1.537-.078.029.5Zm-.006,0,.035.5Zm3.112-.006-.006.5-.029-.5.029.5Zm2.336-.112.009.118.015-.094-.015.094.03.38-.03-.38-.007.041.037.339-.037-.339-.057.359-.165-.472.165.472.057-.359-.017-.158.017.158.007-.041Zm2.928-.293.048.2.072.07-.031.031.007,0,.029-.03,0,0,.111-.108a.155.155,0,0,1,0,.217l-.106-.1-.029.03.135.074a.259.259,0,0,1-.113.108l-.04-.163.04.163-.066-.135-.164.174.164-.174-.005-.01-.173.169a.343.343,0,0,1-.074-.368l-.007,0a.242.242,0,0,1,.03-.043.351.351,0,0,1,.051-.067l.014.014.01-.005.015.03.135.132Zm.079.323,0-.01Zm-1.485-.569-.015.5.015-.5-.023.5Zm-.584-.017v0l-.015.5Zm-24.984.936,0,0-.007,0Zm0,.007-.015.043.03-.013,0-.024,0,.024.005,0-.005,0,.031.475-.031-.475-.03.013-.145.423a.493.493,0,0,1-.281-.246h0Zm.039.005.007.5Zm1.067-.092.066.5Zm-.02,0,.086.493Zm.375-.114.11.248Zm-.035.017.121.223-.243-.073A.252.252,0,0,1,167.082,82.142Zm.121.223.024.007.093.209Zm.024.007.211.064a.246.246,0,0,1-.118.145Zm-.239-.756-.093.491.093-.491-.136.481Zm-1.547-.039.1.483-.413.268a.493.493,0,0,1,.315-.751Zm.1.479a.007.007,0,0,1,0,.007.007.007,0,0,1-.005,0V82.06Zm79.2-30.5.422.268Zm0,0,.414.28Zm-.914,1.118.351.356Zm0,0,.347.36Zm-1.113,1.155.391.312Zm0,0,.367.339Zm-1.2,1.266.16.26-.16.26a.305.305,0,0,1,0-.52Zm.263.094a.195.195,0,0,1,0,.331l-.1-.166Zm.31.235h0l0,.006-.006,0A.008.008,0,0,1,242.1,55.42Zm0,.008.382.31-.392-.3Zm-.016.009.007.005h0Zm.007.005.387.3a.493.493,0,0,1-.654.091Zm2.314-2.5.354.354Zm-.021.023.375.331Zm1.332-1.2.486.116Zm-.006.029.492.087Zm-5.654,5.112a.212.212,0,0,1,.135.048h0l-.093.112.244.1-.244-.1-.027.033-.018-.03.018.03-.015.018-.016-.037-.066.055.028.048.055-.066.1.231.034.008.018-.014-.141-.243.141.243.185-.142-.18.151,0,.005,0-.005-.009.008.3.068-.3-.068-.194.163.194-.163-.014,0-.023.017,0,.007-.025.01-.019.015,0,0,0,0-.13.1.13-.1,0-.008a.286.286,0,0,1-.253-.057l.129-.156-.028-.048-.155.13.164.3-.164-.3,0,0,.157.3-.157-.3-.008.007.008-.007-.074-.142.074.142,0,0-.077-.14.077.14.155-.13-.093-.16.093.16.066-.055-.021-.048-.138-.057.138.057-.049-.109.068.117-.068-.117A.211.211,0,0,1,240.053,56.906Zm-.019.135.016.028Zm.181.31.18-.151-.185.142Zm0,0-.005-.009-.018.014.014,0Zm-.024,0-.034-.008.011.025Zm-.064.049.019-.015-.023.007Zm-3.294,2.381.362.345Zm0,0,.329.377Zm-2.182,2.285.382.323Zm0,0,.345.362Zm-1.039,1.17.476.154Zm0,0,.264.424Zm-1.487,1.864.007.247.021.01.015-.256a.355.355,0,0,1,.312.244h0q0,.009,0,.018t0,.015h0a.252.252,0,0,1-.022.119l-.2-.091-.054.007.228.138-.228-.138-.059.007v-.011l-.016,0v.01l.016,0-.011.18c-.084,0-.135-.062-.148-.16h0a.246.246,0,0,1,.017-.148l.123.056Zm.007.267-.124-.075Zm.02.012-.02-.012Zm-.018.043v-.01l-.142.028Zm2.973-2.891.291.407Zm-.114.113.4.294Zm.295-.221.169.471Zm-.131.071.3.4Zm.918-.827.366.34Zm-.017.019.384.321Zm3.307-3.449.369.337Zm0,0,.373.333Zm1.146-.819-.481.135Zm7.8-9.023-.138.481.138-.481-.186.451.016.014-.016-.014,0,.011,0-.011-.363-.313.363.313Zm-.549.138.349.358Zm-.739.864.406.292Zm0,0,.384.32Zm.214.4a.253.253,0,0,1,.02.191l-.244-.07Zm-.46.052.236.068-.024.013-.212-.081.212.081-.192.1A.246.246,0,0,1,246.773,49.862Zm.212.081.255.1Zm.466-.067.243.437Zm-.036.022.279.415Zm1.107-1.405a.493.493,0,0,1,.3.759l-.406-.279Zm-.117.476.006,0,0,.007a.007.007,0,0,1,0-.011Zm.1,20.427-.02.094a.11.11,0,0,1-.02-.007Zm-.592-.342.069.5Zm0,0,.06.5Zm-3.253.83.144.479Zm0,0,.1.489Zm-3.184.919.166.472Zm0,0,.119.486ZM237.9,72.187l-.144.157.038.043.173-.125a.315.315,0,0,1,.044.285l0,0a.144.144,0,0,1-.016.027.316.316,0,0,1-.032.056l-.14-.1.072.124-.072-.124-.116-.084.033-.024-.043-.02-.02.022.02-.022-.139-.065.119.086-.119.13a.185.185,0,0,1,0-.217h0a.355.355,0,0,1,.086-.116l.108.121Zm-.167.182-.085-.146Zm.026.044-.026-.044Zm-.077.012.03.022-.15.108Zm3.742-.958v.5l-.141-.48.141.48Zm.014,0,.06.5.142-.479-.142.479Zm1.268-.261.141.48Zm-.024.008.166.472Zm5.639-1.758.371.336Zm-.105.183.476.153Zm.454-1.116v.5h0v0a.181.181,0,0,1,.076.149l-.152.018-.129.286.039-.087.006-.031-.053.118a.36.36,0,0,1-.208-.244l.3-.036.042-.2a.4.4,0,0,1,.084.027Zm-23.2-12.13.393.309Zm-.065.109.458.2Zm.205-.259.3.4Zm-.093.091.393.309Zm.713-1.081.439.24Zm-.012.023.451.217Zm3.243-5.243-.444.23.444-.23-.5.024Zm-.507-.517a.225.225,0,0,1,.135.061l-.1.128.075.194-.018-.028-.059-.163-.027.033-.118-.178a.4.4,0,0,1,.077-.04A.117.117,0,0,1,228.951,49.52Zm0,.225.086.13.044.122a.349.349,0,0,1-.312-.029Zm.1.158.054.082a.109.109,0,0,1-.019.009Zm-.66.178.4.3Zm0,0,.392.31Zm-1.721,2.881.44.237Zm0,0,.418.275Zm-1.593,2.9.449.221Zm0,0,.427.26Zm-1.55,3.5.01.222.032,0,.016-.224a.348.348,0,0,1,.271.16h0l.006.017,0,.012h0a.2.2,0,0,1,0,.069l-.16-.018-.086.029.233.061-.233-.061-.061.02v-.012l-.026.01v.01l.024-.008-.015.209c-.069,0-.123-.057-.155-.153h0a.3.3,0,0,1-.02-.143l.162.018Zm.011.247-.163-.043Zm.029.008-.029-.008Zm-.027.044v-.01l-.145.059Zm1.23-2.042.439.239Zm-.007.014.447.225ZM255.847,82.16a.007.007,0,0,1,.007.006h-.007V82.16Zm-.014,0v.008h0Zm.014.006.049.49-.061-.488Zm-.013,0,.053.488a.493.493,0,0,1-.524-.4Zm3.4-.123v.5l-.032-.5.032.5Zm1.763.093.261.426Zm-.036.024.3.4Zm-.5-.852.107.488Zm0,0,.094.491Zm-1.438.145v0l-.007.5Zm-1.6.03.054.5Zm0,0,.028.5Zm-1.823.04.037,0-.022.3-.3-.039A.27.27,0,0,1,255.6,81.528Zm.015.3.195.025a.244.244,0,0,1-.209.172Zm-12.541.416-.05.5Zm.023,0-.074.495Zm1.869.073.01.5Zm-.02,0,.031.5Zm7.917-.1.443.232Zm.317-.564.05.147.049-.125a.219.219,0,0,1,.138.18l-.174-.018.174.018-.162.018.086.254-.086-.254-.021,0-.065.288.065-.288-.035,0,.018-.045.025,0-.025,0,.013-.034Zm.062.183h0Zm-.267-.183-.044.151.209.022.039-.173-.039.173.075.008-.075-.008-.014.061.071-.008-.1.249.2.32-.2-.32,0,.012-.024-.01,0,.011,0-.011a.28.28,0,0,1-.153-.22l.208-.023.014-.061-.209-.022-.1.33.1-.33h-.007l-.109.324.109-.324h0Zm-.044.151.044-.151-.05.15Zm-5.256-.318.014.5Zm0,0-.024.5Zm-1.552.079.035.5Zm0,0,.029.5Zm-3.071,0,.029.5Zm0,0-.006.5Zm-2.288.094.16.474Zm0,0-.079.494Zm-2.871.272-.175.186,0,.01.186-.182a.343.343,0,0,1,.056.406l0,0a.256.256,0,0,1-.023.029.354.354,0,0,1-.036.044l-.006-.006a.254.254,0,0,1-.054.029l-.052-.132-.064-.063.052.215-.052-.215-.071-.069.021-.021-.007,0-.019.021.019-.021-.126-.083.106.1-.106.113a.155.155,0,0,1,0-.217h0a.247.247,0,0,1,.116-.094l.052.133Zm-.191.2L237.669,82Zm0,.011,0-.011Zm-.048.038,0,0-.111.108Zm1.546.019-.015.5Zm.008,0-.023.5Zm.561.017v0Zm.015,0-.015.5Zm3.069.012v.087l.036.239.026-.127v0l.038-.188-.038.188v.3l-.026-.174-.036.174.036-.174-.036-.239v0l-.012-.082.012.082Zm.062.5v-.3l-.026.127Zm21.79-1.451.031.479.461-.191-.435.247.435-.247-.461.191v0h0Zm0,0,0,.5Zm-1.128.1.085.493Zm0,0,.062.5Zm-.493.153.1.2-.013,0-.091-.2.091.2-.207-.053A.226.226,0,0,1,263.089,81.542Zm.091.2L263.3,82Zm.013,0,.265.068a.274.274,0,0,1-.14.175Zm.321.27-.093.491Zm.043.01-.136.481Zm1.31.031,0,.007-.006,0a.008.008,0,0,1,0-.007A.007.007,0,0,1,264.868,82.055Zm.423-.759v.5l-.006,0a.492.492,0,0,1-.314.746l-.1-.482.4-.258-.441.183.441-.183.013-.009,0,0,.006,0ZM179.447,68.152l0,.5,0-.5,0,.5Z" transform="translate(7339.4 -391.917)" fill="#fff"/></g><g transform="translate(909.844 1251.621)"><path d="M214.844,73.23a11.9,11.9,0,0,1-.086,1.854c-.02.534-.022,1-.02,1.542a5.519,5.519,0,0,1-.192,1.337.912.912,0,0,0,0,.555.884.884,0,0,0,.212.329.522.522,0,0,0,.537.148.722.722,0,0,0,.406-.276.959.959,0,0,0,0-.756,3.887,3.887,0,0,1-.017-1.268c0-.325,0-.653-.022-.985a14.589,14.589,0,0,1,.081-1.946l.049-.411a.493.493,0,0,0-.406-.534,1.8,1.8,0,0,0-.36-.049C214.782,72.762,214.814,72.979,214.844,73.23ZM215.9,63.2v.042a.145.145,0,0,0,0,.074,7.535,7.535,0,0,1,.076,1.332,15.69,15.69,0,0,0-.145,2.63,15.171,15.171,0,0,1,.049,2.12,3.4,3.4,0,0,1-.266,1.362.7.7,0,0,1-.268.076l-.315.034a.212.212,0,0,1-.18-.138l-.025-.1a.318.318,0,0,0,0-.2,4.019,4.019,0,0,1-.16-1.032c-.025-.554.089-1.113.086-1.67,0-.416-.064-.83-.094-1.231.015-.35.047-.7.079-1.057l.035-.364-.03-1.724a4.915,4.915,0,0,0,.091-1.561.168.168,0,0,0,.022-.062,8.7,8.7,0,0,0,.037-1.02,3.449,3.449,0,0,1,.185-1.145c.025-.123.054-.246.084-.367a.246.246,0,0,1,.094-.116.155.155,0,0,1,.217,0,1.379,1.379,0,0,1,.374,1l.03.638.017.4a8.317,8.317,0,0,1,.015.894l-.052,1.037Zm-.946,19.544-.214-.089a.492.492,0,0,1-.246-.281.514.514,0,0,1-.042-.2c.027-.377.049-.756.1-1.128a1.987,1.987,0,0,1,.153-.493.246.246,0,0,1,.145-.116.606.606,0,0,1,.574.1.63.63,0,0,1,.246.352,6.073,6.073,0,0,1,.111,1.165,1.014,1.014,0,0,1-.071.384.493.493,0,0,1-.763.313Zm-26.3-19.81a1.7,1.7,0,0,1,.219.291.493.493,0,0,1-.091.667l-.325.246a14.419,14.419,0,0,0-1.433,1.318c-.224.246-.448.493-.68.712a3.876,3.876,0,0,0-.805.985.965.965,0,0,1-.613.458.739.739,0,0,1-.493-.094.517.517,0,0,1-.273-.493,1.163,1.163,0,0,1,.084-.443.923.923,0,0,1,.342-.436,6.219,6.219,0,0,0,1.118-.914c.377-.382.763-.751,1.155-1.113a10.528,10.528,0,0,0,1.266-1.2.305.305,0,0,1,.517.012Zm7.371-6.157-.025.034a.145.145,0,0,0-.044.059,7.556,7.556,0,0,1-.887.985,15.726,15.726,0,0,0-1.97,1.758,15.123,15.123,0,0,1-1.463,1.534,3.327,3.327,0,0,1-1.153.776.673.673,0,0,1-.246-.135l-.246-.207a.214.214,0,0,1-.03-.224l.054-.086a.305.305,0,0,0,.148-.138,3.988,3.988,0,0,1,.618-.845c.374-.409.85-.724,1.231-1.121.293-.3.539-.63.81-.941.259-.246.532-.465.8-.695l.283-.231,1.2-1.246a4.972,4.972,0,0,0,1.17-1.037.222.222,0,0,0,.059-.03,9.345,9.345,0,0,0,.739-.694,3.407,3.407,0,0,1,.941-.68c.1-.069.212-.135.32-.2a.246.246,0,0,1,.145-.017.16.16,0,0,1,.163.148,1.391,1.391,0,0,1-.443.985l-.426.461-.268.293c-.2.217-.4.441-.623.643l-.768.694ZM181.445,69.857v-.144a.493.493,0,0,1,.022-.374.53.53,0,0,1,.116-.175c.286-.246.569-.493.867-.739a2,2,0,0,1,.453-.246.246.246,0,0,1,.185.02.6.6,0,0,1,.337.473.63.63,0,0,1-.071.429,6.189,6.189,0,0,1-.739.9,1.022,1.022,0,0,1-.323.222c-.274.1-.364.1-.468.059s-.539-.45-.391-.432ZM192.913,46.42l-11.328,2.9m7.728-1.391-.039.015a.157.157,0,0,0-.071.03,8.41,8.41,0,0,1-1.315.4,17.545,17.545,0,0,0-2.734.537c-.246.081-2.542.874-3.3.608a1.03,1.03,0,0,1-.177-.222c-.071-.123-.246-.332-.158-.443.133-.177.468-.246.677-.34a3.62,3.62,0,0,1,.6-.175c.47-.106.968-.153,1.433-.271.421-.108.813-.268,1.217-.4.362-.079.739-.138,1.108-.2l.382-.062q.874-.229,1.744-.465c.315-.052.645-.069.96-.118a8.421,8.421,0,0,1,2.756-.475h.323a.315.315,0,0,1,.131.062c.081.057.118.123.1.19a.8.8,0,0,1-.611.527q-.436.138-.879.266c-.3.084-.586.177-.9.246-.36.067-.717.14-1.074.214ZM207.044,59.01l-5.96,10.058m4.475-6.442-.017.039a.15.15,0,0,0-.03.069,8.124,8.124,0,0,1-.645,1.217,18.263,18.263,0,0,0-1.551,2.315c-.118.231-1.18,2.413-1.906,2.763a.945.945,0,0,1-.281-.032c-.138-.034-.406-.062-.426-.2a1.561,1.561,0,0,1,.246-.719,3.694,3.694,0,0,1,.288-.547c.259-.406.576-.793.82-1.2.222-.374.387-.763.581-1.143.2-.31.424-.616.643-.924l.227-.313c.305-.52.6-1.042.906-1.561.182-.261.4-.493.594-.763.529-.739.8-1.689,1.613-2.285.071-.076.15-.15.229-.224a.288.288,0,0,1,.135-.049.182.182,0,0,1,.207.062.8.8,0,0,1-.044.791c-.14.268-.283.539-.433.808s-.288.542-.468.808c-.207.3-.406.606-.608.911Zm40.561,4.763a.522.522,0,0,1-.492.273,1.162,1.162,0,0,1-.443-.084.909.909,0,0,1-.436-.342,6.113,6.113,0,0,0-.914-1.118c-.382-.377-.751-.763-1.113-1.155a10.522,10.522,0,0,0-1.2-1.266.305.305,0,0,1,0-.52,1.59,1.59,0,0,1,.288-.219.493.493,0,0,1,.667.091l.246.325a14.444,14.444,0,0,0,1.32,1.433c.246.224.478.448.709.68a3.918,3.918,0,0,0,.985.805.965.965,0,0,1,.458.613A.739.739,0,0,1,246.12,67.388Zm-5.726-5.8-.207.246a.212.212,0,0,1-.222.03l-.089-.052a.3.3,0,0,0-.138-.15,3.969,3.969,0,0,1-.842-.618c-.409-.374-.727-.85-1.121-1.231-.3-.291-.633-.539-.943-.81-.246-.259-.466-.532-.692-.8l-.232-.281-1.258-1.2a5.038,5.038,0,0,0-1.039-1.17.22.22,0,0,0-.03-.059,9.31,9.31,0,0,0-.694-.739,3.313,3.313,0,0,1-.677-.941c-.071-.1-.138-.212-.2-.318a.246.246,0,0,1-.017-.148c.012-.1.064-.155.148-.16a1.379,1.379,0,0,1,.973.441l.473.431.293.268c.217.2.441.4.643.623l.694.768.148.106.034.025a.125.125,0,0,0,.059.044,7.386,7.386,0,0,1,.985.887,15.724,15.724,0,0,0,1.758,1.97,15.333,15.333,0,0,1,1.534,1.463,3.349,3.349,0,0,1,.773,1.153A.672.672,0,0,1,240.395,61.586Zm8.127,8.708-.214.089a.564.564,0,0,1-.549-.138c-.246-.286-.493-.569-.739-.864a2.012,2.012,0,0,1-.246-.456.246.246,0,0,1,.02-.185.608.608,0,0,1,.473-.337.645.645,0,0,1,.428.071,6.185,6.185,0,0,1,.9.739,1.022,1.022,0,0,1,.222.323.493.493,0,0,1-.3.759Zm.148-20.534a1.657,1.657,0,0,1-.758-.027,4.04,4.04,0,0,1-.606-.133c-.465-.135-.924-.332-1.389-.451-.421-.108-.84-.158-1.258-.246-.352-.106-.709-.234-1.066-.36l-.364-.131c-.584-.145-1.17-.286-1.753-.429-.3-.106-.6-.246-.9-.357a8.378,8.378,0,0,1-2.645-.909c-.094-.047-.187-.1-.281-.155a.355.355,0,0,1-.086-.116.185.185,0,0,1,0-.217.793.793,0,0,1,.788-.167c.3.057.6.121.9.187s.6.126.906.224c.35.113.7.219,1.044.328l.182.017h.044a.13.13,0,0,0,.074,0,8.266,8.266,0,0,1,1.35.278,18.008,18.008,0,0,0,2.655.842c.246.047,2.647.453,3.189,1.052a.985.985,0,0,1,.047.281c0,.165.049.431-.076.488Zm-25.292,9.255,5.96,10.058m-3.5-7.026.027.034a.148.148,0,0,0,.047.059,8.291,8.291,0,0,1,.758,1.15,17.736,17.736,0,0,0,1.281,2.463c.148.212,1.551,2.192,1.512,3a1,1,0,0,1-.165.232c-.1.106-.246.328-.382.278-.2-.079-.374-.377-.515-.554a3.96,3.96,0,0,1-.335-.525c-.234-.424-.419-.887-.663-1.3-.222-.372-.492-.7-.724-1.057-.175-.325-.335-.667-.493-1.007-.057-.116-.111-.246-.165-.35-.31-.517-.623-1.029-.936-1.544-.14-.286-.246-.6-.384-.887a8.481,8.481,0,0,1-1.231-2.514c-.032-.1-.059-.2-.086-.308a.3.3,0,0,1,.02-.143c.032-.1.086-.148.155-.153a.8.8,0,0,1,.675.438q.246.377.493.768c.165.261.337.512.493.8.165.328.337.648.507.97Zm4.531,9.8a.574.574,0,1,1,.574-.574A.574.574,0,0,1,230.364,71.843ZM179.447,50.634a.658.658,0,1,1,.655-.658A.658.658,0,0,1,179.447,50.634Z" transform="translate(-165.047 -35.956)" fill="#fff"/><path d="M215.343,73.2a12,12,0,0,1-.088,1.937l-.5-.055a11.9,11.9,0,0,0,.086-1.854Zm-.086,1.9c-.019.528-.022.99-.019,1.521l-.5,0c0-.537,0-1.007.02-1.542Zm-.019,1.515a5.371,5.371,0,0,1-.173,1.313l-.03.138-.489-.106.031-.139a4.906,4.906,0,0,0,.161-1.2Zm-.2,1.443,0,.01a1,1,0,0,0-.031.246l-.486.117a1.1,1.1,0,0,1,.027-.461l0-.01Zm-.036.25.008.019a.4.4,0,0,0,.105.167l.013.013a.022.022,0,0,0,.023.006l.022-.006a.222.222,0,0,0,.125-.085l.4.293a.722.722,0,0,1-.406.276.522.522,0,0,1-.537-.148.884.884,0,0,1-.212-.329Zm.274.147a1.013,1.013,0,0,0-.057-.366,3.443,3.443,0,0,1-.05-1.2c.006-.076.012-.152.017-.229l.5.032c0,.079-.011.158-.018.237a2.992,2.992,0,0,0,.035,1.031.959.959,0,0,1,0,.756Zm-.091-1.763c0-.313,0-.636-.021-.952v-.021a15.143,15.143,0,0,1,.084-2.012V73.7l.049-.411.5.059-.049.411a14.589,14.589,0,0,0-.081,1.946c.022.332.022.66.022.985Zm.117-3.384-.032-.007a1.306,1.306,0,0,0-.26-.036l.018-.5a1.8,1.8,0,0,1,.36.049Zm.023-.32a1.534,1.534,0,0,0,.014.162l0,.049-.5.028,0-.019a1.51,1.51,0,0,1-.017-.251ZM216.4,63.2v.107l-.016.063-.484-.127V63.2Zm-.016-.012.007.027,0,.028a8.058,8.058,0,0,1,.081,1.421l0,.028c-.018.208-.04.417-.061.619a10.461,10.461,0,0,0-.084,1.927l-.5.04a10.931,10.931,0,0,1,.085-2.019c.021-.2.042-.407.06-.611a7.535,7.535,0,0,0-.076-1.332Zm-.055,4.043a15.725,15.725,0,0,1,.051,2.19v.006a3.523,3.523,0,0,1-.342,1.6l-.072.115-.12.063a1.191,1.191,0,0,1-.461.131l-.038-.5a.7.7,0,0,0,.268-.076,3.4,3.4,0,0,0,.266-1.362,15.171,15.171,0,0,0-.049-2.12Zm-.929,4.1-.365.04-.05,0a.715.715,0,0,1-.6-.463l-.009-.025-.067-.267.047-.139.473.161.025.1a.212.212,0,0,0,.18.138l.315-.034Zm-1.047-.743-.006-.021a4.521,4.521,0,0,1-.18-1.16l.5-.012a4.019,4.019,0,0,0,.16,1.032Zm-.186-1.17a7.18,7.18,0,0,1,.043-.974c.023-.25.044-.486.043-.716a7.608,7.608,0,0,0-.053-.769c-.014-.14-.029-.284-.04-.428l0-.029v-.029c.015-.366.048-.729.08-1.081l.035-.366.5.047-.035.364c-.032.352-.064.707-.079,1.057.01.137.024.275.038.414a8.069,8.069,0,0,1,.055.817c0,.254-.022.509-.045.763a6.76,6.76,0,0,0-.041.906Zm.105-4.336-.03-1.749,0-.025c.015-.175.041-.343.067-.506a2.417,2.417,0,0,0,.036-.9l-.047-.2.106-.175.428.258a2.8,2.8,0,0,1-.028,1.091c-.025.157-.049.314-.063.471l.03,1.724Zm.086-3.4a8.233,8.233,0,0,0,.035-.961v-.007A3.939,3.939,0,0,1,214.6,59.4l.473.161a3.449,3.449,0,0,0-.185,1.145,8.7,8.7,0,0,1-.037,1.02Zm.229-2.215c.027-.136.06-.272.088-.388l.008-.032.012-.031a.742.742,0,0,1,.284-.351l.275.417a.246.246,0,0,0-.094.116c-.03.121-.059.244-.084.367Zm.318-.743a.651.651,0,0,1,.915,0l.015.015a1.89,1.89,0,0,1,.51,1.362l-.5-.02a1.379,1.379,0,0,0-.374-1,.155.155,0,0,0-.217,0Zm1.44,1.335.047,1.038-.5.022-.017-.4-.03-.638Zm.046,1.025a8.85,8.85,0,0,1,.016.948v.006l-.052,1.037-.5-.025.052-1.037a8.317,8.317,0,0,0-.015-.894Zm-.056,1.824.065.22V63.2h-.5l-.044-.15Zm-1.572,20.3-.246-.1a.986.986,0,0,1-.5-.566l.473-.162a.492.492,0,0,0,.246.281l.214.089Zm-.729-.634a1.008,1.008,0,0,1-.083-.4v-.035l.013-.189c.022-.316.045-.642.085-.966l0-.022a2.488,2.488,0,0,1,.191-.617l.018-.036a.742.742,0,0,1,.44-.351l.141.48a.246.246,0,0,0-.145.116,1.987,1.987,0,0,0-.153.493c-.039.309-.061.624-.083.938q-.007.1-.013.19a.514.514,0,0,0,.042.2Zm.647-2.61a1.1,1.1,0,0,1,1.047.175l-.309.393a.606.606,0,0,0-.574-.1Zm1.026.159a1.132,1.132,0,0,1,.442.632l.008.035a6.589,6.589,0,0,1,.12,1.261h-.5a6.073,6.073,0,0,0-.111-1.165.63.63,0,0,0-.246-.352Zm.57,1.921a1.508,1.508,0,0,1-.107.574l-.465-.184a1.014,1.014,0,0,0,.071-.384Zm-.08.483a.993.993,0,0,1-1.538.63l-1.321-.912h1.618v.5h-.012a.493.493,0,0,0,.763-.313ZM189.015,62.591a2.2,2.2,0,0,1,.284.376l-.429.257a1.7,1.7,0,0,0-.219-.291Zm.262.343a1,1,0,0,1-.184,1.345l-.013.01-.325.246-.3-.4.325-.246a.493.493,0,0,0,.091-.667Zm-.511,1.593a13.968,13.968,0,0,0-1.384,1.272l-.362-.344a14.419,14.419,0,0,1,1.433-1.318Zm-1.376,1.264c-.227.249-.461.506-.706.738l-.014.013a3.369,3.369,0,0,0-.7.858,1.471,1.471,0,0,1-.931.7L185,68.1a1.242,1.242,0,0,1-.826-.157l.254-.43a.739.739,0,0,0,.493.094.965.965,0,0,0,.613-.458,3.876,3.876,0,0,1,.805-.985c.231-.219.455-.465.679-.711Zm-3.2,2.166a1.018,1.018,0,0,1-.538-.969l.5.035a.517.517,0,0,0,.273.493Zm-.539-.93a1.655,1.655,0,0,1,.12-.634l.464.186a1.163,1.163,0,0,0-.084.443Zm.116-.624a1.417,1.417,0,0,1,.528-.672l.013-.009a5.726,5.726,0,0,0,1.028-.84c.353-.357.736-.727,1.175-1.132l.027-.023a10.059,10.059,0,0,0,1.206-1.14l.372.334a10.528,10.528,0,0,1-1.266,1.2c-.392.362-.778.731-1.155,1.113a6.219,6.219,0,0,1-1.118.914.923.923,0,0,0-.342.436Zm3.932-3.759a.805.805,0,0,1,1.364.033l-.43.256a.305.305,0,0,0-.517-.012Zm.934-.212h.229l.148.158-.365.342h-.012Zm7.79-5.366-.066.092-.055.044L196,56.811l.025-.034Zm-.013-.009-.025.061-.039.052a8.078,8.078,0,0,1-.945,1.05l-.02.018c-.159.133-.321.264-.478.391a10.55,10.55,0,0,0-1.432,1.308l-.38-.325a11.019,11.019,0,0,1,1.5-1.372c.158-.128.316-.256.472-.386a7.556,7.556,0,0,0,.887-.985Zm-2.935,2.874a15.677,15.677,0,0,1-1.511,1.585,3.256,3.256,0,0,1-1.38.894l-.128.029-.126-.038a1.165,1.165,0,0,1-.429-.236l.327-.378a.673.673,0,0,0,.246.135,3.327,3.327,0,0,0,1.153-.776,15.123,15.123,0,0,0,1.463-1.534Zm-3.568,2.239-.282-.237L189.6,61.9a.71.71,0,0,1-.1-.747l.014-.031.154-.245.141-.062.2.458-.054.086a.214.214,0,0,0,.03.224l.246.207Zm-.2-1.27,0-.008a4.49,4.49,0,0,1,.7-.951l.361.346a3.988,3.988,0,0,0-.618.845Zm.692-.95a7.181,7.181,0,0,1,.695-.639,7.057,7.057,0,0,0,.545-.49l.005-.005c.17-.172.326-.362.491-.562.1-.117.195-.237.3-.355l.032-.033c.21-.2.428-.382.638-.558l.187-.156.006-.005.283-.231.316.387-.283.231-.189.158c-.208.174-.415.347-.614.536-.1.112-.193.228-.288.343-.167.2-.335.409-.523.6a7.488,7.488,0,0,1-.583.526,6.765,6.765,0,0,0-.648.594Zm3.137-3,1.22-1.265.02-.017c.134-.113.272-.213.4-.31a2.449,2.449,0,0,0,.662-.609l.1-.155.173-.056.155.475a2.827,2.827,0,0,1-.793.749c-.128.093-.257.187-.377.288l-1.2,1.246Zm2.468-2.348a8.88,8.88,0,0,0,.7-.657l0,0a3.9,3.9,0,0,1,1.079-.779l.219.449a3.407,3.407,0,0,0-.941.68,9.345,9.345,0,0,1-.739.694Zm1.725-1.408c.1-.066.212-.136.343-.214l.025-.015.026-.012a.743.743,0,0,1,.44-.052l-.091.492a.246.246,0,0,0-.145.017c-.108.064-.217.131-.32.2Zm.734-.3a.661.661,0,0,1,.67.609l0,.025v.025a1.9,1.9,0,0,1-.6,1.339l-.341-.366a1.391,1.391,0,0,0,.443-.985.16.16,0,0,0-.163-.148Zm.1,1.972-.693.752-.129.14a7.424,7.424,0,0,1-.53.539l-.766.692-.335-.371.768-.694a7,7,0,0,0,.495-.5l.128-.139.268-.293.426-.461Zm-2.025,2.01-.115.187-.407-.291.094-.155Zm-15.6,12.978v-.144h.5v.144Zm.027.018a.987.987,0,0,1,.045-.754l.45.217a.493.493,0,0,0-.022.374Zm.032-.725a1.024,1.024,0,0,1,.225-.34l.028-.026.121-.1c.243-.21.494-.427.754-.642l.025-.019a2.5,2.5,0,0,1,.567-.308l.042-.014a.742.742,0,0,1,.56.06l-.237.441a.246.246,0,0,0-.185-.02,2,2,0,0,0-.453.246c-.256.212-.5.423-.746.635l-.121.1a.53.53,0,0,0-.116.175Zm2.3-1.4a1.1,1.1,0,0,1,.618.866l-.5.058a.6.6,0,0,0-.337-.473Zm.613.831a1.132,1.132,0,0,1-.128.768l-.02.032a6.7,6.7,0,0,1-.8.974,1.512,1.512,0,0,1-.479.328l-.025.01a1.088,1.088,0,0,1-.813.06,1.212,1.212,0,0,1-.427-.308.757.757,0,0,1-.309-.7.516.516,0,0,1,.578-.389l.1.013.1.061-.257.429-.012-.007c-.018,0-.027,0-.03.011-.008.033.074.13.17.222a1.147,1.147,0,0,0,.251.2c.1.038.194.043.468-.059a1.022,1.022,0,0,0,.323-.222,6.189,6.189,0,0,0,.739-.9.63.63,0,0,0,.071-.429ZM193.037,46.9l-11.328,2.9-.124-.484,11.328-2.9ZM189.489,48.4l-.09.034-.053.008-.072-.495.039-.015Zm.012-.023-.052.039-.061.024a8.937,8.937,0,0,1-1.393.428l-.026,0c-.215.036-.433.068-.644.1a11.777,11.777,0,0,0-2.011.418l-.047.016c-2.692.9-3.361.668-3.58.591l-.1-.035-.078-.074a1.53,1.53,0,0,1-.263-.329l0,0c-.01-.017-.023-.036-.036-.056a.792.792,0,0,1-.08-.95l.39.312c-.072.09.029.244.108.364.019.029.036.055.05.079a1.03,1.03,0,0,0,.177.222c.727.254,2.852-.457,3.257-.593l.046-.015a12.249,12.249,0,0,1,2.1-.438c.212-.032.425-.064.637-.1a8.41,8.41,0,0,0,1.315-.4Zm-8.385.183a1.431,1.431,0,0,1,.713-.436c.062-.022.12-.043.16-.06l.023-.009a4.131,4.131,0,0,1,.678-.2l.1.49a3.62,3.62,0,0,0-.6.175c-.058.026-.126.05-.2.075a1.047,1.047,0,0,0-.481.265Zm1.563-.7c.228-.051.457-.089.68-.125.261-.043.507-.083.74-.142s.48-.145.73-.233c.149-.052.3-.106.459-.155l.045-.012c.323-.07.655-.125.975-.178l.542-.088.08.494-.382.062-.158.026c-.318.053-.64.106-.95.173-.149.047-.3.1-.444.151-.253.088-.507.177-.772.246s-.519.108-.783.151c-.219.036-.438.072-.651.12Zm4.123-.924c.578-.152,1.164-.308,1.739-.464l.025-.007.025,0c.178-.029.355-.048.526-.066.154-.016.3-.031.438-.053a6.965,6.965,0,0,0,.845-.213,4.615,4.615,0,0,1,2.065-.263l-.077.494a4.15,4.15,0,0,0-1.847.248,7.38,7.38,0,0,1-.909.227c-.152.024-.308.04-.463.056s-.334.035-.5.062q-.869.236-1.744.465Zm5.587-1.075h.375l.052.011a.82.82,0,0,1,.337.159l-.311.391a.315.315,0,0,0-.131-.062h-.323Zm.739.151a.675.675,0,0,1,.306.708l-.006.027-.009.027a1.3,1.3,0,0,1-.992.856l-.091-.492a.8.8,0,0,0,.611-.527c.015-.066-.022-.133-.1-.19Zm-.642,1.6c-.293.093-.593.184-.891.27l-.229.067c-.223.065-.454.133-.7.188l-.016,0c-.356.066-.715.14-1.063.212l-.1-.49c.357-.074.714-.148,1.074-.214.233-.051.452-.115.67-.179l.232-.067q.443-.128.879-.266Zm-2.815.712-.182.075-.176-.468.167-.069Zm17.8,10.944-5.96,10.058-.43-.255,5.96-10.058Zm-1.457,3.561-.042.1-.038.049-.4-.305.017-.039Zm-.011-.016-.01.062-.025.058a8.649,8.649,0,0,1-.685,1.291l-.013.019c-.128.179-.26.359-.388.532a12.19,12.19,0,0,0-1.124,1.716l-.03.059c-1.268,2.527-1.9,2.831-2.107,2.931l-.094.045-.1,0a1.444,1.444,0,0,1-.429-.049l.13-.483a.945.945,0,0,0,.281.032c.685-.33,1.667-2.287,1.877-2.7l.029-.058a12.669,12.669,0,0,1,1.168-1.788c.129-.175.257-.35.383-.526a8.124,8.124,0,0,0,.645-1.217Zm-5,6.672-.062-.013c-.2-.041-.672-.139-.738-.6a1.537,1.537,0,0,1,.231-.886c.02-.04.04-.079.057-.115l.454.211c-.019.04-.041.084-.064.129a1.152,1.152,0,0,0-.183.59c.016.114.2.152.344.181l.082.018Zm-.519-1.6a4.207,4.207,0,0,1,.327-.621c.122-.191.255-.377.383-.556.156-.218.3-.424.428-.634s.245-.458.364-.7c.065-.134.132-.273.2-.411l.012-.023.014-.022c.177-.272.369-.54.554-.8l.1-.141.229-.316.4.293-.227.313-.1.142c-.186.26-.371.519-.542.782-.068.133-.132.266-.2.4-.12.249-.24.5-.384.743-.135.228-.294.449-.452.67-.127.177-.253.353-.368.534a3.694,3.694,0,0,0-.288.547Zm2.588-4.188c.177-.3.355-.609.527-.907q.189-.327.378-.653L204,62.1c.1-.146.21-.278.316-.407s.194-.237.278-.357l0,0a7.181,7.181,0,0,0,.445-.746,4.633,4.633,0,0,1,1.279-1.652l.3.4a4.165,4.165,0,0,0-1.136,1.487,7.606,7.606,0,0,1-.478.8c-.1.136-.2.262-.3.387s-.2.246-.292.376q-.189.325-.377.651c-.175.3-.351.608-.529.91Zm3.179-4.7c.084-.089.173-.173.252-.247l.028-.026.031-.021a.79.79,0,0,1,.37-.135l.048.5a.288.288,0,0,0-.135.049c-.079.074-.158.148-.229.224Zm.561-.4a.679.679,0,0,1,.774.23l.028.037.021.041a1.3,1.3,0,0,1-.072,1.287l-.419-.273a.8.8,0,0,0,.044-.791.182.182,0,0,0-.207-.062Zm.774,1.555c-.13.249-.282.538-.44.82-.036.065-.072.129-.107.194-.115.211-.234.429-.383.649-.185.27-.367.546-.543.812l-.063.095-.417-.276.063-.095c.181-.273.36-.545.546-.816.135-.2.247-.405.358-.609.036-.067.073-.133.11-.2.15-.268.293-.539.433-.808ZM206.1,62.641l-.08.184-.458-.2.079-.182Zm40.463,4.984a1.025,1.025,0,0,1-.964.535l.032-.5a.522.522,0,0,0,.492-.273Zm-.928.536a1.654,1.654,0,0,1-.634-.12l.186-.464a1.162,1.162,0,0,0,.443.084Zm-.622-.115a1.4,1.4,0,0,1-.676-.531l-.008-.012a5.62,5.62,0,0,0-.839-1.027l0,0c-.354-.349-.723-.732-1.129-1.171l-.023-.027a10.052,10.052,0,0,0-1.14-1.206l.334-.372a10.522,10.522,0,0,1,1.2,1.266c.362.392.731.778,1.113,1.155a6.113,6.113,0,0,1,.914,1.118.909.909,0,0,0,.436.342Zm-3.748-3.925a.805.805,0,0,1,0-1.37l.263.425a.305.305,0,0,0,0,.52Zm-.083-1.306a2.093,2.093,0,0,1,.379-.288l.256.43a1.59,1.59,0,0,0-.288.219Zm.345-.266a1,1,0,0,1,1.345.184l.01.013.246.325-.4.3-.246-.325a.493.493,0,0,0-.667-.091Zm1.593.511a13.993,13.993,0,0,0,1.274,1.384l-.344.363a14.444,14.444,0,0,1-1.32-1.433Zm1.267,1.377c.231.21.462.431.726.7l.021.023a3.412,3.412,0,0,0,.859.7,1.471,1.471,0,0,1,.7.931l.006.029a1.243,1.243,0,0,1-.132.809l-.439-.239a.739.739,0,0,0,.079-.483.965.965,0,0,0-.458-.613,3.918,3.918,0,0,1-.985-.805c-.231-.232-.463-.456-.709-.68Zm-3.606-2.53-.236.281-.035.029a.707.707,0,0,1-.745.1l-.024-.011-.257-.15L239.415,62l.462-.191.089.052a.212.212,0,0,0,.222-.03l.207-.246Zm-1.268.2-.01-.005a4.47,4.47,0,0,1-.948-.7l.346-.361a3.969,3.969,0,0,0,.842.618Zm-.949-.693a7.28,7.28,0,0,1-.645-.7,7.265,7.265,0,0,0-.486-.541c-.174-.169-.362-.324-.561-.488-.119-.1-.242-.2-.363-.3l-.033-.032c-.211-.221-.4-.451-.585-.672l-.129-.155-.234-.283.386-.318.232.281.13.156c.182.219.363.438.562.647.115.1.233.2.352.295.2.166.4.332.592.515a7.7,7.7,0,0,1,.521.578,6.865,6.865,0,0,0,.6.654Zm-2.995-3.132-1.278-1.22-.017-.02c-.115-.136-.217-.275-.315-.41a2.451,2.451,0,0,0-.607-.659l-.155-.1-.056-.174.476-.154a2.828,2.828,0,0,1,.747.788c.095.13.189.26.293.382l1.258,1.2Zm-2.364-2.47a8.844,8.844,0,0,0-.657-.7,3.807,3.807,0,0,1-.783-1.086l.451-.217a3.313,3.313,0,0,0,.677.941,9.31,9.31,0,0,1,.694.739Zm-1.4-1.718c-.081-.117-.155-.239-.218-.343l-.016-.026-.012-.028a.742.742,0,0,1-.052-.448l.491.095a.246.246,0,0,0,.017.148c.064.106.13.214.2.318Zm-.3-.811a.654.654,0,0,1,.615-.6h.043a1.89,1.89,0,0,1,1.325.6l-.367.34a1.379,1.379,0,0,0-.973-.441c-.084,0-.135.062-.148.16Zm1.953-.027.767.7.139.128a7.431,7.431,0,0,1,.539.531l.692.766-.371.335-.694-.768a7.011,7.011,0,0,0-.5-.5l-.139-.128-.293-.268-.473-.431Zm2.058,2.054.248.177.048.066-.4.294-.034-.025-.148-.106Zm.119.111.071.025.06.045a7.908,7.908,0,0,1,1.052.947l.017.019c.133.159.264.321.391.478a10.553,10.553,0,0,0,1.309,1.433l-.325.38a11.022,11.022,0,0,1-1.373-1.5c-.128-.158-.255-.316-.386-.472a7.386,7.386,0,0,0-.985-.887Zm2.894,2.943A15.89,15.89,0,0,1,240.1,59.87l0,0A3.267,3.267,0,0,1,241,61.25l.028.123-.034.121a1.167,1.167,0,0,1-.2.4l-.014.018-.383-.322a.672.672,0,0,0,.113-.227,3.349,3.349,0,0,0-.773-1.153,15.333,15.333,0,0,0-1.534-1.463Zm10.193,12.4-.24.1-.027.008a1.066,1.066,0,0,1-1.036-.26l-.03-.032-.125-.145c-.2-.235-.412-.477-.62-.726l-.022-.028a2.513,2.513,0,0,1-.307-.569l-.014-.04a.742.742,0,0,1,.06-.56l.44.237a.246.246,0,0,0-.02.185,2.012,2.012,0,0,0,.246.456c.2.246.409.483.614.72l.125.145a.564.564,0,0,0,.549.138l.214-.089Zm-2.369-2.235a1.1,1.1,0,0,1,.861-.615l.061.5a.608.608,0,0,0-.473.337Zm.834-.61a1.148,1.148,0,0,1,.761.127l.036.022a6.7,6.7,0,0,1,.974.8,1.511,1.511,0,0,1,.328.479l-.459.2a1.022,1.022,0,0,0-.222-.323,6.185,6.185,0,0,0-.9-.739.645.645,0,0,0-.428-.071Zm2.052,1.342a.993.993,0,0,1-.6,1.529l-.112-.487a.493.493,0,0,0,.3-.759Zm-.355-19.037a1.516,1.516,0,0,1-.883.035c-.053-.009-.1-.017-.141-.022h-.009a4.554,4.554,0,0,1-.681-.149c-.214-.062-.427-.137-.634-.21-.255-.09-.5-.174-.734-.235s-.468-.1-.716-.144c-.17-.03-.346-.06-.523-.1l-.04-.01c-.325-.1-.654-.214-.972-.326l-.484-.173.169-.471.364.131.117.041c.318.112.636.224.949.318.168.036.337.065.5.094.251.044.5.087.754.152s.518.157.776.248c.2.072.407.143.613.2a4.04,4.04,0,0,0,.606.133c.05.006.105.015.163.025a1.148,1.148,0,0,0,.6,0ZM243.106,48.9c-.374-.093-.757-.186-1.126-.276l-.625-.152-.047-.014c-.172-.061-.339-.13-.5-.2-.14-.058-.272-.113-.4-.162a6.889,6.889,0,0,0-.839-.218,4.6,4.6,0,0,1-1.94-.764l.306-.4a4.133,4.133,0,0,0,1.741.672,7.3,7.3,0,0,1,.9.237c.143.052.284.111.425.17.158.066.315.131.474.187l.624.152q.565.137,1.129.277Zm-5.4-1.732c-.107-.053-.208-.112-.307-.169l-.044-.025-.039-.034a.85.85,0,0,1-.208-.279l.453-.211a.352.352,0,0,0,.087.116c.093.054.187.108.28.155Zm-.548-.425a.683.683,0,0,1,0-.8l.03-.041.037-.034a1.293,1.293,0,0,1,1.285-.273l-.159.474a.793.793,0,0,0-.788.167.185.185,0,0,0,0,.217Zm1.286-1.169c.322.061.641.13.911.19l.144.031a8.328,8.328,0,0,1,.808.2c.253.082.509.161.756.238l.283.088-.149.477-.282-.088c-.253-.079-.507-.157-.762-.24s-.508-.137-.76-.192l-.146-.032c-.3-.066-.6-.131-.9-.187Zm2.8.732.182.017-.047.5L241.2,46.8Zm.135.015h.117l.069.02-.141.48h-.044Zm-.024.021.1-.029.1.012a8.791,8.791,0,0,1,1.431.3l.024.008c.2.071.405.145.6.218a12.2,12.2,0,0,0,1.976.6l.064.012c2.782.507,3.252,1.026,3.406,1.2l.072.08.033.1a1.484,1.484,0,0,1,.071.423c0,.028,0,.056,0,.085a.8.8,0,0,1-.375.869l-.206-.456c.1-.046.09-.228.081-.383,0-.037,0-.073,0-.1a.985.985,0,0,0-.047-.281c-.51-.564-2.669-.957-3.125-1.04l-.064-.012a12.683,12.683,0,0,1-2.059-.627c-.2-.073-.4-.145-.6-.215a8.266,8.266,0,0,0-1.35-.278Zm7.306,2.92h.007l.206.956-.206-.456h-.007Zm-24.855,9.5,5.96,10.058-.43.255-5.96-10.058Zm2.418,2.977.067.085.026.059-.458.2-.027-.034Zm-.019,0,.053.039.041.052a8.817,8.817,0,0,1,.8,1.219l.012.023c.092.19.182.384.268.571a12.088,12.088,0,0,0,.972,1.823l.015.021c1.084,1.548,1.617,2.653,1.586,3.286l-.005.109-.05.1a1.5,1.5,0,0,1-.247.347l-.362-.345a1,1,0,0,0,.165-.232c.038-.782-1.286-2.674-1.5-2.975l-.016-.022a12.561,12.561,0,0,1-1.015-1.9c-.088-.189-.175-.378-.266-.565a8.291,8.291,0,0,0-.758-1.15Zm3.457,7.578-.04.047a.806.806,0,0,1-.883.365l-.009,0a1.52,1.52,0,0,1-.64-.592c-.032-.045-.062-.087-.087-.118L228,69.007a4.475,4.475,0,0,1-.377-.591l.441-.235a3.96,3.96,0,0,0,.335.525c.032.041.066.088.1.137a1.151,1.151,0,0,0,.413.417c.113.041.236-.106.329-.217.019-.023.037-.044.053-.061Zm-2.039-.895c-.113-.2-.213-.413-.31-.615-.115-.239-.223-.464-.346-.673s-.256-.391-.4-.593c-.1-.143-.209-.29-.309-.443l-.023-.038c-.177-.328-.334-.662-.506-1.034l.454-.21c.158.34.318.682.493,1.007.095.144.2.284.3.426.147.2.3.411.427.631s.25.469.366.71c.1.2.191.4.3.59Zm-1.891-3.386c-.026-.053-.052-.109-.077-.165s-.057-.125-.082-.172l.443-.232c.031.059.062.128.094.2.023.051.047.1.071.153Zm-.145-.312c-.242-.4-.491-.812-.731-1.207l-.225-.374c-.081-.164-.149-.331-.214-.492-.058-.141-.112-.274-.172-.4a6.966,6.966,0,0,0-.443-.755,4.639,4.639,0,0,1-.833-1.909l.5-.066a4.175,4.175,0,0,0,.758,1.7,7.382,7.382,0,0,1,.473.81c.066.138.125.282.184.426s.127.312.2.46l.2.334c.245.4.49.8.733,1.21Zm-2.6-5.048c-.034-.1-.061-.209-.088-.311l-.016-.061,0-.037a.8.8,0,0,1,.053-.384l.464.187a.3.3,0,0,0-.02.143l.007.025c.025.1.05.192.08.283Zm-.065-.764a.677.677,0,0,1,.594-.493l.029,0h.029a1.3,1.3,0,0,1,1.1.714l-.447.224a.8.8,0,0,0-.675-.438c-.069,0-.123.057-.155.153Zm1.723.17c.165.252.332.513.5.776l.126.2c.127.2.259.4.383.629l.007.014c.122.241.251.485.375.721l.128.242-.442.233-.127-.241c-.128-.242-.256-.484-.38-.73-.115-.212-.24-.4-.364-.6l-.129-.2q-.246-.392-.493-.768Zm1.479,2.516.111.153-.4.294-.111-.153Zm4.238,10.743a1.074,1.074,0,1,1,1.074-1.074,1.067,1.067,0,0,1-1.074,1.074h0v-.5a.574.574,0,1,0-.406-.168.574.574,0,0,0,.406.168ZM179.449,51.134a1.158,1.158,0,1,1,1.153-1.158,1.154,1.154,0,0,1-1.153,1.158h0l0-.5a.658.658,0,1,0-.609-.4.658.658,0,0,0,.609.4Zm35.806,24.005-.5-.055Zm0-.037-.5-.018Zm-.519,1.523.5-.008-.5.008.5,0Zm.3,1.443-.489-.106Zm0-.008-.49-.1Zm-.49.458a.464.464,0,0,1-.029-.085l.453-.109Zm.424-.194.031-.014,0,.006Zm.731.394-.426-.261Zm0,0-.4-.293Zm-.017-2.024h0Zm0,0-.5-.032Zm.108-3.342-.49-.049,0-.009.488.058-.488-.058.089-.475A.5.5,0,0,1,215.792,73.353Zm-.491-.042a.007.007,0,0,1-.006-.008h.008Zm0-.017h0Zm-.289-.025h-.006l.01-.3.3.019A.345.345,0,0,1,215.015,73.269Zm0-.3-.194-.012c.007-.118.054-.2.2-.191Zm1.362-9.6-.343-.09.343-.09A.356.356,0,0,1,216.381,63.368Zm-.484-.053a.145.145,0,0,1,0-.074l.14.037Zm-.069,3.963.5-.047-.5.047.5-.04Zm-.447,4.057-.038-.5Zm.017,0-.054-.5Zm-.574-.7-.3-.1.3-.1A.318.318,0,0,1,214.824,70.634Zm-.473-.044a.183.183,0,0,1,0-.117l.172.059Zm-.186-1.17.5-.022Zm0-.01.5-.012Zm.106-4.325.5-.009Zm.5-.009-.5-.047Zm.062-3.285-.125-.076.148.014A.168.168,0,0,1,214.832,61.79Zm.022-.062-.148-.014-.018-.011Zm-.148-.014-.35-.033Zm-.018-.011-.328-.05a.331.331,0,0,1,.044-.122Zm.387-2.14-.49-.1Zm0,0L214.6,59.4Zm.177-.483-.349-.358Zm0,0-.275-.417Zm1.091,1.02-.5-.02Zm-.5-.02.5-.023Zm.047,1.037.5-.035-.5.035.5-.022Zm.462,1.956-.5-.025Zm-.5-.025.48-.141Zm-1.821,19.523.459-.2Zm-.014-.035.473-.162Zm.825-2.1-.164-.472Zm0,0-.141-.48Zm.574.1.288-.409-.288.409.309-.393Zm.857,1.518h0Zm-.5,0,.5,0Zm.393.569-.465-.184Zm.026-.09-.491-.094Zm-1.433.681.191-.462v0ZM188.87,63.224l.408-.289-.408.289.429-.257Zm-.114,1.312-.3-.4Zm.011-.008-.313-.39ZM187.383,65.8l-.362-.344Zm.007-.008-.37-.337Zm-3.2,2.166.235-.442Zm-.02-.011.254-.43Zm-.519-.919.5,0Zm.5,0-.5-.035Zm.084-.443-.468-.177Zm0,0-.464-.186Zm3.881-3.66-.417-.276Zm0,0-.372-.334Zm.517.012v0l.43-.256Zm7.669-5.731-.221-.278.329.133A.355.355,0,0,1,196.307,57.2Zm-.221-.278-.135-.055a.145.145,0,0,1,.044-.059Zm-2.611,3.014-.38-.325Zm0-.006-.385-.319Zm-3.568,2.239.322-.383Zm-.006,0,.327-.378Zm.106-.9-.123-.28.27.142A.305.305,0,0,1,190.012,61.271Zm-.123-.28-.173-.09a.2.2,0,0,1,.094-.088Zm.889-.7-.369-.338Zm0,0-.361-.346Zm3.128-2.987-.36-.347Zm0,0-.316-.387Zm2.372-2.283-.053-.162.112.133A.222.222,0,0,1,196.277,55.018Zm.059-.03-.112-.133-.016-.049Zm-.112-.133-.21-.25Zm-.016-.049-.16-.227a.278.278,0,0,1,.074-.037Zm1.807-1.193-.277-.416Zm0,0-.219-.449Zm.465-.217-.009-.5Zm0,0,.091-.492Zm.06,1.5-.341-.366Zm.026-.026-.367-.34Zm-2.118,2.122-.335-.371Zm.093-.113-.428-.258Zm-15.571,13,.053-.018h0l.42-.144-.42.144h0Zm.473-.163h0Zm.022-.374L181,69.151Zm0,0-.45-.217Zm1.62-1.14.216-.451-.216.451.237-.441Zm.337.473.491-.093-.491.093.5-.058Zm-1.98,1.186.257-.429Zm7.9-21.42L189.3,48.1l.2.275A.344.344,0,0,1,189.345,48.437ZM189.3,48.1l-.094-.126a.157.157,0,0,1,.071-.03Zm-7.78.758-.4-.3Zm0,0-.39-.312Zm1.273-.515-.11-.488Zm0,0-.1-.49Zm4.14-.928-.127-.484Zm0,0-.08-.494Zm5.46-1.059v0l.077-.494Zm.453.062.286-.41-.286.41.311-.391Zm-.416,1.208-.091-.492Zm.06-.015-.151-.477Zm-2.9.739-.1-.49Zm.089-.027-.19-.462ZM205.938,62.97l-.277-.214.346.053A.351.351,0,0,1,205.938,62.97Zm-.277-.214-.148-.023a.15.15,0,0,1,.03-.069Zm-4.653,6.725.121-.485Zm-.009,0,.13-.483Zm-.049-1.4-.46-.2Zm0,0-.453-.211Zm2.559-4.13-.431-.253Zm0,0-.4-.293Zm3.113-4.61L206.256,59Zm0,0-.3-.4Zm.364-.273-.169-.471Zm0,0-.048-.5Zm.582,1.125-.419-.273Zm.024-.041-.443-.232Zm-1.536,2.571-.417-.276Zm.042-.077-.459-.2Zm39.535,5.52,0-.5-.032.5.032-.5Zm-.622-.115.174-.469Zm-.012,0,.186-.464Zm-3.736-3.92.263-.425Zm-.071-.053.334-.372Zm.334-.892-.346-.361Zm0,0-.263-.425Zm.288-.219-.289-.408Zm0,0-.256-.43Zm.914.416.39-.313-.39.313.4-.3Zm1.32,1.433.337-.37-.337.37.344-.363Zm2.513,2.82-.439-.239Zm0,0-.44-.237ZM239.509,62.1a.2.2,0,0,1-.094-.1l.187-.077Zm.093-.179.137-.264a.3.3,0,0,1,.138.15Zm-1.043-.514.338-.369Zm-.009-.008.346-.361Zm-2.986-3.124.345-.362Zm-.04-.043.386-.318ZM233.2,55.808l.25-.21Zm-.026-.034a.279.279,0,0,1-.037-.075l.266-.086Zm.228-.161.18-.127-.133.112Zm.048-.015.133-.112a.22.22,0,0,1,.03.059ZM231.8,54.09l.411-.284Zm-.039-.068.451-.217Zm.231-.682-.5-.062Zm0,0-.491-.095Zm1.121.281.337-.37-.337.37.367-.34Zm2.1,2.091.291-.406-.291.406.371-.335Zm.241.175a.125.125,0,0,1-.059-.044l.1-.074Zm.042-.118.126-.353a.373.373,0,0,1,.177.133Zm2.7,2.975.319-.385-.319.385.325-.38Zm8.592,10-.449-.219Zm0,0-.44-.237Zm.473-.337-.089-.492Zm0,0-.061-.5Zm1.552,1.133.412-.283-.412.283.459-.2Zm-.183,1.246-.112-.487Zm.079-.025-.191-.462ZM243.106,48.9l.121-.485Zm-.048-.014.169-.471Zm-5.352-1.718.224-.447Zm-.082-.051.306-.4Zm-.466-.373.4-.293Zm-.048-.082.453-.211Zm1.241-.6.093-.491-.093.491.159-.474Zm2.847.739.047-.5-.047.5.149-.477Zm.182.017v-.4l-.024-.08.024-.006v0a.369.369,0,0,1,.047-.007v0a.368.368,0,0,1,.139.014l-.1.355-.053-.178Zm0-.4v.4l.029-.3Zm.081.4a.13.13,0,0,1-.037-.005l.037-.125.037.125A.13.13,0,0,1,241.461,46.825Zm7.407,3.391-.206-.456Zm-.206-.456v0ZM225.906,62.14a.148.148,0,0,1-.047-.059l.135-.059Zm3.748,7.186-.362-.345Zm.008-.009-.37-.336Zm-2.039-.895.438-.242Zm0-.007.441-.235Zm-1.887-3.38.449-.22Zm0-.009.454-.21Zm-.14-.3.429-.257Zm-.014-.025.443-.232Zm-2.584-5.023.475-.155Zm-.02-.089.5-.066Zm.429-.516-.474-.158Zm0,0-.464-.187Zm.83.286.419-.274-.419.274.447-.224Zm1.492,2.537.4-.294-.4.294.442-.233Zm.111.153.35-.276.023-.031.008.006.011-.009-.011.009.015.012.008-.006-.008.006a.353.353,0,0,1,.089.122l-.323.141.153-.2Zm.35-.276-.35.276.315-.229Z" transform="translate(-165.047 -35.956)" fill="#fff"/></g></g></svg>