<svg id="white_tagless" data-name="white tagless" xmlns="http://www.w3.org/2000/svg" viewBox="0 0 720 558"><defs><style>.cls-1{fill:#fff;}</style></defs><title>OnThreePhotography</title><g id="OTP"><path class="cls-1" d="M415.72,490.32a1.54,1.54,0,0,1,.17.34l.33.7a6.09,6.09,0,0,0,.34.52l.55.77.81,1.11,1.14,2.48,1.45,2.32,1.36,2.36,1,2.55,1.15,2.47a5.47,5.47,0,0,0,.38.49l.16.09a1.09,1.09,0,0,1,.64-.18H428l2.73.05,2.73.27,1.46,0h.53l-.28-.27-.41-.31-.17-.11-.08-.05-.24-.22-1.82-2-.43-.37-1.4-2-1-2.56-1.74-2.15-1.26-2.42-1-2.55-1.34-2.5,1.4-.54a8.11,8.11,0,0,0,.93-.53l.51-.39a12.36,12.36,0,0,0,.93-.84,11.42,11.42,0,0,0,3.11-3.62,12.72,12.72,0,0,0,1.41-2.11,14,14,0,0,0,.54-2.49A16.85,16.85,0,0,0,433,476c.07-.86.23-1.75.23-2.63a19.46,19.46,0,0,0-.67-2.52,15.35,15.35,0,0,0-.48-2.52,12,12,0,0,0-1.54-2,12.29,12.29,0,0,0-1.24-2.16,12.56,12.56,0,0,0-2.12-1.3A12.26,12.26,0,0,0,425,461.5a15.93,15.93,0,0,0-2.57-.29,20.78,20.78,0,0,0-2.48-.91c-.87,0-1.76.06-2.64.11l-2.72.32-2.73-.4-2.72,0-2.73.44-2.73-.55-2.12,0c-.1.07-.15.13-.15.19a.93.93,0,0,0,.38.33c0,.06,0-.08,0,.16l.23.64.45,1.29.15.57.08.29.15.49c0,.56,0,.71-.07,1l-.08.77-.05,2.72,0,2.73.36,2.73-.43,2.73.46,2.72L403,482.3l-.37,2.73.24,2.72.29,2.73-.3,2.73.11,2.72.06,2.73-.27,2.73.05.61,0,.81-.27.92-.2.73-.54,1.25a2.23,2.23,0,0,1-.28.57l-.23.34a2.58,2.58,0,0,0,.45.13,6.48,6.48,0,0,1,1.07-.16l1.37-.16,2.72.08,2.73-.06,2.73-.18a4.37,4.37,0,0,1,.52.05l.08,0,.3.1v0a1.6,1.6,0,0,0-.19-.26c0-.06,0,0-.1-.15l-.27-.62-.32-1.21-.16-.61c0-.18-.09-.38-.22-.79l0-.42.18-2.74-.14-2.73,0-2.73c0-.69-.15-1.39-.13-2.08,0-.13.11-.26.48-.36.18-.05,1.44-1.47,1.68-1.46l1.23,0Zm-1.37-7-.85-.26-.86-.06-.45,0,0-.46a5.36,5.36,0,0,1-.37-.79,10.7,10.7,0,0,1,.44-1.11c-.16-.25-.31-.4-.46-.6l0-.58.38-.57-.25-.57-.29-.58.3-.57-.11-.58-.06-.57.27-.57-.2-.58.15-.57.22-.57-.31-.58.07-.57,0-.58-.18-.57.19-.57-.09-.29-.09-.54.25-.95.18-.84v-.08L413,468l.93,0a2.79,2.79,0,0,1,.72-.14c.05,0,.38-.07.41-.05l.15.09.18.12.6-.33.59.21.6-.13h.61l.57.39.58.24.67-.27.63.12.63.23c.19.15.37.32.56.5a3.76,3.76,0,0,1,.61.36,4.78,4.78,0,0,1,.59.41,5.93,5.93,0,0,1,.62.4,4.43,4.43,0,0,1,.3.67,6.5,6.5,0,0,1,.61.46,6.16,6.16,0,0,1-.06.76,7.25,7.25,0,0,1,.67.46l.11.68c-.07.24-.14.48-.23.71s0,.44,0,.65c.16.2.31.42.46.64l.06.67,0,.67c-.18.2-.37.38-.56.56l-.1.64q0,.34.06.69l-.59.48a6.09,6.09,0,0,1-.05.72,6.51,6.51,0,0,1-.6.43,5,5,0,0,1-.07.85,6.08,6.08,0,0,1-.8.24,5.54,5.54,0,0,1-.42.65,6.54,6.54,0,0,1-.75.07,7.31,7.31,0,0,1-.43.7,6.86,6.86,0,0,1-.8-.28l-.54.41-.55.46-.69-.28-.61,0-.57.49-.64-.5-.6.07-.59.43Zm-31.08,11.54-.25,3.05.18,3.05-.2,3,.09,1.43c0,.07.06.17.1.3v.18l-.4-.17-1.18-.68-.68-.39-.61-.34c-.2-.13-.4-.26-.63-.11-1.13.45-1.31.56-1.81.79l-1.35.64c-1,.22-1.92.57-2.86.69a18.08,18.08,0,0,1-2.85.25,21.55,21.55,0,0,1-2.91.2,24.42,24.42,0,0,1-2.85-.6,22.38,22.38,0,0,1-2.81-.63,19.81,19.81,0,0,1-2.71-1,48,48,0,0,0-4.74-3.24,20.76,20.76,0,0,1-2.18-1.93,23,23,0,0,1-1.41-2.57,22.1,22.1,0,0,1-1.34-2.55,25.75,25.75,0,0,1-1.51-2.54,27.46,27.46,0,0,1-.37-2.94,24.8,24.8,0,0,1-.82-2.83,24.64,24.64,0,0,1,.15-5.86,26.68,26.68,0,0,1,.78-2.82c.25-.93.54-1.86.88-2.76a22.73,22.73,0,0,1,.77-2.83,20.57,20.57,0,0,1,1.47-2.53,21.33,21.33,0,0,1,2.24-1.91,16.85,16.85,0,0,1,1.79-2.27,23.19,23.19,0,0,1,2.4-1.65,21.75,21.75,0,0,1,2.74-1,26.36,26.36,0,0,1,2.61-1.29,26.86,26.86,0,0,1,2.8-.9,26.61,26.61,0,0,1,3,.19,25.41,25.41,0,0,1,2.92-.49,28.61,28.61,0,0,1,2.9.58c1,0,2,.12,3,.23l1.41.53c.3.11.33.15.34.19a.09.09,0,0,1,0,.1c.11-.05.17,0,.22.13l0,1.55-.82,2.95-.13,1.53-.06.76a1.77,1.77,0,0,0,0,.39c-.09.14-.16.26-.25.22a1.47,1.47,0,0,1-.25-.36c.14.12-.7-.25-1.14-.38s-1-.31-1.57-.43a18.15,18.15,0,0,0-3.17-.63,13.53,13.53,0,0,0-3.34-.46,12.69,12.69,0,0,0-3.31.9,10.3,10.3,0,0,0-4.93,4.42,13.59,13.59,0,0,0-1.83,2.69,15.24,15.24,0,0,0-1.49,2.93,21.11,21.11,0,0,0-.65,3.2,26.21,26.21,0,0,0,.37,3.22,20.49,20.49,0,0,0,0,3.23,16.29,16.29,0,0,0,1.2,3,14.51,14.51,0,0,0,1.39,3,14.14,14.14,0,0,0,2.24,2.4,11.68,11.68,0,0,0,2.75,1.86,12.18,12.18,0,0,0,3.15,1,16,16,0,0,0,3.24.52,15.52,15.52,0,0,0,1.77-.13c.47-.06.94-.14,1.4-.23l.71-.13a3.62,3.62,0,0,0,.05-.68v-3.82l-.38-3.05.18-3.05,0-.48c-.13-.46-.15-.61-.2-.85l-.15-.67-.29-1.36-.17-.5,0,0-.05-.07h0s0-.05.11-.08l1.52-.08,3.05.19,3-.34,1,.11.69.08c0,.56.08,1.11.11,1.66l0,3,.14,3.05Zm96.48,3.06,0,.63,0,.79.85,2.36.13.81-.11.68-.08.47-.17.93,0,1.24v.34l0,0v0l.06,0h.21l2.49.33,2.49.17,2.49-.37h3.28l.18,0,.25.08s.07-.13,0-.29l-.95-1.71-.93-1.58-.21-.91-.72-2.39-.42-2.46-.86-2.36-.22-2.5-1-2.32-.5-2.44-.23-2.5-.52-2.44-1-2.32-.66-2.4-.59-2.42L483,472.9l-.62-2.42-.84-2.36-.2-2.51-.18-.53-.1-.26-.13-.45c0-.46,0-.65,0-.88v-.69l.29-1.22a5.42,5.42,0,0,1,.25-.94c-.05-.14-.12-.21-.2-.22a.76.76,0,0,0-.34.24s0-.07-.28-.1l-.62-.1-1.24-.19-2.49.27-2.49-.31-2.49.46-2.5-.53-2.49.24-1.24.16c-.28.06-.12.11-.13.17a.53.53,0,0,0-.11-.09.13.13,0,0,0-.16,0c0,.11-.11,0-.1.4l.31,2.47c.06.2.13.4.23.85a10,10,0,0,0-.11,1.13l0,.93-1.12,2.29-.53,2.44-.17,2.52-.63,2.41-.83,2.36-.64,2.41-.61,2.41-.22,2.51-1,2.32-.13,2.53-.62,2.42-.94,2.33-.34,2.48-.3,2.49L456,502.8l0,.15-1.2,2.29-.3.54-.14.28c-.05.07,0,0,0,.06l0,.11a1.16,1.16,0,0,0-.24.19c0,.05,0,.11.13.16l.19-.05c.09,0,0,0,.29,0l1.25-.11,2.49.16,2.49.22,2.49-.32,1.25,0,.62,0a.65.65,0,0,1,.23,0l.22,0-.05-.29-.38-2.31v-.58l0-.77.21-.82.18-.64.31-2.48.11-.39.19-.72.35-1.37,1.68.1,2.71.18,2.49-.14,2.49,0c.63,0,1.27-.15,1.9-.13A13.34,13.34,0,0,1,479.75,497.94Zm-1.78-6.2q-.84-.19-1.5-.39l-1.09.28a3.61,3.61,0,0,1-.78-.32l-.66.46-.66-.53-.67.24-.66.33-.66-.4-.74,0c-.39.14-.84.29-1.35.43a3.16,3.16,0,0,1-.79-.55l-.6,0,.07-.48a6.19,6.19,0,0,1-.24-.93l.3-1.25a3.73,3.73,0,0,1,.42-.73l.19-.64.17-.64-.23-.73.56-.56-.32-.74.18-.65.5-.57-.12-.7-.15-.71.43-.59,0-.67.08-.66.39-.6-.07-.69.28-.62.35-.61-.18-.71.21-.64.07-.66,0-.69.32-.61-.05-.69.39-.6.31-.61v-.68l.11-.66c0-.17-.09-.36,0-.52s.12,0,.49,0l.61.09.1,0h0c1.48-.3,1.3-.06,1.29,0l-.05.18-.07.23.46.59-.05.68.28.62.19.64-.19.72,0,.68.5.58.14.65.08.66-.13.7.1.66.14.65.28.62,0,.68.42.59-.23.72.61.56.05.66-.21.72.07.67.57.56.21.63.16.65-.31.74.18.64.4.6a3.54,3.54,0,0,0-.23.8l.51,1.16c0,.36-.06.68-.1,1l.39.76A2,2,0,0,1,478,491.74Zm47-.31.5.06.65.07,1-.28,1-.33a18.91,18.91,0,0,0,2-.29,17.37,17.37,0,0,0,1.81-.83,15.75,15.75,0,0,0,1.72-.92,16,16,0,0,0,1.8-.81,15.33,15.33,0,0,0,1.6-1.18,13.58,13.58,0,0,0,1-1.74,14.57,14.57,0,0,0,1-1.64,17.7,17.7,0,0,0,.86-1.75,14.78,14.78,0,0,0,.83-1.8,15.9,15.9,0,0,0,.35-2c.06-.66.09-1.34.09-2l-.24-2c0-.68,0-1.36-.09-2a16.24,16.24,0,0,0-.72-1.88,12,12,0,0,0-.31-2,13.89,13.89,0,0,0-1.29-1.53,12.64,12.64,0,0,0-1.08-1.55,9.58,9.58,0,0,0-1.14-1.58,4.9,4.9,0,0,0-3.56-1.56,13.12,13.12,0,0,0-1.89-.5c-.63-.18-1.29-.24-1.94-.37l-2-.65h-2.06l-2.12.27-2.12-.38-2.12.27-2.12-.29-2.12.47-2.12-.39-2.12.27c-.27-.1,0,1.62.06,2.31l.31.6c.09.19.18.36.36.76s.06.7.09,1l.33,2.12-.4,2.12,0,2.12.43,2.12-.55,2.12.05,2.12L511,480l-.05,2.12-.27,2.12-.05,2.12,0,2.12.36,2.12-.44,2.12.47,2.12,0,2.12-.38,2.12.25,2.12.1.68a9.19,9.19,0,0,1,.09.92,9,9,0,0,0-.24,1l-1,1.89c-.14.46-.12.44-.12.5s0,.1,0,.13v0l.23-.05c-.12,0,.48.09.77.13l1.06.14,2.12-.21,2.12.16,2.12.22,2.12-.32a4.45,4.45,0,0,1,1,.08l.12,0-.15-.3-.08-.08-.21-.44-.44-1-.22-.84c-.1-.33-.1-.43-.3-1l0-.6-.18-2.12L520,498l.18-2.12-.07-1.06-.07-1.37v-1.8h1.88l.68,0,.41-.05a5.49,5.49,0,0,1,.81,0C523.94,491.5,524.86,491.41,525,491.43Zm-1.05-7.32-.63.07a2.47,2.47,0,0,1-.81.43l-1-.05-.82-.27-.53,0,0-.44,0-1a8.16,8.16,0,0,1-.37-1,7.55,7.55,0,0,1,.44-.62l-.46-.6,0-.6.38-.6-.25-.6-.29-.59.3-.6-.11-.6-.06-.6.27-.6-.2-.6.15-.6.22-.6-.32-.6.08-.59-.06-.6-.18-.6.2-.6a3.86,3.86,0,0,1-.18-.72l.25-1,.18-.88,0-.25.66-.11,1,0a2.94,2.94,0,0,1,.75-.14,3.28,3.28,0,0,1,.43,0l.15.09.19.11.63-.32.62.21.64-.11h.65l.59.4.61.28.72-.23.67.19a6.53,6.53,0,0,1,.66.31,4.79,4.79,0,0,1,.53.58c.2.13.39.28.58.43a6,6,0,0,1,.54.48,5.11,5.11,0,0,1,.59.45,5,5,0,0,1,.27.7c.2.16.4.33.59.51a6.35,6.35,0,0,1-.09.79c.21.17.44.36.64.55,0,.24,0,.47.05.71a7.29,7.29,0,0,1-.28.7q0,.33,0,.66c.16.21.3.43.44.65l0,.67,0,.68a6.28,6.28,0,0,1-.56.59c0,.22,0,.45-.11.67l.05.74c-.2.18-.42.34-.63.5a4.67,4.67,0,0,1-.09.74,5.39,5.39,0,0,1-.63.43,6.34,6.34,0,0,1-.1.85c-.27.08-.53.16-.79.22l-.39.66a6.63,6.63,0,0,1-.76.11,4.68,4.68,0,0,1-.4.73,5.73,5.73,0,0,1-.84-.21l-.55.45c-.19.17-.38.32-.57.48a5,5,0,0,1-.74-.25l-.64.07-.6.5C524.38,484.45,524.15,484.29,523.93,484.11Zm110.64,3.63c0,.66.09,1.33.13,2l0,2.63.14,2.62-.19,2.63-.25,2.62.16,2.57.18.44.71,2.53c.23.54.18.32.25.43l.17.23h0l-.24,0h-.17l-.65,0-2.63-.08-2.62.32-2.63-.22-2.62-.16-.59.06-.14.05-.41.1h0a2.23,2.23,0,0,1,.27-.34c.09-.12.08,0,.33-.51l.89-2.52.13-.37-.1-2.64.3-2.62-.29-2.63-.24-2.62.37-2.63,0-2.47-.27-.65-1.45-2.23-.63-2.58-1.37-2.27-1-2.43-1-2.44-.78-2.52-1-2.43L616,467.42,614.93,465l-.52-2.63-.45-.71c-.08-.14-.13-.19-.24-.39l-.36-.66-.35-.17.53-.07,2.63-.24,2.62.53,2.63-.46.65.08a2.5,2.5,0,0,1,.5.07c.1.06.15.11.15.16l-.06.87.24.9.13.57.22,1.07,1.35,2.3.63,2.56,1.16,2.37.55,2.6,1.77,4,.92,2.43.6-1.73c.54-1.06,1.16-2.36,1.87-3.91l1-2.8.8-2.5.46-2.62.94-2.45.6-1.17.3-.58.48-1.07v0l-.22-.71a.17.17,0,0,1,0-.24.49.49,0,0,1,.15-.12l.65-.12,2.63.36,2.62-.29,2.62.16.18.31-.32.68-.22.42-.4.76-1,2.42-1,2.44-.63,2.57-1.14,2.38-1.27,2.31-.93,2.46-.83,2.49L636.37,482l-.66,2.57-.41.72-.33.58A15.6,15.6,0,0,0,634.57,487.74Zm-42.71-24.39a8.12,8.12,0,0,1-.17.86,9.26,9.26,0,0,0,.1.93l.09.75.19,1.49-.28,3.65.27,3.66-.39,3.65.27,3.66,0,3.66-.44,3.65,0,3.66.09,3.65.44,3.66,0,2.47.44,1.41.4,1.79c.05.34,0,.3-.07.36v0l-.19,0s0,0-.1,0H591.3l-3.66.47-3.65-.36-1.83.15a1.89,1.89,0,0,0-.45.07l-.35.08-.13,0,.24-.5,0-.1.14-.36.28-.75.62-2.18-.06-1.72v-4.7l-4.53,0-3.65-.28-3.66,0h-3.19v3.08l.37,3.68.08.19.53,1.83.26.88.12.4v.12a.32.32,0,0,1-.06.22,1.11,1.11,0,0,1-.38-.19l-3.66.06-3.65.16-3.42-.19s0,.08-.3.16c-.08,0-.08-.31-.08-.31.1-.18.29-.66.44-1l.37-.84c.08-.2.42-2.21.43-2.37,0-.93-.1-1.87-.13-2.8l0-3.66-.14-3.65.18-3.66.26-3.66-.18-3.66.19-3.65-.18-3.66,0-3.66.07-3.66-.08-.89c0-.36,0-.45-.08-1.07l-.8-1.88-.24-.86c-.06-.24-.19-.68-.17-.68a4.22,4.22,0,0,1,0-.43h0l.45.08,1.74.07,3.66-.2,3.66.27,1.75,0,.24,0h0l0,.24-.43,1.56-.34.83-.17.42-.23.61,0,.66,0,.47-.08.93.29,3.65.25,3.66-.38,3.66,0,3.65.46,3.66-.44,3.66c.07.45.15,2.17.22,3.27l2.6-.15,3.65,0,3.66.05,1.83.14.45,0,.67,0,1.75.07h.58l0-4.67-.42-3.66,0-3.65L583,476l-.44-3.66,0-3.65.4-3.66c0-.22,0-.38-.06-.91-.22-.55-.28-.65-.39-.9l-.31-.68-.62-1.37a2.22,2.22,0,0,0-.28-.56l-.23-.41.37-.08c.17,0,.22.09.4.13l.92.13,1.83.27,3.65-.46,3.66.31.66-.05.13-.05.4-.1a1.77,1.77,0,0,1,0,.24l-.18.26-.36.82Zm-386.44-3.06-.47-.07-.59-.07-.9.28-.88.31a15.78,15.78,0,0,0-1.81.26,15.58,15.58,0,0,0-1.65.78,17.71,17.71,0,0,0-1.59.88c-.58.22-1.16.46-1.74.74s-1.07.64-1.59,1c-.4.51-.77,1-1.11,1.55a18,18,0,0,0-1.24,1.38c-.41.47-.79.95-1.16,1.46s-.84.93-1.24,1.43-.62,1.1-.9,1.66-.51,1.16-.74,1.75-.34,1.22-.47,1.84-.46,1.18-.65,1.79-.08,1.28-.09,1.91c-.21.6-.41,1.21-.59,1.83.1.65.23,1.29.37,1.91,0,.63,0,1.25,0,1.88s-.15,1.26-.18,1.91.14,1.26.24,1.89c.27.59.56,1.17.86,1.74s.4,1.19.63,1.77.43,1.17.68,1.74.24,1.26.39,1.88c.31.56.63,1.1,1,1.62s.83,1,1.27,1.41c.27.58.55,1.14.87,1.7.48.41,1,.8,1.49,1.16s.79,1,1.23,1.44c.59.26,1.19.5,1.79.7.44.44.92.88,1.4,1.28a14.45,14.45,0,0,0,1.79.5,13,13,0,0,0,1.66.86q1,0,1.89-.09c.58.26,1.18.49,1.8.7.63-.05,1.26-.14,1.88-.24a17.87,17.87,0,0,0,1.81-.5,16.63,16.63,0,0,0,1.87,0,15.14,15.14,0,0,0,1.78-.51,17.21,17.21,0,0,0,1.49-1.14,17.21,17.21,0,0,0,1.88-.47,18.38,18.38,0,0,0,1.5-1.13,18.39,18.39,0,0,0,1.14-1.53q.69-.61,1.32-1.29c.47-.41.93-.83,1.37-1.29s.76-1,1.11-1.53.67-1.07,1-1.63.34-1.23.47-1.86c.38-.51.74-1.05,1.09-1.6.06-.65.09-1.3.11-1.95.17-.6.33-1.21.47-1.82s.47-1.19.67-1.81c0-.64,0-1.27-.07-1.91s-.15-1.26-.26-1.87c.09-.62.16-1.25.2-1.89s-.21-1.24-.35-1.85-.26-1.23-.43-1.83-.13-1.27-.23-1.9-.51-1.16-.8-1.72-.37-1.2-.59-1.79-.43-1.2-.68-1.78c-.4-.5-.83-1-1.27-1.43s-.68-1-1.05-1.55-.84-.92-1.29-1.35-1-.78-1.47-1.13-.88-.88-1.35-1.29-1.1-.59-1.67-.85a14.15,14.15,0,0,0-1.51-1.06,16.15,16.15,0,0,0-1.67-.82,16.43,16.43,0,0,0-1.84-.31,16.12,16.12,0,0,0-1.85-.23c-.47,0-.95.08-1.42.06C206.37,460.23,205.53,460.31,205.42,460.29Zm1.61,6.93a9.23,9.23,0,0,1,1.19.55,8.2,8.2,0,0,1,1.17.43,7.8,7.8,0,0,1,1.34.17,8.56,8.56,0,0,1,1.11.66c.33.25.64.52.95.8a11.14,11.14,0,0,1,.52,1.18c.28.29.54.59.79.9a11.91,11.91,0,0,1,.89.85c.11.41.19.81.26,1.22.26.3.51.61.75.94.07.4.13.79.18,1.19.28.31.55.63.82,1,0,.41,0,.83-.07,1.24l.51,1.06-.11,1.2c.21.35.41.72.6,1.1-.14.41-.29.82-.45,1.21.09.39.17.78.24,1.18s.17.8.24,1.2c-.17.39-.35.76-.54,1.12l-.23,1.13.18,1.22c-.28.35-.56.68-.85,1-.09.38-.2.75-.32,1.12s0,.83-.07,1.25-.36.71-.56,1-.53.61-.82.9-.46.65-.71,1-.51.61-.78.9-.37.76-.58,1.12a11.8,11.8,0,0,1-1.2.46,7.59,7.59,0,0,1-.78,1.09,8.13,8.13,0,0,1-1.2.54,8.33,8.33,0,0,1-1.32,0,8.63,8.63,0,0,1-1.2.44,10.56,10.56,0,0,1-1.26.32,10.07,10.07,0,0,1-1.24-.43,8,8,0,0,1-1.27-.19,8.59,8.59,0,0,1-1.23-.45,7.48,7.48,0,0,1-1-.89,11.15,11.15,0,0,1-1.08-.6c-.27-.31-.53-.63-.77-1s-.43-.69-.62-1-.65-.51-1-.79-.39-.7-.56-1.06-.4-.67-.59-1-.44-.67-.64-1-.17-.79-.23-1.18-.35-.72-.51-1.08,0-.81,0-1.2l0-1.17-.31-1.12-.13-1.16a4,4,0,0,1-.17-.9c0-.05-.07-.6,0-.66l.1-.3.13-.36-.23-1.21.36-1.13.06-1.17.23-1.16c.21-.36.43-.7.66-1s.37-.69.57-1c0-.41.08-.82.13-1.23s.36-.71.55-1.05.43-.68.67-1,.61-.55.93-.8.52-.6.8-.89a11.1,11.1,0,0,1,.85-.83,10,10,0,0,1,.85-.88,7.7,7.7,0,0,1,1.18-.52,8.23,8.23,0,0,1,1.08-.74,8,8,0,0,1,1.31.07,9.54,9.54,0,0,1,1.2-.59A10.71,10.71,0,0,1,207,467.22ZM100.64,491.43l.5.06.64.07,1-.28.95-.33a18.7,18.7,0,0,0,2-.29,16.32,16.32,0,0,0,1.8-.83,14.88,14.88,0,0,0,1.72-.92,15.39,15.39,0,0,0,1.81-.81,15.21,15.21,0,0,0,1.59-1.18,12.47,12.47,0,0,0,1-1.74,14.65,14.65,0,0,0,1-1.64,15.65,15.65,0,0,0,.85-1.75,13.46,13.46,0,0,0,.84-1.8,18,18,0,0,0,.34-2,16.81,16.81,0,0,0,.09-2l-.23-2c0-.68,0-1.36-.09-2a18.29,18.29,0,0,0-.72-1.88,12,12,0,0,0-.31-2,13.89,13.89,0,0,0-1.29-1.53A12.64,12.64,0,0,0,113,465a9.58,9.58,0,0,0-1.14-1.58,12.18,12.18,0,0,0-1.6-1.14,12.12,12.12,0,0,0-2-.42,13.34,13.34,0,0,0-1.88-.5c-.63-.18-1.3-.24-1.94-.37l-2-.65h-2l-2.12.27-2.12-.38-2.12.27L92,460.19l-2.12.47-2.12-.39-2.12.27c-.27-.1-.3.24-.15.21,0,.59.14,1.41.21,2.1l.3.6c.1.19.19.36.37.76s.06.7.09,1l.33,2.12-.4,2.12,0,2.12.44,2.12-.55,2.12,0,2.12.41,2.12,0,2.12-.27,2.12-.06,2.12,0,2.12.37,2.12-.44,2.12.46,2.12,0,2.12-.38,2.12.25,2.12.09.68a8.3,8.3,0,0,1,.1.92c-.17.57-.18.7-.25,1l-1,1.89c-.14.46-.12.44-.12.5a.49.49,0,0,0,0,.13v0l.23-.05c-.12,0,.48.09.77.13l1.06.14,2.12-.21,2.12.16,2.12.22,2.12-.32a4.45,4.45,0,0,1,1,.08l.12,0-.16-.3-.07-.08-.21-.44-.44-1-.23-.84c-.09-.33-.1-.43-.29-1l0-.6-.18-2.12.26-2.12.18-2.12-.07-1.06-.07-1.37v-1.8H97.6l.68,0,.41-.05a5.49,5.49,0,0,1,.81,0C99.59,491.5,100.52,491.41,100.64,491.43Zm-1-7.32-.63.07a2.58,2.58,0,0,1-.81.43l-1-.05-.82-.27-.53,0,0-.44,0-1c-.12-.28-.24-.6-.37-1,.15-.24.3-.41.44-.62l-.46-.6,0-.6.38-.6-.25-.6-.29-.59.3-.6-.11-.6-.06-.6.27-.6-.21-.6.16-.6.22-.6-.32-.6.08-.59-.06-.6-.18-.6.19-.6a3.86,3.86,0,0,1-.18-.72l.26-1,.18-.88,0-.25.66-.11,1,0a2.94,2.94,0,0,1,.75-.14,3.13,3.13,0,0,1,.42,0l.16.09L99,468l.63-.32.62.21.64-.11h.64l.6.4.6.28.73-.23.67.19a6.53,6.53,0,0,1,.66.31,5.78,5.78,0,0,1,.53.58,6.07,6.07,0,0,1,.57.43,5,5,0,0,1,.55.48,6.14,6.14,0,0,1,.59.45,6.71,6.71,0,0,1,.27.7,7,7,0,0,1,.58.51,6.4,6.4,0,0,1-.08.79c.21.17.43.36.63.55,0,.24,0,.47.06.71s-.18.48-.28.7,0,.44,0,.66c.16.21.29.43.43.65l.06.67-.06.68a5.12,5.12,0,0,1-.55.59c0,.22,0,.45-.11.67l0,.74c-.21.18-.43.34-.63.5a3.76,3.76,0,0,1-.1.74,4.66,4.66,0,0,1-.63.43,6.3,6.3,0,0,1-.09.85l-.79.22-.39.66a7,7,0,0,1-.76.11,5.68,5.68,0,0,1-.4.73,5.43,5.43,0,0,1-.84-.21l-.56.45c-.18.17-.37.32-.56.48a4.6,4.6,0,0,1-.74-.25l-.65.07-.59.5A7,7,0,0,1,99.59,484.11ZM310,460.29l-.47-.07-.59-.07-.91.28-.87.31a16,16,0,0,0-1.82.26,16.4,16.4,0,0,0-1.64.78,17.71,17.71,0,0,0-1.59.88c-.58.22-1.17.46-1.74.74s-1.08.64-1.59,1c-.4.51-.77,1-1.12,1.55s-.84.9-1.23,1.38a18.11,18.11,0,0,0-1.16,1.46c-.43.46-.84.93-1.24,1.43s-.62,1.1-.9,1.66-.52,1.16-.74,1.75-.34,1.22-.48,1.84-.45,1.18-.64,1.79-.08,1.28-.09,1.91c-.22.6-.41,1.21-.59,1.83.1.65.22,1.29.37,1.91,0,.63-.05,1.25,0,1.88s-.15,1.26-.19,1.91.15,1.26.25,1.89c.27.59.56,1.17.86,1.74s.4,1.19.63,1.77.43,1.17.68,1.74c.1.62.23,1.26.39,1.88.31.56.63,1.1,1,1.62s.83,1,1.27,1.41c.26.58.55,1.14.87,1.7.48.41,1,.8,1.49,1.16s.79,1,1.23,1.44c.59.26,1.18.5,1.79.7.44.44.92.88,1.4,1.28a14.31,14.31,0,0,0,1.78.5,14.48,14.48,0,0,0,1.66.86c.64,0,1.28,0,1.9-.09.58.26,1.18.49,1.8.7.63-.05,1.26-.14,1.88-.24a17.68,17.68,0,0,0,1.8-.5,16.8,16.8,0,0,0,1.88,0,15.71,15.71,0,0,0,1.78-.51c.52-.36,1-.74,1.49-1.14a16.5,16.5,0,0,0,1.87-.47,6.61,6.61,0,0,0,2.65-2.66q.69-.61,1.32-1.29c.47-.41.93-.83,1.37-1.29s.76-1,1.11-1.53.67-1.07,1-1.63.34-1.23.47-1.86c.38-.51.74-1.05,1.08-1.6.06-.65.1-1.3.11-1.95.18-.6.34-1.21.47-1.82s.48-1.19.68-1.81c0-.64,0-1.27-.08-1.91s-.14-1.26-.25-1.87c.09-.62.15-1.25.2-1.89-.1-.62-.21-1.24-.35-1.85s-.27-1.23-.43-1.83-.14-1.27-.23-1.9c-.25-.59-.52-1.16-.8-1.72s-.38-1.2-.6-1.79-.42-1.2-.67-1.78c-.41-.5-.83-1-1.27-1.43s-.68-1-1.06-1.55a18.09,18.09,0,0,0-1.28-1.35c-.48-.4-1-.78-1.48-1.13a16.53,16.53,0,0,0-1.35-1.29c-.54-.3-1.09-.59-1.66-.85a14.15,14.15,0,0,0-1.51-1.06,17.21,17.21,0,0,0-1.67-.82,43.16,43.16,0,0,0-3.69-.54c-.47,0-.95.08-1.43.06C311,460.23,310.14,460.31,310,460.29Zm1.61,6.93a9.89,9.89,0,0,1,1.19.55,8.2,8.2,0,0,1,1.17.43,7.8,7.8,0,0,1,1.34.17,9.28,9.28,0,0,1,1.11.66c.33.25.64.52.95.8s.37.78.52,1.18.54.59.79.9.6.55.89.85c.11.41.18.81.25,1.22.26.3.51.61.76.94.07.4.13.79.17,1.19.29.31.56.63.82,1,0,.41,0,.83-.07,1.24l.52,1.06-.11,1.2c.21.35.41.72.6,1.1-.14.41-.29.82-.45,1.21.09.39.17.78.24,1.18s.17.8.24,1.2c-.17.39-.35.76-.54,1.12l-.23,1.13.17,1.22q-.41.52-.84,1c-.1.38-.21.75-.33,1.12s0,.83-.06,1.25-.36.71-.56,1-.54.61-.82.9-.46.65-.72,1a10.92,10.92,0,0,1-.78.9,11.78,11.78,0,0,1-.57,1.12,11.8,11.8,0,0,1-1.2.46,7.59,7.59,0,0,1-.78,1.09,9.18,9.18,0,0,1-1.2.54,8.45,8.45,0,0,1-1.33,0,8.06,8.06,0,0,1-1.19.44,10.56,10.56,0,0,1-1.26.32,10.07,10.07,0,0,1-1.24-.43,8.07,8.07,0,0,1-1.28-.19,9.06,9.06,0,0,1-1.23-.45,7.39,7.39,0,0,1-1-.89,11.15,11.15,0,0,1-1.08-.6,11.56,11.56,0,0,1-.77-1c-.23-.34-.43-.69-.62-1s-.65-.51-1-.79-.39-.7-.56-1.06-.4-.67-.59-1-.44-.67-.64-1-.17-.79-.23-1.18-.35-.72-.51-1.08,0-.81,0-1.2l0-1.17-.3-1.12-.13-1.16a3.49,3.49,0,0,1-.17-.9c0-.05-.07-.6-.05-.66l.1-.3.14-.36-.23-1.21.35-1.13.07-1.17.23-1.16c.21-.36.43-.7.66-1s.37-.69.57-1c0-.41.07-.82.13-1.23s.35-.71.55-1.05.43-.68.66-1,.62-.55.93-.8.52-.6.8-.89.56-.57.85-.83a10.12,10.12,0,0,1,.86-.88,7.7,7.7,0,0,1,1.18-.52,7.61,7.61,0,0,1,1.08-.74,8.1,8.1,0,0,1,1.31.07,9.54,9.54,0,0,1,1.2-.59A10.9,10.9,0,0,1,311.64,467.22Zm-36.44,1.2c-.05,0,.2.15-.84-.35l-.57-.24-.84-.38-.92,0-.61,0-2.45-.19-2.46.34-.77-.11-.61-.09a12.8,12.8,0,0,0-2.12,1.73c0,.62.09,1.25.13,1.87l0,2.46.14,2.46-.18,2.46-.25,2.45.18,2.46-.2,2.45.18,2.46.06,2.45-.08,2.46.32,2.46-.22,2.45-.15,2.46.16,2.12.23.62.46,2.43c.17.53.15.42.18.48l.08.16h0a.32.32,0,0,1-.13.05l-.1,0-.55,0-2.45-.3-2.46.29-2.46.25-2.45-.38a3.49,3.49,0,0,1-.51,0l-.09,0,0,0a.16.16,0,0,1-.22-.05.52.52,0,0,1-.07-.15.6.6,0,0,0,0-.12l.05-.3,1.25-2.16,0-.25.13-.46,0-.45,0-.25-.08-.49-.14-1,0-2.46.05-2.45.27-2.46,0-2.45-.42-2.46-.05-2.46.55-2.45-.43-2.46,0-2.45.4-2.46-.33-2.45-.24-2.46.13-.61a5.31,5.31,0,0,0,.14-.8l.26-2.45-2.45.23a5.84,5.84,0,0,0-.8.12l-.62.11-2.45-.31-2.46.27-.48-.08-.81-.07-.59.29-.38.17-.7.29-.46.42c-.11.11,0,.12-.1.2a2.18,2.18,0,0,1-.34.48.44.44,0,0,1-.17,0,2.89,2.89,0,0,1,.19-.62.22.22,0,0,1-.07-.09c0-.05,0,0-.07-.3l-.13-1.23.38-2.45-.27-2.46,0-1.22,0-.62a.26.26,0,0,1,.1-.07.82.82,0,0,1,.3.17.21.21,0,0,1,.06.08c.08,0,.3.06.44.09l2.45,0,2.46-.09,2.45-.44,2.46.05,2.45.36,2.46.07,2.45-.48,2.45.36,2.46-.29,2.45.16,2.46-.15h2.45l2.46,0,.61.07a3,3,0,0,1,.46.07c.09.05.14.09.15.14h0l0,.17,0,1v2.46l.38,2.45-.08,1.23-.05.56,0,.15c-.08.11-.15.12-.22.06A.69.69,0,0,1,275.2,468.42Zm-107.68-5.07c-.05.25-.05.36-.17.86a7,7,0,0,0,.1.93l.09.75.19,1.49-.29,3.65.27,3.66-.38,3.65.27,3.66.05,3.66-.44,3.65,0,3.66.08,3.65.45,3.66,0,2.47.44,1.41.4,1.79c.05.34,0,.3-.07.36v0l-.18,0s0,0-.1,0H167l-3.66.47-3.65-.36-1.83.15a2.19,2.19,0,0,0-.46.07l-.34.08-.13,0,.24-.5.05-.1.13-.36.29-.75.62-2.18-.06-1.72v-4.7l-4.53,0L150,496l-3.65,0h-3.19v3.08l.36,3.68.09.19.53,1.83.26.88.12.4v.12c0,.12,0,.19-.07.22a1.14,1.14,0,0,1-.37-.19l-3.66.06-3.65.16-3.42-.19s0,.08-.3.16c-.08,0-.08-.31-.08-.31.09-.18.29-.66.44-1l.36-.84a23.76,23.76,0,0,0,.43-2.37c0-.93-.09-1.87-.13-2.8l0-3.66-.14-3.65.18-3.66.26-3.66-.18-3.66.19-3.65-.18-3.66-.06-3.66.08-3.66-.08-.89c0-.36-.05-.45-.08-1.07l-.8-1.88-.24-.86c-.06-.24-.19-.68-.17-.68a1.77,1.77,0,0,1,0-.43h0l.44.08,1.75.07,3.66-.2,3.65.27,1.75,0,.25,0h0l0,.24-.43,1.56-.35.83-.17.42-.23.61,0,.66,0,.47-.08.93.29,3.65.25,3.66-.38,3.66,0,3.65.46,3.66-.44,3.66c.07.45.14,2.17.22,3.27l2.59-.15,3.66,0,3.66.05,1.82.14.46,0,.67,0,1.75.07h.58l0-4.67-.42-3.66,0-3.65.56-3.66-.44-3.66,0-3.65.4-3.66c0-.22,0-.38-.06-.91-.22-.55-.28-.65-.39-.9l-.31-.68-.62-1.37a3.43,3.43,0,0,0-.28-.56l-.23-.41.37-.08c.17,0,.22.09.4.13l.92.13,1.82.27,3.66-.46,3.66.31.65-.05.14-.05.4-.1a1.77,1.77,0,0,1,0,.24,2.21,2.21,0,0,1-.19.26l-.35.82Z"/><path class="cls-1" d="M375.07,371.77a5.07,5.07,0,0,1,.57,1.06l1,2.19,5,7.32,3.74,7.8,4.5,7.38,4.27,7.5,3.43,8,3.77,7.78,1.31,1.87a1.73,1.73,0,0,0,.5.4,2.16,2.16,0,0,0,.48-.23l2-.22,8.64,0,8.63.12,8.63.69,6.17.07,1.7,0-.87-.86-1.19-.92a3.35,3.35,0,0,1-.32-.25l-.79-.73-1.59-1.46-5.83-6.38c-.34-.29-.62-.52-1.28-1.12l-.68-1.07-.51-.76-1-1.52-2-3-3.42-8-5.24-7-4-7.64-3.42-8-3.94-7.29,4.44-1.73c.48-.26,1.08-.54,1.51-.8l.86-.57c.57-.37,1.12-.79,1.67-1.18a37.28,37.28,0,0,0,3.1-2.59,33.8,33.8,0,0,0,5.74-5.33,34.74,34.74,0,0,0,4.47-6.4,44.12,44.12,0,0,0,4.24-6.93,47.51,47.51,0,0,0,1.77-8,56.21,56.21,0,0,0-.08-8.21c.15-2.77.57-5.6.48-8.39-.28-1.37-.49-2.76-.83-4.1l-1.11-4c-.11-1.38-.49-2.69-.72-4.05-.15-.67-.25-1.36-.42-2l-.61-2a38.34,38.34,0,0,0-4.67-6.66c-.63-1.15-1.2-2.37-1.91-3.51l-2.32-3.31-3.27-2.37c-1.11-.74-2.34-1.32-3.48-2a33.63,33.63,0,0,0-3.33-2.27,26.63,26.63,0,0,0-3.59-2,28.94,28.94,0,0,0-4.07-.77c-1.38-.15-2.71-.4-4.09-.47a68.89,68.89,0,0,0-8-2.54c-2.8-.17-5.63.09-8.42.17l-8.62.8-8.64-1-8.63-.09-8.63,1.09-8.64-1.38-7.64.12c-.37.15-.59.3-.65.45.41.55.74.85,1,.9l2.78,7.82.52,1.82c.19.63.28,1,.71,2.32l0,1.11,0,.65-.09,1.22-.19,2.43-.14,8.64-.1,8.63.92,8.64-1.1,8.63,1.15,8.64-.1,8.64-.95,8.63.62,8.64.73,8.63-.76,8.64.27,8.63.15,8.63-.67,8.64.12,1.93c0,.69.07,1,.11,2.43L333.5,412l-.34,1.15-.68,2.3-1.65,4-.83,2-.19.46-.06.11-.14.23c-.18.27-.38.61-.61,1a12,12,0,0,0,1.52.33l8.57-.79,8.64.19,8.64-.14,8.63-.45,2.05.11.95.06.13.06a7.29,7.29,0,0,0,.85.23v-.06a6.67,6.67,0,0,0-.51-.75c0-.05,0,0-.08-.13l-.21-.5-.42-1-.84-2-1.07-3.81-.53-1.9c-.2-.7-.28-1.05-.7-2.37l.05-1.24.46-8.64-.35-8.64-.06-8.65c-.09-2.19-.38-4.4-.33-6.59,0-.4,3.61-4.35,4.17-4.71a2.65,2.65,0,0,1,1.64-.21l3.74.05ZM372,348l-.91-.33-1.53-.33-3-.15-1.58,0,0-1.44a28.57,28.57,0,0,1-.91-2.75l.55-1.75a8.43,8.43,0,0,1,.54-1l-1.15-1.82.11-1.81.95-1.82-.63-1.82-.72-1.82.75-1.81-.27-1.82-.15-1.82.67-1.81-.51-1.82.38-1.82.56-1.81-.79-1.82.18-1.82-.13-1.82-.45-1.81.48-1.82-.45-1.82.63-3.09.46-2.75,0-.27,2.56-.32,3.13-.06c.71-.09,1-.38,1.51-.32a8.52,8.52,0,0,1,1-.13l.46.23.59.28,1.87-.81,1.85.54,1.9-.3h1.9l1.81,1,1.83.67c.67-.22,1.36-.43,2.06-.63.64.12,1.29.25,1.95.4s1.29.41,1.94.66c.59.43,1.17.88,1.74,1.38a15.74,15.74,0,0,1,1.88,1.07,13.63,13.63,0,0,1,1.77,1.27,14.86,14.86,0,0,1,1.82,1.27,15.09,15.09,0,0,1,1,2,18.43,18.43,0,0,1,1.7,1.5,20.87,20.87,0,0,1,0,2.23q.91.7,1.8,1.53c.15.68.27,1.37.36,2.06-.14.74-.3,1.46-.5,2.16,0,.67.07,1.34.06,2,.41.64.8,1.31,1.16,2,.07.68.1,1.36.13,2.05s-.1,1.36-.17,2c-.47.63-.94,1.23-1.44,1.8q-.15,1-.36,1.95c0,.7.06,1.4.05,2.11-.52.53-1.06,1-1.61,1.54a20.37,20.37,0,0,1-.3,2.14,19.08,19.08,0,0,1-1.7,1.42,15.16,15.16,0,0,1-.42,2.42,15.18,15.18,0,0,1-2.26.86,14.45,14.45,0,0,1-1.35,1.86,17.72,17.72,0,0,1-2.22.37,23,23,0,0,1-1.42,1.91c-.81-.16-1.59-.34-2.35-.57-.56.4-1.14.75-1.73,1.13s-1.15.84-1.75,1.23c-.72-.19-1.41-.42-2.1-.64l-1.91.16-1.79,1.27c-.68-.41-1.35-.81-2-1.24l-1.86.2-1.86,1.08ZM591.14,422.9l-1.68-.16c.45-1.54.84-3.11,1.31-4.65l2.62-7.75v-2.28L593,398.5l.46-9.57.63-9.57-.45-9.56.48-9.56-.45-9.57-.14-9.56.19-9.57L593,322l.56-9.56.38-9.56-.51-9.57.15-2.19.08-1.09.07-1.61-.34-1.11-.18-.62-.34-1.25-.7-2.51-1.68-4.47-.74-2-.14-.29-.21-.38.49-.1c.15,0,.1,0,.43-.05l1.77-.05,9.56.76,9.56-.73,9.56-.62,9.56.95,9.57.1,9.56-1.15L659,276l9.56-.92,4.79.05,2.52.05h.1l0,.75,0,.36,0,1-.07,4.62-.66,9.56L675,301l.19,1.78,0,.22s0,0,0,0l.05.06.1.17a6.15,6.15,0,0,1,.39,1.16,2.09,2.09,0,0,1-.55.1l-.8-.24-2.12-.69-4.54-1.48L665.49,301l-1.16-.58-.57-.3-1-.45-1-.08-.6-.08-1.11-.16-2.22-.32-9.56,1.09-9.56-.09-4.78-.5c-1.8-.17-2.44-.33-6.35-.5l-3.95.18.32,7.19.32,3.75.61,9.56-1.33,9.56,1.15,9.71-.28,5.93,5.26.25,1.23.07.77.06,1.53.13,9.57-.69,9.55,1,.62-.07,1.08-.07.93-.39c.31-.13.36-.17.56-.26l.95-.47,1.9-.93,3.71-1.83a6.26,6.26,0,0,1,1.38-.09,9.62,9.62,0,0,1-.34,1.3.93.93,0,0,1,0,.14l0,.6.08,1.2.17,2.39.34,4.78-1,9.55.11,1.63q.06.12.12.27c.07.22.15.5.23.85a3.42,3.42,0,0,1-.62,0l-7.91-2.23c-.2-.1-.69-.28-1.19-.47l-.92-.06-.54-.06L651,361.4l-2.16-.25-4.33-.5-9.56.05-3.95.09-7.32.09,0,3.2.13,2.32c0,.71.1,1.65.14,1.9l.28,2.39.55,4.78-.14,9.56-.44,4.78-.22,2.38-.22,4.5,0,2.45,11.55.16,9.56-1.19,9.56.9,9.56-.74,4.3.16,5.89-2.43.91-.46a2.78,2.78,0,0,0,.3-.18l.49-.31,1.23-.73v.38l-1,5.83-1.73,9.4L672,419.22l-.57,3-.11.35-.2,0h-.49l-9.56,0-9.56.95-9.56-.44-9.56-.82-9.56.14-9.56.4-9.56-.48-9.56.85Zm-119.33,0-1.68-.16c.45-1.54.85-3.11,1.31-4.65l2.63-7.75v-2.28l-.36-9.56.46-9.57.64-9.57-.46-9.56.49-9.56-.45-9.57-.14-9.56.19-9.57-.8-9.56.56-9.56.38-9.56-.51-9.57.15-2.19.08-1.09.08-1.61-.35-1.11-.17-.62-.35-1.25-.7-2.51-1.67-4.47-.75-2-.14-.29-.21-.38.49-.1c.15,0,.1,0,.43-.05l1.77-.05,9.56.76,9.56-.73,9.56-.62L511,276l9.56.1,9.56-1.15,9.56,1.1,9.57-.92,4.78.05,2.52.05h.1l0,.75,0,.36v1l-.07,4.62-.67,9.56L555.7,301l.19,1.78,0,.22a.12.12,0,0,0,0,0l0,.06.1.17a6.15,6.15,0,0,1,.39,1.16,2.09,2.09,0,0,1-.55.1l-.8-.24-2.11-.69-4.55-1.48L546.16,301l-1.15-.58-.58-.3-1-.45-1-.08-.59-.08-1.12-.16-2.21-.32-9.56,1.09-9.57-.09-4.78-.5c-1.79-.17-2.44-.33-6.35-.5l-3.95.18.32,7.19.32,3.75.61,9.56-1.33,9.56,1.15,9.71-.28,5.93,5.26.25,1.23.07.77.06,1.54.13,9.56-.69,9.56,1,.61-.07,1.09-.07.92-.39c.32-.13.36-.17.56-.26l1-.47,1.9-.93,3.71-1.83a6.26,6.26,0,0,1,1.38-.09,8.31,8.31,0,0,1-.34,1.3c0,.05,0,0,0,.14l0,.6.09,1.2.16,2.39.34,4.78-.95,9.55.11,1.63.12.27a7.53,7.53,0,0,1,.23.85,3.42,3.42,0,0,1-.62,0l-7.91-2.23c-.2-.1-.69-.28-1.19-.47l-.92-.06-.54-.06-1.08-.13-2.17-.25-4.33-.5-9.56.05-4,.09-7.32.09,0,3.2.14,2.32c0,.71.09,1.65.13,1.9l.28,2.39.55,4.78-.14,9.56-.44,4.78-.22,2.38-.22,4.5,0,2.45,11.54.16,9.56-1.19,9.56.9,9.56-.74,4.3.16,5.9-2.43.9-.46a2,2,0,0,0,.3-.18l.49-.31,1.23-.73v.38l-1,5.83-1.73,9.4-2.35,9.29-.57,3-.1.35-.21,0h-.49l-9.55,0-9.57.95-9.56-.44-9.56-.82-9.56.14-9.56.4-9.56-.48-9.56.85Zm-176.46-.73a.53.53,0,0,1-.13.31v.09l-.31,0-.13,0h-.06s0,0-.28,0l-5.29-.09-11.57,1.2L266,422.7l-5.79.37-1.45.09-.72,0-.23.05-1,.18-.43-.05.69-1.54,1.74-4.75,2-6.79-.16-5.33,0-13.78v-.47l-13.69-.07L235.35,390l-11.57-.12h-9.25v8.87l.92,11.56.24.62,3.35,11a1.56,1.56,0,0,1-.09.8,2.57,2.57,0,0,1-.63-.23.49.49,0,0,1-.15-.12l-1.57-.12-11.57.14-11.58.4-11.58-.48-.46,0c-.19,0-.09.05-.18.09a2.55,2.55,0,0,1-.68.28,1.17,1.17,0,0,1-.12-.61,6,6,0,0,1,.23-1.14l1.4-3.39,1.11-2.67c.27-.64,1.91-3.84-1.68-5h0v-.08l.28-.08a11.49,11.49,0,0,0,1.54-.53c.94-.43,1.2-1,1.21-1.52.06-2.94-.23-5.9-.32-8.84l-.06-11.59-.36-11.58.46-11.59.64-11.58-.46-11.58.49-11.58-.45-11.58-.14-11.58.19-11.58-.2-2.84-.1-1.43,0-.71-.05-1.14-.43-1.09-.28-.68-.57-1.37-1.14-2.72-1.55-5.41a3.83,3.83,0,0,1-.18-.76l-.06-.38-.06-.61h.1l.74.1.31.05h.4l.72,0,5.79.19,11.58-.51,11.58.68,5.79-.08H218l.18,0,.4,0h0l0,.34,0,.21v.11l-.19.65-1.58,5.44-1,2.66-.51,1.33-.26.66-.41,1.15-.05,1.24,0,.73-.09,1.47-.2,2.94.73,11.58.62,11.58-1,11.58-.1,11.58,1.15,11.58-1.1,11.58.27,3.61.27,6,4.22-.19,2-.09,1.26-.1,11.57.1,11.58.14,5.79.33,2.9.17,5.32.17h1.83l.12-13.93-1.05-11.58-.12-11.58,1.37-11.57-1.08-11.58.09-11.58,1-11.58-.08-1.06-.07-1.65-.42-1.07-.25-.57-.47-1.09-.93-2.18-1.88-4.35a29.35,29.35,0,0,0-1.82-4l1.25-.2c.25.05.31.11.66.17l1.45.16,2.89.33,5.79.67,11.58-1.15,11.57.78,2.09-.12,1-.06.26,0h.06l.11,0a9.75,9.75,0,0,1,1.18-.25c0,.21,0,.48-.05.81l-.25.42a3.66,3.66,0,0,0-.22.5l-.27.67-1.08,2.7-2.16,5.39-.21,1.06-.11.54-.24,1,.06,1.07.06.59.12,1.18.24,2.36.47,4.71-.71,11.58.67,11.58-.95,11.57.67,11.57.12,11.58-1.11,11.58,0,11.57.22,11.57,1.11,11.58-.09,7.74,1.37,4.36,1.38,5.64.35,1.41c.08.31.07.35.06.37ZM115.9,302.77c-.55.11-1.11.22-1.55.35-.93.29-1.19.66-1.2,1-.06,2,.23,4,.32,5.94l.06,7.78.35,7.78-.45,7.78-.64,7.78.45,7.77-.48,7.78.45,7.78.14,7.78-.19,7.77.79,7.78-.55,7.78-.38,7.77.2,3.1.1,1.55.1,2,.68,1.86,1.63,7.64.59,1.81.25.75,0,.09.23.48h0a2.92,2.92,0,0,1-.48.14,1.11,1.11,0,0,1-.23,0l-1,0-1.94.06-7.77-.75-7.78.72-7.78.63-7.77-.95-2,0h-.92l-.3-.06,0,0c-.39,0-.9.28-.1-3l3.68-6.94.18-.79c.05-.22.26-.89.37-1.3l-.09-1.32-.09-.77-.18-1.54-.36-3.09.09-7.77.14-7.78.67-7.77.12-7.78-1-7.77-.12-7.78,1.37-7.77-1.09-7.78.1-7.77,1-7.78-.82-7.77-.61-7.78.67-3.88a7,7,0,0,0,.08-.7l.09-.9.16-1.85c.11-1.26.24-2.61.32-4l-4,.29-1.86.14-.9.07-.45,0-.24,0-3.89.57-7.77-.78-7.78.68c-1.11-.12-1.68-.25-3.87-.38l-1.77.92-1.08.49-2.16,1-3,2.54a6.81,6.81,0,0,1-1,1.27,2.25,2.25,0,0,1-.61.08,9.79,9.79,0,0,1,.46-1.74l-.08-.16,0-.09-.05-.47-.16-1.95-.34-3.88,1-7.78-.67-7.77-.06-3.89,0-1.94,0-.66a.93.93,0,0,1,.25-.31,2.72,2.72,0,0,1,.83.42c.07,0,0,.08.18.11l.75.11,1.5.21,7.77-.05,7.77-.22,7.77-1.1,7.78.14,7.77.88,7.77.19,7.77-1.2,7.78.9,7.77-.73,7.77.39,7.77-.37,7.77,0,7.77.07,3.89.34c.43,0,.41.06.48.09l.16.08a.47.47,0,0,1,.19.18h0l0,.27v.19a.77.77,0,0,0,0,.21l-.06,3.82,0,7.78.95,7.77-.22,3.89-.11,1.94c0,.56-.07,1.56-.11,1.5-.19.41-.37.55-.56.41a1.8,1.8,0,0,1-.31-.44h-.1l-.39-.19-3.51-1.68-1.79-.78-.9-.4-1.58-.73-1.73.05-1,0-1.93.1-7.78-.47-7.77.84-2.46-.28L119,299.5C118.58,299.44,116,302.75,115.9,302.77Z"/><path class="cls-1" d="M338.58,186.88l-.46-.07-.6-.07-.9.28-.88.31a14.09,14.09,0,0,0-1.81.26,14.54,14.54,0,0,0-1.64.78,17.71,17.71,0,0,0-1.59.88c-.59.22-1.17.46-1.74.73s-1.08.65-1.6,1-.77,1-1.11,1.55-.84.9-1.24,1.38-.79,1-1.16,1.46a18.86,18.86,0,0,0-1.23,1.43c-.33.54-.63,1.1-.91,1.66s-.51,1.16-.73,1.75-.34,1.22-.48,1.84-.45,1.18-.65,1.79-.08,1.28-.08,1.91q-.33.9-.6,1.83c.11.65.23,1.29.38,1.91,0,.63-.05,1.25-.05,1.87s-.14,1.27-.18,1.92.14,1.26.25,1.88c.27.6.55,1.18.86,1.75s.4,1.19.62,1.77.44,1.17.69,1.74c.1.62.23,1.25.39,1.88s.63,1.1,1,1.62.83,1,1.27,1.41c.27.58.56,1.14.88,1.7.48.41,1,.8,1.48,1.16s.8,1,1.23,1.44c.59.26,1.19.5,1.79.7.44.44.92.88,1.4,1.28a14.45,14.45,0,0,0,1.79.5,13.7,13.7,0,0,0,1.66.86,17.15,17.15,0,0,0,1.9-.1,16,16,0,0,0,1.8.71c.63-.05,1.26-.14,1.87-.25a15,15,0,0,0,1.81-.49,16.8,16.8,0,0,0,1.88,0,13.78,13.78,0,0,0,1.77-.52,14.21,14.21,0,0,0,1.49-1.13,16.66,16.66,0,0,0,1.88-.47c.52-.35,1-.73,1.51-1.13a18.39,18.39,0,0,0,1.14-1.53c.46-.41.89-.84,1.31-1.29s.93-.83,1.38-1.29.76-1,1.1-1.53.67-1.07,1-1.63.33-1.24.46-1.86c.38-.51.75-1,1.09-1.6.06-.65.1-1.31.11-1.95.18-.6.33-1.21.47-1.82s.47-1.19.68-1.81c0-.64,0-1.27-.08-1.91s-.14-1.26-.25-1.87c.09-.62.15-1.25.19-1.89s-.21-1.24-.35-1.85-.26-1.23-.42-1.83-.14-1.27-.24-1.9-.51-1.16-.8-1.72-.37-1.2-.59-1.79-.42-1.2-.67-1.78c-.41-.5-.83-1-1.27-1.43s-.69-1.05-1.06-1.55-.84-.92-1.28-1.35-1-.78-1.48-1.13-.88-.88-1.35-1.29-1.1-.59-1.66-.85a14.27,14.27,0,0,0-1.52-1.06,13.61,13.61,0,0,0-1.67-.82,42.17,42.17,0,0,0-3.68-.54c-.48,0-1,.08-1.43,0C339.54,186.82,338.69,186.9,338.58,186.88Zm1.62,6.93a9.89,9.89,0,0,1,1.19.55,5.49,5.49,0,0,0,2.51.59,12.1,12.1,0,0,1,1.11.67c.32.25.64.52.94.79a12.28,12.28,0,0,1,.52,1.19c.28.29.54.59.79.9s.61.55.9.85c.1.41.18.81.25,1.22.26.3.51.61.75.94.07.4.14.79.18,1.19.28.31.56.63.82,1,0,.41,0,.83-.07,1.23l.51,1.07-.11,1.2c.21.35.41.72.61,1.1-.14.41-.29.82-.46,1.21a11.74,11.74,0,0,1,.24,1.18c.1.4.18.8.25,1.2-.17.38-.35.75-.54,1.12l-.24,1.13.18,1.22q-.4.53-.84,1c-.1.38-.21.75-.33,1.12s0,.83-.06,1.25q-.27.54-.57,1.05t-.81.9q-.35.5-.72,1t-.78.9a10.83,10.83,0,0,1-.58,1.12,10.81,10.81,0,0,1-1.19.46,9.55,9.55,0,0,1-.78,1.09,9.18,9.18,0,0,1-1.2.54,8.45,8.45,0,0,1-1.33,0,8.18,8.18,0,0,1-1.2.44,10.56,10.56,0,0,1-1.26.32,10.68,10.68,0,0,1-1.24-.43,9.27,9.27,0,0,1-1.27-.19,9.06,9.06,0,0,1-1.23-.45,7.39,7.39,0,0,1-1-.89c-.39-.2-.73-.39-1.09-.61a11.82,11.82,0,0,1-.77-.95,11,11,0,0,1-.61-1.05,11.69,11.69,0,0,1-1-.78,10.72,10.72,0,0,1-.56-1.06c-.21-.33-.41-.67-.59-1s-.44-.67-.65-1-.16-.79-.22-1.18-.36-.72-.52-1.09,0-.8,0-1.19l0-1.17-.31-1.12-.13-1.16a4,4,0,0,1-.16-.9s-.07-.6-.05-.66l.1-.3.13-.36-.23-1.21.36-1.13.07-1.17.22-1.16c.21-.36.43-.7.66-1s.37-.7.58-1c0-.41.07-.82.13-1.23s.35-.71.54-1.05.44-.68.67-1,.61-.55.93-.8.52-.6.8-.89a11.1,11.1,0,0,1,.85-.83,10.12,10.12,0,0,1,.86-.88,7.59,7.59,0,0,1,1.17-.52,9,9,0,0,1,1.08-.74,8,8,0,0,1,1.31.07,10.27,10.27,0,0,1,1.2-.59A10.88,10.88,0,0,1,340.2,193.81Zm48,15.59h0l-.07,0h0c-.22.05-.44.1-.62.16-.37.13-.47.3-.48.47,0,.9.1,1.8.14,2.7l0,3.55.16,3.54-.17,3.54L386.9,227l.12,2.44.52,1.4.45,1.71.06.21v.07s0,.05,0,.05l0,0s0,.06-.1.08a7.68,7.68,0,0,1-1.14.08l-3.54.06-3.54-.08-1.78.16-.88.08c-.2,0-.24.05-.39.08l-.39-.08c.18-.35.24-.38.44-.78l1.25-3.07,0-.67-.21-3.54.27-3.54-.06-3.54-.11-3.54.3-3.54-.29-3.54-.24-3.54.37-3.54.05-3.55-.46-3.54.14-1.17.07-.58,0-.3,0-.5-.15-.49-.07-.3-.14-.58-.79-1.6-.18-.36-.09-.11-.2-.28-.08-.23,1.42,0,3.54.06,3.55.26,1.77,0h1a.13.13,0,0,1,.12,0l.5.73,1,1.46,1.69,3.12,1.15,3.39,2,2.93,1.61,3.16.64,1.66.33.83.16.41.35.77,3.15,5.32,1.5,2.57-.1-2.91c.17-1.35.35-3.14.53-5.35L402,203.6l-.11-.88-.23-1.77.31-3.54-.27-3.54.15-1.44.08-.72a7.92,7.92,0,0,0,.08-.94c-.13-.48-.16-.63-.21-.85l-.79-1.6-.39-.8-.23-.31c0-.14,0-.25,0-.33l.42.09.15.05.06,0,.29,0,3.54-.27,3.54.38,3.54-.27.63,0-.13.42a6.93,6.93,0,0,0-.67,1.21l-.8,1.6-.22.63,0,3.36.08,3.54.45,3.54-.06,3.54-.35,3.54-.08,3.54.48,3.54-.36,3.54.29,3.54L411,226l.13,3.4.17.44,1,3,.15.47-.69,0-3.54-.27-3.54-.05h-2.84a.18.18,0,0,1-.13,0l-.47-.71-1-1.44-1.49-3.22-1.34-3.29-1.69-3.12-1.77-3.06-1.47-3.23-1.94-3-.41-1.05-.33-.82C389.83,209.77,389.52,208.71,388.19,209.4Z"/></g><path id="flash" class="cls-1" d="M366.53,75.3a42.58,42.58,0,0,0-.19-7.07c-.08-2.17-.13-4.34-.12-6.52a25.52,25.52,0,0,0-.58-5.83,3.65,3.65,0,0,1,.26-2.23,4.7,4.7,0,0,1,1-1.52,2.12,2.12,0,0,1,2.18-.6,2.93,2.93,0,0,1,1.65,1.12,3.94,3.94,0,0,1,.45,3.07,15.88,15.88,0,0,0-.52,5.15c0,1.32,0,2.65-.09,4a59.23,59.23,0,0,0,.33,7.9l.2,1.67a2,2,0,0,1-1.65,2.17,7.32,7.32,0,0,1-1.46.2C367,76.84,366.41,76.32,366.53,75.3Zm5,40.37,0-.17a.59.59,0,0,1,0-.3,30.59,30.59,0,0,0,.31-5.41c-.31-3.56-.88-7.11-.59-10.68a61.59,61.59,0,0,0,.2-8.61c-.14-2.41-.45-4.53-1.08-5.53a2.83,2.83,0,0,0-1.09-.31L368,84.52a.86.86,0,0,0-.73.56l-.1.4a1.29,1.29,0,0,1,0,.83,16.32,16.32,0,0,0-.65,4.19c-.1,2.25.36,4.52.35,6.78,0,1.69-.26,3.37-.38,5,.06,1.42.19,2.86.32,4.29l.14,1.48-.12,7c.18,2.12.87,4.24.37,6.34a.68.68,0,0,1,.09.25,35.33,35.33,0,0,1,.15,4.14,14,14,0,0,0,.75,4.65c.1.5.22,1,.34,1.49a1,1,0,0,0,.38.47.63.63,0,0,0,.88,0,5.6,5.6,0,0,0,1.52-4.06l.12-2.59.07-1.62a33.74,33.74,0,0,0,.06-3.63l-.21-4.21Zm-3.84-79.36-.87.36a2,2,0,0,0-1,1.14,2.09,2.09,0,0,0-.17.83c.11,1.53.2,3.07.39,4.58a8.07,8.07,0,0,0,.62,2,1,1,0,0,0,.59.47,2.46,2.46,0,0,0,2.33-.39,2.56,2.56,0,0,0,1-1.43,24.67,24.67,0,0,0,.45-4.73,4.12,4.12,0,0,0-.29-1.56A2,2,0,0,0,367.64,36.31Zm-106.8,80.44a6.89,6.89,0,0,0,.89-1.18,2,2,0,0,0-.37-2.71l-1.32-1a58.55,58.55,0,0,1-5.82-5.35c-.91-1-1.82-2-2.76-2.89a15.74,15.74,0,0,1-3.27-4,3.92,3.92,0,0,0-2.49-1.86,3,3,0,0,0-2,.38,2.1,2.1,0,0,0-1.11,2,4.72,4.72,0,0,0,.34,1.8,3.75,3.75,0,0,0,1.39,1.77,25.25,25.25,0,0,1,4.54,3.71c1.53,1.55,3.1,3.05,4.69,4.52a42.74,42.74,0,0,1,5.14,4.86A1.24,1.24,0,0,0,260.84,116.75Zm29.93,25-.1-.14a.59.59,0,0,1-.18-.24,30.67,30.67,0,0,0-3.6-4c-2.75-2.3-5.66-4.4-8-7.14A61.39,61.39,0,0,0,273,124c-1.8-1.62-3.52-2.89-4.68-3.15a2.73,2.73,0,0,0-1,.55l-1,.84a.87.87,0,0,0-.12.91l.22.35a1.24,1.24,0,0,1,.6.56,16.19,16.19,0,0,0,2.51,3.43c1.52,1.66,3.45,2.94,5,4.55,1.19,1.2,2.19,2.56,3.29,3.82,1.05,1,2.16,1.89,3.26,2.82l1.15.94,4.88,5.06c1.63,1.37,3.61,2.38,4.75,4.21a.9.9,0,0,1,.24.12,37.93,37.93,0,0,1,3,2.82,13.83,13.83,0,0,0,3.82,2.76c.42.28.86.55,1.3.81a1,1,0,0,0,.59.07.65.65,0,0,0,.66-.6,5.65,5.65,0,0,0-1.8-4L297.94,149l-1.09-1.19c-.82-.88-1.61-1.79-2.53-2.61l-3.12-2.82Zm-58.83-53.4-.36.87a2,2,0,0,0,.09,1.52,2.15,2.15,0,0,0,.47.71c1.16,1,2.31,2,3.52,3a8.1,8.1,0,0,0,1.84,1,1,1,0,0,0,.75-.08,2.44,2.44,0,0,0,1.37-1.92,2.56,2.56,0,0,0-.29-1.74,25.13,25.13,0,0,0-3-3.66,4.15,4.15,0,0,0-1.31-.9A2,2,0,0,0,231.94,88.38ZM278.2,183.8l-46-11.77m31.38,5.65-.16-.06a.64.64,0,0,1-.29-.12,34.15,34.15,0,0,0-5.34-1.64c-3.76-.62-7.6-1-11.1-2.18-1-.33-10.32-3.55-13.41-2.47a4.18,4.18,0,0,0-.72.9c-.29.5-1,1.35-.64,1.8.54.72,1.9,1,2.75,1.38a14.7,14.7,0,0,0,2.42.71c1.91.43,3.93.62,5.82,1.1,1.71.44,3.3,1.09,4.94,1.61,1.47.32,3,.56,4.5.81l1.55.25q3.55.93,7.08,1.89c1.28.21,2.62.28,3.9.48,3.62.58,7.14,2.56,11.19,1.93.43,0,.87,0,1.31,0a1.28,1.28,0,0,0,.53-.25c.33-.23.48-.5.42-.77a3.25,3.25,0,0,0-2.48-2.14q-1.77-.56-3.57-1.08c-1.2-.34-2.38-.72-3.66-1-1.46-.27-2.91-.57-4.36-.87Zm72-45-24.2-40.84M329.55,118l-.07-.16a.61.61,0,0,1-.12-.28,33,33,0,0,0-2.62-4.94c-2.21-3.1-4.65-6.1-6.3-9.4-.48-.94-4.79-9.8-7.74-11.22a3.84,3.84,0,0,0-1.14.13c-.56.14-1.65.25-1.73.81-.13.89.61,2.08,1,2.92A15,15,0,0,0,312,98.08c1.05,1.65,2.34,3.22,3.33,4.89.9,1.52,1.57,3.1,2.36,4.64.82,1.26,1.72,2.5,2.61,3.75l.92,1.27c1.24,2.11,2.45,4.23,3.68,6.34.74,1.06,1.64,2,2.41,3.1,2.15,3,3.24,6.86,6.55,9.28.29.31.61.61.93.91a1.17,1.17,0,0,0,.55.2.74.74,0,0,0,.84-.25A3.23,3.23,0,0,0,336,129c-.57-1.09-1.15-2.19-1.76-3.28s-1.17-2.2-1.9-3.28c-.84-1.23-1.65-2.46-2.47-3.7ZM205.87,223.87a7.32,7.32,0,0,0-.2-1.46,2,2,0,0,0-2.18-1.66l-1.66.21a59.31,59.31,0,0,1-7.91.33c-1.33,0-2.66-.09-4-.09a15.88,15.88,0,0,1-5.15-.52,4,4,0,0,0-3.07.44,3,3,0,0,0-1.12,1.66,2.11,2.11,0,0,0,.61,2.18,4.66,4.66,0,0,0,1.51,1,3.65,3.65,0,0,0,2.23.26,25.61,25.61,0,0,1,5.84-.59c2.18,0,4.35,0,6.51-.12a43.75,43.75,0,0,1,7.07-.19C205.38,225.48,205.91,224.89,205.87,223.87Zm50.59-3.47-.25,0a1.46,1.46,0,0,1-.43,0,65.4,65.4,0,0,0-7.93-.31c-5.22.31-10.42.88-15.67.59-1-.05-7.41-.46-12.61-.2-2.42.13-4.54.45-5.54,1.08a3,3,0,0,0-.31,1.09l-.13,1.32a.85.85,0,0,0,.56.73l.4.1a1.2,1.2,0,0,1,.82,0,16.38,16.38,0,0,0,4.2.64c3.29.1,6.62-.36,9.94-.34,2.48,0,4.93.26,7.38.38,2.09-.06,4.2-.2,6.3-.32l2.16-.15,10.31.13c3.12-.18,6.21-.87,9.29-.38a1.51,1.51,0,0,1,.38-.08c1.95-.21,4-.11,6.06-.15a13.62,13.62,0,0,0,4.65-.76c.5-.09,1-.21,1.5-.33A1.05,1.05,0,0,0,278,223a.63.63,0,0,0,0-.88,5.63,5.63,0,0,0-4.06-1.53l-2.59-.12-2.37-.07c-1.76,0-3.52-.13-5.32-.05l-6.17.21Zm-91.09,3.85.36.87a2,2,0,0,0,1.14,1,2.12,2.12,0,0,0,.84.16c1.53-.1,3.06-.19,4.57-.39a8.5,8.5,0,0,0,2-.61,1,1,0,0,0,.48-.59,2.48,2.48,0,0,0-.39-2.33,2.69,2.69,0,0,0-1.44-1,25.37,25.37,0,0,0-4.72-.44,4.11,4.11,0,0,0-1.56.28A2,2,0,0,0,165.37,224.25ZM494.25,98.66a2.12,2.12,0,0,0-2-1.11,4.72,4.72,0,0,0-1.8.34,3.69,3.69,0,0,0-1.77,1.39,24.83,24.83,0,0,1-3.71,4.54c-1.55,1.53-3.05,3.1-4.52,4.69a42.74,42.74,0,0,1-4.86,5.14,1.24,1.24,0,0,0,0,2.11,6.45,6.45,0,0,0,1.17.89,2,2,0,0,0,2.71-.37l1-1.32a58.65,58.65,0,0,1,5.36-5.82c1-.91,1.94-1.82,2.88-2.76a15.91,15.91,0,0,1,4-3.27,3.92,3.92,0,0,0,1.86-2.49A3,3,0,0,0,494.25,98.66ZM471,122.22l-.84-1a.86.86,0,0,0-.9-.12l-.36.21a1.21,1.21,0,0,1-.56.61,16.12,16.12,0,0,0-3.42,2.51c-1.66,1.52-2.95,3.45-4.55,5-1.21,1.18-2.57,2.19-3.83,3.29-1,1.05-1.89,2.16-2.81,3.26l-.94,1.14L447.68,142c-1.38,1.63-2.39,3.61-4.22,4.75a.9.9,0,0,1-.12.24,37.93,37.93,0,0,1-2.82,3,13.45,13.45,0,0,0-2.75,3.82c-.29.42-.56.86-.82,1.29a1,1,0,0,0-.07.6c.05.4.26.63.6.65a5.6,5.6,0,0,0,3.95-1.79l1.92-1.75,1.19-1.09c.88-.82,1.79-1.61,2.61-2.53l2.82-3.12.6-.43.14-.1a.51.51,0,0,1,.24-.18,30,30,0,0,0,4-3.6c2.3-2.75,4.4-5.66,7.14-8a62.23,62.23,0,0,0,6.23-5.94c1.61-1.8,2.88-3.52,3.14-4.68A2.73,2.73,0,0,0,471,122.22Zm33-35.36-.87-.36a2.29,2.29,0,0,0-2.23.56c-1,1.16-2,2.31-3,3.51a8.17,8.17,0,0,0-1,1.85,1,1,0,0,0,.08.75,2.47,2.47,0,0,0,1.92,1.37,2.62,2.62,0,0,0,1.74-.29,25.13,25.13,0,0,0,3.66-3,4.15,4.15,0,0,0,.9-1.31A2,2,0,0,0,504,86.86Zm.6,83.38c-.82-.37-2.17,0-3.08.11a16.4,16.4,0,0,0-2.46.54c-1.89.55-3.75,1.35-5.64,1.83-1.71.44-3.41.64-5.11,1-1.43.43-2.88.95-4.33,1.46l-1.48.53c-2.37.59-4.75,1.16-7.12,1.74-1.22.43-2.42,1-3.65,1.45-3.44,1.23-7.49,1.18-10.74,3.69-.38.19-.76.41-1.14.63a1.44,1.44,0,0,0-.35.47.75.75,0,0,0,0,.88,3.22,3.22,0,0,0,3.2.68c1.21-.23,2.42-.49,3.64-.76s2.44-.51,3.68-.91c1.42-.46,2.83-.89,4.24-1.33l.74-.07.18,0a.53.53,0,0,1,.3,0,33.57,33.57,0,0,0,5.48-1.13c3.59-1.26,7.15-2.76,10.78-3.42,1-.19,10.75-1.84,12.95-4.27a4,4,0,0,0,.19-1.14C504.89,171.55,505.08,170.47,504.57,170.24Zm-102.7-37.58,24.2-40.84m-14.23,28.53.11-.14a.6.6,0,0,1,.19-.24,33.68,33.68,0,0,0,3.08-4.67c1.65-3.43,3.11-7,5.2-10,.6-.86,6.3-8.9,6.14-12.17a4.08,4.08,0,0,0-.67-.94c-.39-.43-1-1.33-1.55-1.13-.83.32-1.52,1.53-2.09,2.25a16.06,16.06,0,0,0-1.36,2.13c-.95,1.72-1.7,3.6-2.69,5.28-.9,1.51-2,2.86-2.94,4.29-.71,1.32-1.36,2.71-2,4.09-.23.47-.45,1-.67,1.42-1.26,2.1-2.53,4.18-3.8,6.27-.57,1.16-1,2.43-1.56,3.6-1.57,3.31-4.46,6.14-5,10.21-.13.4-.24.83-.35,1.25a1.2,1.2,0,0,0,.08.58c.13.39.35.6.63.62a3.23,3.23,0,0,0,2.74-1.78q1-1.53,2-3.12c.67-1.06,1.37-2.08,2-3.24.67-1.33,1.37-2.63,2.06-3.94ZM531.57,222.48a6.57,6.57,0,0,0,.2,1.45,2,2,0,0,0,2.17,1.66l1.67-.21a59.23,59.23,0,0,1,7.9-.33c1.33.06,2.67.09,4,.09a15.88,15.88,0,0,1,5.15.52,3.91,3.91,0,0,0,3.07-.44,3,3,0,0,0,1.12-1.66,2.09,2.09,0,0,0-.61-2.17,4.59,4.59,0,0,0-1.51-1,3.73,3.73,0,0,0-2.23-.26,25.61,25.61,0,0,1-5.84.59c-2.17,0-4.34,0-6.51.12a43.72,43.72,0,0,1-7.07.19C532.05,220.86,531.53,221.45,531.57,222.48ZM481,225.94l.25,0a1.46,1.46,0,0,1,.43,0,65.48,65.48,0,0,0,7.93.32c5.23-.32,10.42-.89,15.67-.6,1,.05,7.41.46,12.62.2,2.41-.13,4.53-.44,5.53-1.08a2.78,2.78,0,0,0,.31-1.09l.14-1.32a.89.89,0,0,0-.56-.73l-.4-.09a1.3,1.3,0,0,1-.83,0,16.37,16.37,0,0,0-4.19-.64c-3.3-.1-6.63.36-9.95.34-2.47,0-4.93-.26-7.38-.38-2.09.06-4.2.2-6.3.32l-2.16.15-10.31-.13c-3.12.18-6.21.87-9.29.38a2.11,2.11,0,0,1-.38.09c-2,.2-4,.1-6.06.14a13.66,13.66,0,0,0-4.65.76c-.5.09-1,.21-1.49.33a1,1,0,0,0-.47.38.63.63,0,0,0,0,.88,5.63,5.63,0,0,0,4.06,1.53l2.59.12,2.37.07c1.77,0,3.53.13,5.33.05l6.16-.21Zm91.09-3.85-.36-.87a2.31,2.31,0,0,0-2-1.17c-1.53.1-3.07.2-4.58.39a8.07,8.07,0,0,0-2,.62.92.92,0,0,0-.47.59,2.46,2.46,0,0,0,.38,2.32,2.69,2.69,0,0,0,1.44,1,25.39,25.39,0,0,0,4.73.44,4.14,4.14,0,0,0,1.56-.28A2,2,0,0,0,572.06,222.09ZM430.27,80.57a2.33,2.33,0,1,0,2.33,2.33A2.33,2.33,0,0,0,430.27,80.57ZM223.52,166.69a2.67,2.67,0,1,0,2.66,2.67A2.67,2.67,0,0,0,223.52,166.69Z"/></svg>